AnekDevanagari-ExpandedThin.ufo
<glyph name="semicolon" format="2">
  <advance width="416"/>
  <unicode hex="003B"/>
  <outline>
    <contour>
      <point x="191" y="240" type="line"/>
      <point x="197" y="206"/>
      <point x="200" y="171"/>
      <point x="200" y="132" type="curve" smooth="yes"/>
      <point x="200" y="-27"/>
      <point x="165" y="-146"/>
      <point x="63" y="-272" type="curve"/>
      <point x="86" y="-294" type="line"/>
      <point x="200" y="-162"/>
      <point x="238" y="-32"/>
      <point x="238" y="134" type="curve" smooth="yes"/>
      <point x="238" y="180"/>
      <point x="232" y="219"/>
      <point x="229" y="240" type="curve"/>
    </contour>
    <contour>
      <point x="209" y="779" type="curve" smooth="yes"/>
      <point x="247" y="779"/>
      <point x="268" y="797"/>
      <point x="268" y="832" type="curve" smooth="yes"/>
      <point x="268" y="836" type="line" smooth="yes"/>
      <point x="268" y="870"/>
      <point x="247" y="887"/>
      <point x="209" y="887" type="curve" smooth="yes"/>
      <point x="174" y="887"/>
      <point x="152" y="870"/>
      <point x="152" y="836" type="curve" smooth="yes"/>
      <point x="152" y="832" type="line" smooth="yes"/>
      <point x="152" y="797"/>
      <point x="174" y="779"/>
    </contour>
  </outline>
</glyph>
<glyph name="less" format="2">
  <advance width="1402"/>
  <unicode hex="003C"/>
  <outline>
    <contour>
      <point x="1185" y="947" type="line"/>
      <point x="1185" y="987" type="line"/>
      <point x="166" y="652" type="line"/>
      <point x="166" y="576" type="line"/>
      <point x="1185" y="241" type="line"/>
      <point x="1185" y="281" type="line"/>
      <point x="198" y="601" type="line"/>
      <point x="198" y="627" type="line"/>
    </contour>
  </outline>
</glyph>
<glyph name="S" format="2">
  <advance width="1452"/>
  <unicode hex="0053"/>
  <anchor x="723" y="0" name="bottom"/>
  <anchor x="723" y="1278" name="top"/>
  <outline>
    <contour>
      <point x="738" y="-21" type="curve" smooth="yes"/>
      <point x="1108" y="-21"/>
      <point x="1304" y="98"/>
      <point x="1304" y="335" type="curve"/>
      <point x="1304" y="335" type="line"/>
      <point x="1304" y="577"/>
      <point x="1176" y="660"/>
      <point x="723" y="685" type="curve" smooth="yes"/>
      <point x="284" y="709"/>
      <point x="188" y="792"/>
      <point x="188" y="972" type="curve"/>
      <point x="188" y="972" type="line"/>
      <point x="188" y="1151"/>
      <point x="332" y="1260"/>
      <point x="671" y="1260" type="curve" smooth="yes"/>
      <point x="939" y="1260"/>
      <point x="1125" y="1191"/>
      <point x="1248" y="1117" type="curve"/>
      <point x="1243" y="1159" type="line"/>
      <point x="1145" y="1221"/>
      <point x="951" y="1297"/>
      <point x="673" y="1297" type="curve" smooth="yes"/>
      <point x="305" y="1297"/>
      <point x="147" y="1175"/>
      <point x="147" y="972" type="curve"/>
      <point x="147" y="972" type="line"/>
      <point x="147" y="771"/>
      <point x="256" y="671"/>
      <point x="718" y="648" type="curve" smooth="yes"/>
      <point x="1139" y="627"/>
      <point x="1263" y="559"/>
      <point x="1263" y="334" type="curve"/>
      <point x="1263" y="334" type="line"/>
      <point x="1263" y="123"/>
      <point x="1081" y="16"/>
      <point x="740" y="16" type="curve" smooth="yes"/>
      <point x="466" y="16"/>
      <point x="266" y="101"/>
      <point x="130" y="189" type="curve"/>
      <point x="135" y="142" type="line"/>
      <point x="238" y="75"/>
      <point x="442" y="-21"/>
    </contour>
  </outline>
</glyph>
<glyph name="bracketright" format="2">
  <advance width="788"/>
  <unicode hex="005D"/>
  <outline>
    <contour>
      <point x="552" y="1347" type="line"/>
      <point x="92" y="1347" type="line"/>
      <point x="92" y="1313" type="line"/>
      <point x="514" y="1313" type="line"/>
      <point x="514" y="-197" type="line"/>
      <point x="92" y="-197" type="line"/>
      <point x="92" y="-231" type="line"/>
      <point x="552" y="-231" type="line"/>
    </contour>
  </outline>
</glyph>
<glyph name="asciicircum" format="2">
  <advance width="1076"/>
  <unicode hex="005E"/>
  <outline>
    <contour>
      <point x="94" y="605" type="line"/>
      <point x="140" y="605" type="line"/>
      <point x="525" y="1246" type="line"/>
      <point x="551" y="1246" type="line"/>
      <point x="936" y="605" type="line"/>
      <point x="982" y="605" type="line"/>
      <point x="574" y="1278" type="line"/>
      <point x="502" y="1278" type="line"/>
    </contour>
  </outline>
</glyph>
<glyph name="j" format="2">
  <advance width="520"/>
  <unicode hex="006A"/>
  <outline>
    <contour>
      <point x="314" y="172" type="line"/>
      <point x="314" y="952" type="line"/>
      <point x="276" y="952" type="line"/>
      <point x="276" y="172" type="line"/>
    </contour>
    <contour>
      <point x="294" y="1198" type="curve" smooth="yes"/>
      <point x="332" y="1198"/>
      <point x="353" y="1216"/>
      <point x="353" y="1250" type="curve" smooth="yes"/>
      <point x="353" y="1253" type="line" smooth="yes"/>
      <point x="353" y="1285"/>
      <point x="332" y="1303"/>
      <point x="294" y="1303" type="curve" smooth="yes"/>
      <point x="259" y="1303"/>
      <point x="237" y="1285"/>
      <point x="237" y="1253" type="curve" smooth="yes"/>
      <point x="237" y="1250" type="line" smooth="yes"/>
      <point x="237" y="1216"/>
      <point x="259" y="1198"/>
    </contour>
    <contour>
      <point x="15" y="-352" type="curve" smooth="yes"/>
      <point x="235" y="-352"/>
      <point x="314" y="-240"/>
      <point x="314" y="-16" type="curve" smooth="yes"/>
      <point x="314" y="332" type="line"/>
      <point x="276" y="332" type="line"/>
      <point x="276" y="-16" type="line" smooth="yes"/>
      <point x="276" y="-219"/>
      <point x="209" y="-317"/>
      <point x="21" y="-317" type="curve" smooth="yes"/>
      <point x="-49" y="-317"/>
      <point x="-118" y="-302"/>
      <point x="-178" y="-273" type="curve"/>
      <point x="-172" y="-314" type="line"/>
      <point x="-125" y="-334"/>
      <point x="-58" y="-352"/>
    </contour>
  </outline>
</glyph>
<glyph name="k" format="2">
  <advance width="1260"/>
  <unicode hex="006B"/>
  <anchor x="650" y="0" name="bottom"/>
  <anchor x="650" y="1324" name="top"/>
  <outline>
    <contour>
      <point x="1188" y="0" type="line"/>
      <point x="423" y="525" type="line"/>
      <point x="423" y="500" type="line"/>
      <point x="1161" y="952" type="line"/>
      <point x="1093" y="952" type="line"/>
      <point x="402" y="529" type="line"/>
      <point x="229" y="529" type="line"/>
      <point x="229" y="495" type="line"/>
      <point x="402" y="495" type="line"/>
      <point x="1121" y="0" type="line"/>
    </contour>
    <contour>
      <point x="240" y="0" type="line"/>
      <point x="240" y="1324" type="line"/>
      <point x="202" y="1324" type="line"/>
      <point x="202" y="0" type="line"/>
    </contour>
  </outline>
</glyph>
<glyph name="m" format="2">
  <advance width="2186"/>
  <unicode hex="006D"/>
  <anchor x="1093" y="0" name="bottom"/>
  <anchor x="1093" y="952" name="top"/>
  <outline>
    <contour>
      <point x="2006" y="0" type="line"/>
      <point x="2006" y="529" type="line" smooth="yes"/>
      <point x="2006" y="808"/>
      <point x="1896" y="977"/>
      <point x="1583" y="977" type="curve" smooth="yes"/>
      <point x="1293" y="977"/>
      <point x="1122" y="789"/>
      <point x="1104" y="589" type="curve"/>
      <point x="1091" y="589" type="line"/>
      <point x="1113" y="557" type="line"/>
      <point x="1141" y="774"/>
      <point x="1319" y="943"/>
      <point x="1577" y="943" type="curve" smooth="yes"/>
      <point x="1866" y="943"/>
      <point x="1968" y="781"/>
      <point x="1968" y="523" type="curve" smooth="yes"/>
      <point x="1968" y="0" type="line"/>
    </contour>
    <contour>
      <point x="240" y="0" type="line"/>
      <point x="240" y="632" type="line"/>
      <point x="236" y="632" type="line"/>
      <point x="240" y="952" type="line"/>
      <point x="202" y="952" type="line"/>
      <point x="202" y="0" type="line"/>
    </contour>
    <contour>
      <point x="1123" y="0" type="line"/>
      <point x="1123" y="532" type="line" smooth="yes"/>
      <point x="1123" y="561"/>
      <point x="1122" y="591"/>
      <point x="1118" y="628" type="curve"/>
      <point x="1086" y="863"/>
      <point x="954" y="977"/>
      <point x="700" y="977" type="curve" smooth="yes"/>
      <point x="411" y="977"/>
      <point x="238" y="787"/>
      <point x="222" y="586" type="curve"/>
      <point x="209" y="586" type="line"/>
      <point x="229" y="557" type="line"/>
      <point x="259" y="774"/>
      <point x="436" y="943"/>
      <point x="693" y="943" type="curve" smooth="yes"/>
      <point x="982" y="943"/>
      <point x="1085" y="781"/>
      <point x="1085" y="523" type="curve" smooth="yes"/>
      <point x="1085" y="0" type="line"/>
    </contour>
  </outline>
</glyph>
<glyph name="yen" format="2">
  <advance width="1488"/>
  <unicode hex="00A5"/>
  <anchor x="740" y="0" name="bottom"/>
  <anchor x="740" y="1278" name="top"/>
  <anchor x="20" y="1278" name="topleft"/>
  <outline>
    <contour>
      <point x="1326" y="633" type="line"/>
      <point x="1333" y="665" type="line"/>
      <point x="925" y="665" type="line"/>
      <point x="903" y="633" type="line"/>
    </contour>
    <contour>
      <point x="156" y="294" type="line"/>
      <point x="1326" y="294" type="line"/>
      <point x="1333" y="326" type="line"/>
      <point x="163" y="326" type="line"/>
    </contour>
    <contour>
      <point x="163" y="665" type="line"/>
      <point x="156" y="633" type="line"/>
      <point x="580" y="633" type="line"/>
      <point x="558" y="665" type="line"/>
    </contour>
    <contour>
      <point x="757" y="405" type="line"/>
      <point x="1402" y="1278" type="line"/>
      <point x="1355" y="1278" type="line"/>
      <point x="895" y="654" type="line"/>
      <point x="746" y="453" type="line"/>
      <point x="734" y="453" type="line"/>
      <point x="586" y="654" type="line"/>
      <point x="125" y="1278" type="line"/>
      <point x="78" y="1278" type="line"/>
      <point x="723" y="405" type="line"/>
    </contour>
    <contour>
      <point x="759" y="0" type="line"/>
      <point x="759" y="438" type="line"/>
      <point x="721" y="438" type="line"/>
      <point x="721" y="0" type="line"/>
    </contour>
  </outline>
</glyph>
<glyph name="dieresis" format="2">
  <advance width="662"/>
  <unicode hex="00A8"/>
  <anchor x="331" y="952" name="_top"/>
  <anchor x="331" y="1321" name="top"/>
  <outline>
    <contour>
      <point x="157" y="1193" type="curve" smooth="yes"/>
      <point x="192" y="1193"/>
      <point x="214" y="1210"/>
      <point x="214" y="1244" type="curve" smooth="yes"/>
      <point x="214" y="1248" type="line" smooth="yes"/>
      <point x="214" y="1278"/>
      <point x="192" y="1296"/>
      <point x="157" y="1296" type="curve" smooth="yes"/>
      <point x="121" y="1296"/>
      <point x="100" y="1278"/>
      <point x="100" y="1248" type="curve" smooth="yes"/>
      <point x="100" y="1244" type="line" smooth="yes"/>
      <point x="100" y="1210"/>
      <point x="121" y="1193"/>
    </contour>
    <contour>
      <point x="506" y="1193" type="curve" smooth="yes"/>
      <point x="541" y="1193"/>
      <point x="562" y="1210"/>
      <point x="562" y="1244" type="curve" smooth="yes"/>
      <point x="562" y="1248" type="line" smooth="yes"/>
      <point x="562" y="1278"/>
      <point x="541" y="1296"/>
      <point x="506" y="1296" type="curve" smooth="yes"/>
      <point x="470" y="1296"/>
      <point x="449" y="1278"/>
      <point x="449" y="1248" type="curve" smooth="yes"/>
      <point x="449" y="1244" type="line" smooth="yes"/>
      <point x="449" y="1210"/>
      <point x="470" y="1193"/>
    </contour>
  </outline>
</glyph>
<glyph name="ordfeminine" format="2">
  <advance width="922"/>
  <unicode hex="00AA"/>
  <outline>
    <contour>
      <point x="752" y="649" type="line"/>
      <point x="752" y="1050" type="line" smooth="yes"/>
      <point x="752" y="1202"/>
      <point x="661" y="1296"/>
      <point x="465" y="1296" type="curve" smooth="yes"/>
      <point x="307" y="1296"/>
      <point x="207" y="1241"/>
      <point x="155" y="1206" type="curve"/>
      <point x="151" y="1171" type="line"/>
      <point x="217" y="1214"/>
      <point x="321" y="1265"/>
      <point x="462" y="1265" type="curve" smooth="yes"/>
      <point x="635" y="1265"/>
      <point x="718" y="1187"/>
      <point x="718" y="1052" type="curve"/>
      <point x="718" y="1003" type="line"/>
      <point x="718" y="853" type="line"/>
      <point x="720" y="844" type="line"/>
      <point x="717" y="649" type="line"/>
    </contour>
    <contour>
      <point x="371" y="633" type="curve" smooth="yes"/>
      <point x="590" y="633"/>
      <point x="719" y="746"/>
      <point x="730" y="870" type="curve"/>
      <point x="739" y="870" type="line"/>
      <point x="723" y="893" type="line"/>
      <point x="702" y="768"/>
      <point x="578" y="664"/>
      <point x="379" y="664" type="curve" smooth="yes"/>
      <point x="242" y="664"/>
      <point x="155" y="715"/>
      <point x="155" y="809" type="curve" smooth="yes"/>
      <point x="155" y="816" type="line" smooth="yes"/>
      <point x="155" y="927"/>
      <point x="243" y="964"/>
      <point x="424" y="977" type="curve" smooth="yes"/>
      <point x="728" y="998" type="line"/>
      <point x="727" y="1026" type="line"/>
      <point x="421" y="1004" type="line" smooth="yes"/>
      <point x="213" y="989"/>
      <point x="120" y="940"/>
      <point x="120" y="815" type="curve" smooth="yes"/>
      <point x="120" y="808" type="line" smooth="yes"/>
      <point x="120" y="693"/>
      <point x="217" y="633"/>
    </contour>
  </outline>
</glyph>
<glyph name="guillemetleft" format="2">
  <advance width="1320"/>
  <unicode hex="00AB"/>
  <outline>
    <contour>
      <point x="1235" y="857" type="line"/>
      <point x="1178" y="857" type="line"/>
      <point x="716" y="498" type="line"/>
      <point x="716" y="450" type="line"/>
      <point x="1178" y="91" type="line"/>
      <point x="1235" y="91" type="line"/>
      <point x="748" y="474" type="line"/>
    </contour>
    <contour>
      <point x="634" y="857" type="line"/>
      <point x="577" y="857" type="line"/>
      <point x="115" y="498" type="line"/>
      <point x="115" y="450" type="line"/>
      <point x="577" y="91" type="line"/>
      <point x="634" y="91" type="line"/>
      <point x="147" y="474" type="line"/>
    </contour>
  </outline>
</glyph>
<glyph name="logicalnot" format="2">
  <advance width="1371"/>
  <unicode hex="00AC"/>
  <outline>
    <contour>
      <point x="1185" y="610" type="line"/>
      <point x="1149" y="610" type="line"/>
      <point x="1149" y="104" type="line"/>
      <point x="1185" y="104" type="line"/>
    </contour>
    <contour>
      <point x="1185" y="596" type="line"/>
      <point x="1185" y="630" type="line"/>
      <point x="166" y="630" type="line"/>
      <point x="166" y="596" type="line"/>
    </contour>
  </outline>
</glyph>
<glyph name="softhyphen" format="2">
  <advance width="1141"/>
  <unicode hex="00AD"/>
  <outline>
    <contour>
      <point x="955" y="513" type="line"/>
      <point x="955" y="547" type="line"/>
      <point x="186" y="547" type="line"/>
      <point x="186" y="513" type="line"/>
    </contour>
  </outline>
</glyph>
<glyph name="degree" format="2">
  <advance width="787"/>
  <unicode hex="00B0"/>
  <outline>
    <contour>
      <point x="393" y="790" type="curve" smooth="yes"/>
      <point x="561" y="790"/>
      <point x="659" y="893"/>
      <point x="659" y="1043" type="curve"/>
      <point x="659" y="1047" type="line"/>
      <point x="659" y="1197"/>
      <point x="561" y="1299"/>
      <point x="393" y="1299" type="curve" smooth="yes"/>
      <point x="226" y="1299"/>
      <point x="128" y="1197"/>
      <point x="128" y="1047" type="curve"/>
      <point x="128" y="1043" type="line"/>
      <point x="128" y="893"/>
      <point x="226" y="790"/>
    </contour>
    <contour>
      <point x="393" y="824" type="curve" smooth="yes"/>
      <point x="249" y="824"/>
      <point x="165" y="911"/>
      <point x="165" y="1043" type="curve" smooth="yes"/>
      <point x="165" y="1047" type="line" smooth="yes"/>
      <point x="165" y="1179"/>
      <point x="249" y="1265"/>
      <point x="393" y="1265" type="curve" smooth="yes"/>
      <point x="537" y="1265"/>
      <point x="621" y="1179"/>
      <point x="621" y="1047" type="curve" smooth="yes"/>
      <point x="621" y="1043" type="line" smooth="yes"/>
      <point x="621" y="911"/>
      <point x="537" y="824"/>
    </contour>
  </outline>
</glyph>
<glyph name="cedilla" format="2">
  <advance width="632"/>
  <unicode hex="00B8"/>
  <anchor x="316" y="0" name="_bottom"/>
  <anchor x="393" y="-428" name="bottom"/>
  <outline>
    <contour>
      <point x="300" y="0" type="line"/>
      <point x="275" y="-166" type="line"/>
      <point x="307" y="-168"/>
      <point x="335" y="-170"/>
      <point x="360" y="-171" type="curve"/>
      <point x="508" y="-182"/>
      <point x="572" y="-209"/>
      <point x="572" y="-289" type="curve" smooth="yes"/>
      <point x="572" y="-296" type="line" smooth="yes"/>
      <point x="572" y="-362"/>
      <point x="504" y="-394"/>
      <point x="389" y="-394" type="curve" smooth="yes"/>
      <point x="310" y="-394"/>
      <point x="239" y="-381"/>
      <point x="177" y="-356" type="curve"/>
      <point x="187" y="-396" type="line"/>
      <point x="232" y="-412"/>
      <point x="310" y="-428"/>
      <point x="389" y="-428" type="curve" smooth="yes"/>
      <point x="526" y="-428"/>
      <point x="609" y="-385"/>
      <point x="609" y="-294" type="curve" smooth="yes"/>
      <point x="609" y="-287" type="line" smooth="yes"/>
      <point x="609" y="-189"/>
      <point x="531" y="-154"/>
      <point x="373" y="-141" type="curve" smooth="yes"/>
      <point x="349" y="-139"/>
      <point x="328" y="-139"/>
      <point x="305" y="-138" type="curve"/>
      <point x="310" y="-157" type="line"/>
      <point x="333" y="0" type="line"/>
    </contour>
  </outline>
</glyph>
<glyph name="onequarter" format="2">
  <advance width="1830"/>
  <unicode hex="00BC"/>
  <outline>
    <contour>
      <point x="386" y="606" type="line"/>
      <point x="386" y="1278" type="line"/>
      <point x="334" y="1278" type="line"/>
      <point x="58" y="1133" type="line"/>
      <point x="56" y="1096" type="line"/>
      <point x="344" y="1246" type="line"/>
      <point x="351" y="1246" type="line"/>
      <point x="351" y="606" type="line"/>
    </contour>
    <contour>
      <point x="276" y="0" type="line"/>
      <point x="1525" y="1278" type="line"/>
      <point x="1480" y="1278" type="line"/>
      <point x="231" y="0" type="line"/>
    </contour>
    <contour>
      <point x="1646" y="0" type="line"/>
      <point x="1646" y="672" type="line"/>
      <point x="1564" y="672" type="line"/>
      <point x="1023" y="196" type="line"/>
      <point x="1023" y="149" type="line"/>
      <point x="1812" y="149" type="line"/>
      <point x="1812" y="181" type="line"/>
      <point x="1045" y="181" type="line"/>
      <point x="1063" y="161" type="line"/>
      <point x="1063" y="187" type="line"/>
      <point x="1582" y="643" type="line"/>
      <point x="1612" y="643" type="line"/>
      <point x="1611" y="506" type="line"/>
      <point x="1611" y="0" type="line"/>
    </contour>
  </outline>
</glyph>
<glyph name="onehalf" format="2">
  <advance width="2046"/>
  <unicode hex="00BD"/>
  <outline>
    <contour>
      <point x="386" y="606" type="line"/>
      <point x="386" y="1278" type="line"/>
      <point x="334" y="1278" type="line"/>
      <point x="58" y="1133" type="line"/>
      <point x="56" y="1096" type="line"/>
      <point x="344" y="1246" type="line"/>
      <point x="351" y="1246" type="line"/>
      <point x="351" y="606" type="line"/>
    </contour>
    <contour>
      <point x="276" y="0" type="line"/>
      <point x="1525" y="1278" type="line"/>
      <point x="1480" y="1278" type="line"/>
      <point x="231" y="0" type="line"/>
    </contour>
    <contour>
      <point x="1970" y="0" type="line"/>
      <point x="1970" y="33" type="line"/>
      <point x="1304" y="31" type="line"/>
      <point x="1318" y="24" type="line"/>
      <point x="1318" y="33" type="line"/>
      <point x="1601" y="162" type="line" smooth="yes"/>
      <point x="1816" y="260"/>
      <point x="1949" y="330"/>
      <point x="1949" y="476" type="curve" smooth="yes"/>
      <point x="1949" y="481" type="line" smooth="yes"/>
      <point x="1949" y="613"/>
      <point x="1831" y="684"/>
      <point x="1628" y="684" type="curve" smooth="yes"/>
      <point x="1502" y="684"/>
      <point x="1361" y="646"/>
      <point x="1282" y="592" type="curve"/>
      <point x="1278" y="556" type="line"/>
      <point x="1384" y="616"/>
      <point x="1509" y="651"/>
      <point x="1627" y="651" type="curve" smooth="yes"/>
      <point x="1806" y="651"/>
      <point x="1912" y="596"/>
      <point x="1912" y="480" type="curve" smooth="yes"/>
      <point x="1912" y="477" type="line" smooth="yes"/>
      <point x="1912" y="346"/>
      <point x="1778" y="281"/>
      <point x="1588" y="192" type="curve" smooth="yes"/>
      <point x="1273" y="45" type="line"/>
      <point x="1273" y="0" type="line"/>
    </contour>
  </outline>
</glyph>
<glyph name="threequarters" format="2">
  <advance width="2172"/>
  <unicode hex="00BE"/>
  <outline>
    <contour>
      <point x="438" y="596" type="curve" smooth="yes"/>
      <point x="686" y="596"/>
      <point x="806" y="670"/>
      <point x="806" y="786" type="curve" smooth="yes"/>
      <point x="806" y="795" type="line" smooth="yes"/>
      <point x="806" y="892"/>
      <point x="732" y="957"/>
      <point x="540" y="958" type="curve"/>
      <point x="550" y="947" type="line"/>
      <point x="550" y="952" type="line"/>
      <point x="721" y="954"/>
      <point x="795" y="1018"/>
      <point x="795" y="1110" type="curve" smooth="yes"/>
      <point x="795" y="1117" type="line" smooth="yes"/>
      <point x="795" y="1222"/>
      <point x="690" y="1289"/>
      <point x="457" y="1289" type="curve" smooth="yes"/>
      <point x="279" y="1289"/>
      <point x="155" y="1248"/>
      <point x="93" y="1215" type="curve"/>
      <point x="88" y="1180" type="line"/>
      <point x="168" y="1219"/>
      <point x="284" y="1256"/>
      <point x="453" y="1256" type="curve" smooth="yes"/>
      <point x="662" y="1256"/>
      <point x="758" y="1203"/>
      <point x="758" y="1116" type="curve" smooth="yes"/>
      <point x="758" y="1112" type="line" smooth="yes"/>
      <point x="758" y="1031"/>
      <point x="686" y="971"/>
      <point x="479" y="970" type="curve" smooth="yes"/>
      <point x="259" y="969" type="line"/>
      <point x="259" y="940" type="line"/>
      <point x="478" y="938" type="line" smooth="yes"/>
      <point x="750" y="936"/>
      <point x="769" y="845"/>
      <point x="769" y="795" type="curve" smooth="yes"/>
      <point x="769" y="790" type="line" smooth="yes"/>
      <point x="769" y="689"/>
      <point x="661" y="629"/>
      <point x="440" y="629" type="curve" smooth="yes"/>
      <point x="293" y="629"/>
      <point x="162" y="664"/>
      <point x="84" y="697" type="curve"/>
      <point x="88" y="660" type="line"/>
      <point x="145" y="637"/>
      <point x="272" y="596"/>
    </contour>
    <contour>
      <point x="618" y="0" type="line"/>
      <point x="1867" y="1278" type="line"/>
      <point x="1822" y="1278" type="line"/>
      <point x="573" y="0" type="line"/>
    </contour>
    <contour>
      <point x="1988" y="0" type="line"/>
      <point x="1988" y="672" type="line"/>
      <point x="1906" y="672" type="line"/>
      <point x="1365" y="196" type="line"/>
      <point x="1365" y="149" type="line"/>
      <point x="2154" y="149" type="line"/>
      <point x="2154" y="181" type="line"/>
      <point x="1387" y="181" type="line"/>
      <point x="1405" y="161" type="line"/>
      <point x="1405" y="187" type="line"/>
      <point x="1924" y="643" type="line"/>
      <point x="1954" y="643" type="line"/>
      <point x="1953" y="506" type="line"/>
      <point x="1953" y="0" type="line"/>
    </contour>
  </outline>
</glyph>
<glyph name="Agrave" format="2">
  <advance width="1530"/>
  <unicode hex="00C0"/>
  <anchor x="765" y="0" name="bottom"/>
  <anchor x="1495" y="0" name="ogonek"/>
  <anchor x="601" y="1654" name="top"/>
  <outline>
    <contour>
      <point x="124" y="0" type="line"/>
      <point x="748" y="1246" type="line"/>
      <point x="782" y="1246" type="line"/>
      <point x="1406" y="0" type="line"/>
      <point x="1448" y="0" type="line"/>
      <point x="807" y="1278" type="line"/>
      <point x="723" y="1278" type="line"/>
      <point x="82" y="0" type="line"/>
    </contour>
    <contour>
      <point x="1196" y="447" type="line"/>
      <point x="1196" y="481" type="line"/>
      <point x="334" y="481" type="line"/>
      <point x="334" y="447" type="line"/>
    </contour>
    <contour>
      <point x="379" y="1704" type="line"/>
      <point x="379" y="1701" type="line"/>
      <point x="733" y="1450" type="line"/>
      <point x="781" y="1450" type="line"/>
      <point x="781" y="1452" type="line"/>
      <point x="436" y="1704" type="line"/>
    </contour>
  </outline>
</glyph>
<glyph name="Acircumflex" format="2">
  <advance width="1530"/>
  <unicode hex="00C2"/>
  <anchor x="765" y="0" name="bottom"/>
  <anchor x="1495" y="0" name="ogonek"/>
  <anchor x="768" y="1654" name="top"/>
  <outline>
    <contour>
      <point x="124" y="0" type="line"/>
      <point x="748" y="1246" type="line"/>
      <point x="782" y="1246" type="line"/>
      <point x="1406" y="0" type="line"/>
      <point x="1448" y="0" type="line"/>
      <point x="807" y="1278" type="line"/>
      <point x="723" y="1278" type="line"/>
      <point x="82" y="0" type="line"/>
    </contour>
    <contour>
      <point x="1196" y="447" type="line"/>
      <point x="1196" y="481" type="line"/>
      <point x="334" y="481" type="line"/>
      <point x="334" y="447" type="line"/>
    </contour>
    <contour>
      <point x="413" y="1452" type="line"/>
      <point x="413" y="1450" type="line"/>
      <point x="461" y="1450" type="line"/>
      <point x="762" y="1673" type="line"/>
      <point x="768" y="1673" type="line"/>
      <point x="1068" y="1450" type="line"/>
      <point x="1117" y="1450" type="line"/>
      <point x="1117" y="1452" type="line"/>
      <point x="789" y="1704" type="line"/>
      <point x="741" y="1704" type="line"/>
    </contour>
  </outline>
</glyph>
<glyph name="Atilde" format="2">
  <advance width="1530"/>
  <unicode hex="00C3"/>
  <anchor x="765" y="0" name="bottom"/>
  <anchor x="1495" y="0" name="ogonek"/>
  <anchor x="765" y="1634" name="top"/>
  <outline>
    <contour>
      <point x="124" y="0" type="line"/>
      <point x="748" y="1246" type="line"/>
      <point x="782" y="1246" type="line"/>
      <point x="1406" y="0" type="line"/>
      <point x="1448" y="0" type="line"/>
      <point x="807" y="1278" type="line"/>
      <point x="723" y="1278" type="line"/>
      <point x="82" y="0" type="line"/>
    </contour>
    <contour>
      <point x="1196" y="447" type="line"/>
      <point x="1196" y="481" type="line"/>
      <point x="334" y="481" type="line"/>
      <point x="334" y="447" type="line"/>
    </contour>
    <contour>
      <point x="950" y="1463" type="curve" smooth="yes"/>
      <point x="1057" y="1463"/>
      <point x="1083" y="1531"/>
      <point x="1083" y="1612" type="curve" smooth="yes"/>
      <point x="1083" y="1652" type="line"/>
      <point x="1051" y="1652" type="line"/>
      <point x="1051" y="1616" type="line" smooth="yes"/>
      <point x="1051" y="1544"/>
      <point x="1024" y="1497"/>
      <point x="953" y="1497" type="curve" smooth="yes"/>
      <point x="825" y="1497"/>
      <point x="724" y="1642"/>
      <point x="580" y="1642" type="curve" smooth="yes"/>
      <point x="474" y="1642"/>
      <point x="447" y="1572"/>
      <point x="447" y="1491" type="curve" smooth="yes"/>
      <point x="447" y="1453" type="line"/>
      <point x="479" y="1453" type="line"/>
      <point x="479" y="1489" type="line" smooth="yes"/>
      <point x="479" y="1561"/>
      <point x="506" y="1608"/>
      <point x="577" y="1608" type="curve" smooth="yes"/>
      <point x="703" y="1608"/>
      <point x="804" y="1463"/>
    </contour>
  </outline>
</glyph>
<glyph name="Eacute" format="2">
  <advance width="1462"/>
  <unicode hex="00C9"/>
  <anchor x="780" y="0" name="bottom"/>
  <anchor x="1356" y="0" name="ogonek"/>
  <anchor x="780" y="1654" name="top"/>
  <anchor x="20" y="1278" name="topleft"/>
  <outline>
    <contour>
      <point x="275" y="0" type="line"/>
      <point x="275" y="1278" type="line"/>
      <point x="236" y="1278" type="line"/>
      <point x="236" y="0" type="line"/>
    </contour>
    <contour>
      <point x="1308" y="0" type="line"/>
      <point x="1308" y="34" type="line"/>
      <point x="258" y="34" type="line"/>
      <point x="258" y="0" type="line"/>
    </contour>
    <contour>
      <point x="1273" y="636" type="line"/>
      <point x="1273" y="670" type="line"/>
      <point x="258" y="670" type="line"/>
      <point x="258" y="636" type="line"/>
    </contour>
    <contour>
      <point x="1298" y="1244" type="line"/>
      <point x="1298" y="1278" type="line"/>
      <point x="258" y="1278" type="line"/>
      <point x="258" y="1244" type="line"/>
    </contour>
    <contour>
      <point x="764" y="1452" type="line"/>
      <point x="764" y="1450" type="line"/>
      <point x="812" y="1450" type="line"/>
      <point x="1166" y="1701" type="line"/>
      <point x="1166" y="1704" type="line"/>
      <point x="1109" y="1704" type="line"/>
    </contour>
  </outline>
</glyph>
<glyph name="Edieresis" format="2">
  <advance width="1462"/>
  <unicode hex="00CB"/>
  <anchor x="780" y="0" name="bottom"/>
  <anchor x="1356" y="0" name="ogonek"/>
  <anchor x="780" y="1604" name="top"/>
  <anchor x="20" y="1278" name="topleft"/>
  <outline>
    <contour>
      <point x="275" y="0" type="line"/>
      <point x="275" y="1278" type="line"/>
      <point x="236" y="1278" type="line"/>
      <point x="236" y="0" type="line"/>
    </contour>
    <contour>
      <point x="1308" y="0" type="line"/>
      <point x="1308" y="34" type="line"/>
      <point x="258" y="34" type="line"/>
      <point x="258" y="0" type="line"/>
    </contour>
    <contour>
      <point x="1273" y="636" type="line"/>
      <point x="1273" y="670" type="line"/>
      <point x="258" y="670" type="line"/>
      <point x="258" y="636" type="line"/>
    </contour>
    <contour>
      <point x="1298" y="1244" type="line"/>
      <point x="1298" y="1278" type="line"/>
      <point x="258" y="1278" type="line"/>
      <point x="258" y="1244" type="line"/>
    </contour>
    <contour>
      <point x="606" y="1509" type="curve" smooth="yes"/>
      <point x="641" y="1509"/>
      <point x="663" y="1526"/>
      <point x="663" y="1560" type="curve" smooth="yes"/>
      <point x="663" y="1564" type="line" smooth="yes"/>
      <point x="663" y="1594"/>
      <point x="641" y="1612"/>
      <point x="606" y="1612" type="curve" smooth="yes"/>
      <point x="570" y="1612"/>
      <point x="549" y="1594"/>
      <point x="549" y="1564" type="curve" smooth="yes"/>
      <point x="549" y="1560" type="line" smooth="yes"/>
      <point x="549" y="1526"/>
      <point x="570" y="1509"/>
    </contour>
    <contour>
      <point x="955" y="1509" type="curve" smooth="yes"/>
      <point x="990" y="1509"/>
      <point x="1011" y="1526"/>
      <point x="1011" y="1560" type="curve" smooth="yes"/>
      <point x="1011" y="1564" type="line" smooth="yes"/>
      <point x="1011" y="1594"/>
      <point x="990" y="1612"/>
      <point x="955" y="1612" type="curve" smooth="yes"/>
      <point x="919" y="1612"/>
      <point x="898" y="1594"/>
      <point x="898" y="1564" type="curve" smooth="yes"/>
      <point x="898" y="1560" type="line" smooth="yes"/>
      <point x="898" y="1526"/>
      <point x="919" y="1509"/>
    </contour>
  </outline>
</glyph>
<glyph name="Iacute" format="2">
  <advance width="520"/>
  <unicode hex="00CD"/>
  <anchor x="260" y="0" name="bottom"/>
  <anchor x="328" y="0" name="ogonek"/>
  <anchor x="260" y="1654" name="top"/>
  <anchor x="20" y="1278" name="topleft"/>
  <outline>
    <contour>
      <point x="280" y="1278" type="line"/>
      <point x="240" y="1278" type="line"/>
      <point x="240" y="0" type="line"/>
      <point x="280" y="0" type="line"/>
    </contour>
    <contour>
      <point x="244" y="1452" type="line"/>
      <point x="244" y="1450" type="line"/>
      <point x="292" y="1450" type="line"/>
      <point x="646" y="1701" type="line"/>
      <point x="646" y="1704" type="line"/>
      <point x="589" y="1704" type="line"/>
    </contour>
  </outline>
</glyph>
<glyph name="Ntilde" format="2">
  <advance width="1658"/>
  <unicode hex="00D1"/>
  <anchor x="829" y="0" name="bottom"/>
  <anchor x="829" y="1634" name="top"/>
  <outline>
    <contour>
      <point x="236" y="1278" type="line"/>
      <point x="236" y="0" type="line"/>
      <point x="276" y="0" type="line"/>
      <point x="276" y="609" type="line"/>
      <point x="275" y="1246" type="line"/>
      <point x="293" y="1246" type="line"/>
      <point x="1344" y="0" type="line"/>
      <point x="1422" y="0" type="line"/>
      <point x="1422" y="1278" type="line"/>
      <point x="1382" y="1278" type="line"/>
      <point x="1382" y="586" type="line"/>
      <point x="1383" y="32" type="line"/>
      <point x="1365" y="32" type="line"/>
      <point x="314" y="1278" type="line"/>
    </contour>
    <contour>
      <point x="1014" y="1463" type="curve" smooth="yes"/>
      <point x="1121" y="1463"/>
      <point x="1147" y="1531"/>
      <point x="1147" y="1612" type="curve" smooth="yes"/>
      <point x="1147" y="1652" type="line"/>
      <point x="1115" y="1652" type="line"/>
      <point x="1115" y="1616" type="line" smooth="yes"/>
      <point x="1115" y="1544"/>
      <point x="1088" y="1497"/>
      <point x="1017" y="1497" type="curve" smooth="yes"/>
      <point x="889" y="1497"/>
      <point x="788" y="1642"/>
      <point x="644" y="1642" type="curve" smooth="yes"/>
      <point x="538" y="1642"/>
      <point x="511" y="1572"/>
      <point x="511" y="1491" type="curve" smooth="yes"/>
      <point x="511" y="1453" type="line"/>
      <point x="543" y="1453" type="line"/>
      <point x="543" y="1489" type="line" smooth="yes"/>
      <point x="543" y="1561"/>
      <point x="570" y="1608"/>
      <point x="641" y="1608" type="curve" smooth="yes"/>
      <point x="767" y="1608"/>
      <point x="868" y="1463"/>
    </contour>
  </outline>
</glyph>
<glyph name="Oacute" format="2">
  <advance width="1653"/>
  <unicode hex="00D3"/>
  <anchor x="827" y="0" name="bottom"/>
  <anchor x="827" y="639" name="center"/>
  <anchor x="1062" y="0" name="ogonek"/>
  <anchor x="827" y="1654" name="top"/>
  <anchor x="20" y="1278" name="topleft"/>
  <anchor x="1250" y="1278" name="topright"/>
  <outline>
    <contour>
      <point x="826" y="-21" type="curve" smooth="yes"/>
      <point x="1267" y="-21"/>
      <point x="1511" y="213"/>
      <point x="1511" y="629" type="curve" smooth="yes"/>
      <point x="1511" y="650" type="line"/>
      <point x="1512" y="1066"/>
      <point x="1267" y="1299"/>
      <point x="826" y="1299" type="curve" smooth="yes"/>
      <point x="386" y="1299"/>
      <point x="142" y="1066"/>
      <point x="142" y="650" type="curve" smooth="yes"/>
      <point x="142" y="629" type="line" smooth="yes"/>
      <point x="142" y="213"/>
      <point x="386" y="-21"/>
    </contour>
    <contour>
      <point x="826" y="16" type="curve" smooth="yes"/>
      <point x="409" y="16"/>
      <point x="183" y="236"/>
      <point x="183" y="629" type="curve" smooth="yes"/>
      <point x="183" y="650" type="line" smooth="yes"/>
      <point x="183" y="1044"/>
      <point x="409" y="1262"/>
      <point x="826" y="1262" type="curve" smooth="yes"/>
      <point x="1244" y="1262"/>
      <point x="1470" y="1044"/>
      <point x="1470" y="650" type="curve" smooth="yes"/>
      <point x="1470" y="629" type="line" smooth="yes"/>
      <point x="1470" y="236"/>
      <point x="1244" y="16"/>
    </contour>
    <contour>
      <point x="811" y="1452" type="line"/>
      <point x="811" y="1450" type="line"/>
      <point x="859" y="1450" type="line"/>
      <point x="1213" y="1701" type="line"/>
      <point x="1213" y="1704" type="line"/>
      <point x="1156" y="1704" type="line"/>
    </contour>
  </outline>
</glyph>
<glyph name="Ocircumflex" format="2">
  <advance width="1653"/>
  <unicode hex="00D4"/>
  <anchor x="827" y="0" name="bottom"/>
  <anchor x="827" y="639" name="center"/>
  <anchor x="1062" y="0" name="ogonek"/>
  <anchor x="830" y="1654" name="top"/>
  <anchor x="20" y="1278" name="topleft"/>
  <anchor x="1250" y="1278" name="topright"/>
  <outline>
    <contour>
      <point x="826" y="-21" type="curve" smooth="yes"/>
      <point x="1267" y="-21"/>
      <point x="1511" y="213"/>
      <point x="1511" y="629" type="curve" smooth="yes"/>
      <point x="1511" y="650" type="line"/>
      <point x="1512" y="1066"/>
      <point x="1267" y="1299"/>
      <point x="826" y="1299" type="curve" smooth="yes"/>
      <point x="386" y="1299"/>
      <point x="142" y="1066"/>
      <point x="142" y="650" type="curve" smooth="yes"/>
      <point x="142" y="629" type="line" smooth="yes"/>
      <point x="142" y="213"/>
      <point x="386" y="-21"/>
    </contour>
    <contour>
      <point x="826" y="16" type="curve" smooth="yes"/>
      <point x="409" y="16"/>
      <point x="183" y="236"/>
      <point x="183" y="629" type="curve" smooth="yes"/>
      <point x="183" y="650" type="line" smooth="yes"/>
      <point x="183" y="1044"/>
      <point x="409" y="1262"/>
      <point x="826" y="1262" type="curve" smooth="yes"/>
      <point x="1244" y="1262"/>
      <point x="1470" y="1044"/>
      <point x="1470" y="650" type="curve" smooth="yes"/>
      <point x="1470" y="629" type="line" smooth="yes"/>
      <point x="1470" y="236"/>
      <point x="1244" y="16"/>
    </contour>
    <contour>
      <point x="475" y="1452" type="line"/>
      <point x="475" y="1450" type="line"/>
      <point x="523" y="1450" type="line"/>
      <point x="824" y="1673" type="line"/>
      <point x="830" y="1673" type="line"/>
      <point x="1130" y="1450" type="line"/>
      <point x="1179" y="1450" type="line"/>
      <point x="1179" y="1452" type="line"/>
      <point x="851" y="1704" type="line"/>
      <point x="803" y="1704" type="line"/>
    </contour>
  </outline>
</glyph>
<glyph name="Ugrave" format="2">
  <advance width="1630"/>
  <unicode hex="00D9"/>
  <anchor x="815" y="0" name="bottom"/>
  <anchor x="1055" y="0" name="ogonek"/>
  <anchor x="651" y="1654" name="top"/>
  <anchor x="1580" y="1278" name="topright"/>
  <outline>
    <contour>
      <point x="815" y="-21" type="curve" smooth="yes"/>
      <point x="1215" y="-21"/>
      <point x="1408" y="193"/>
      <point x="1408" y="579" type="curve" smooth="yes"/>
      <point x="1408" y="1278" type="line"/>
      <point x="1368" y="1278" type="line"/>
      <point x="1368" y="581" type="line" smooth="yes"/>
      <point x="1368" y="218"/>
      <point x="1193" y="16"/>
      <point x="815" y="16" type="curve" smooth="yes"/>
      <point x="437" y="16"/>
      <point x="262" y="218"/>
      <point x="262" y="581" type="curve" smooth="yes"/>
      <point x="262" y="1278" type="line"/>
      <point x="222" y="1278" type="line"/>
      <point x="222" y="579" type="line" smooth="yes"/>
      <point x="222" y="193"/>
      <point x="414" y="-21"/>
    </contour>
    <contour>
      <point x="429" y="1704" type="line"/>
      <point x="429" y="1701" type="line"/>
      <point x="783" y="1450" type="line"/>
      <point x="831" y="1450" type="line"/>
      <point x="831" y="1452" type="line"/>
      <point x="486" y="1704" type="line"/>
    </contour>
  </outline>
</glyph>
<glyph name="Uacute" format="2">
  <advance width="1630"/>
  <unicode hex="00DA"/>
  <anchor x="815" y="0" name="bottom"/>
  <anchor x="1055" y="0" name="ogonek"/>
  <anchor x="815" y="1654" name="top"/>
  <anchor x="1580" y="1278" name="topright"/>
  <outline>
    <contour>
      <point x="815" y="-21" type="curve" smooth="yes"/>
      <point x="1215" y="-21"/>
      <point x="1408" y="193"/>
      <point x="1408" y="579" type="curve" smooth="yes"/>
      <point x="1408" y="1278" type="line"/>
      <point x="1368" y="1278" type="line"/>
      <point x="1368" y="581" type="line" smooth="yes"/>
      <point x="1368" y="218"/>
      <point x="1193" y="16"/>
      <point x="815" y="16" type="curve" smooth="yes"/>
      <point x="437" y="16"/>
      <point x="262" y="218"/>
      <point x="262" y="581" type="curve" smooth="yes"/>
      <point x="262" y="1278" type="line"/>
      <point x="222" y="1278" type="line"/>
      <point x="222" y="579" type="line" smooth="yes"/>
      <point x="222" y="193"/>
      <point x="414" y="-21"/>
    </contour>
    <contour>
      <point x="799" y="1452" type="line"/>
      <point x="799" y="1450" type="line"/>
      <point x="847" y="1450" type="line"/>
      <point x="1201" y="1701" type="line"/>
      <point x="1201" y="1704" type="line"/>
      <point x="1144" y="1704" type="line"/>
    </contour>
  </outline>
</glyph>
<glyph name="Ucircumflex" format="2">
  <advance width="1630"/>
  <unicode hex="00DB"/>
  <anchor x="815" y="0" name="bottom"/>
  <anchor x="1055" y="0" name="ogonek"/>
  <anchor x="818" y="1654" name="top"/>
  <anchor x="1580" y="1278" name="topright"/>
  <outline>
    <contour>
      <point x="815" y="-21" type="curve" smooth="yes"/>
      <point x="1215" y="-21"/>
      <point x="1408" y="193"/>
      <point x="1408" y="579" type="curve" smooth="yes"/>
      <point x="1408" y="1278" type="line"/>
      <point x="1368" y="1278" type="line"/>
      <point x="1368" y="581" type="line" smooth="yes"/>
      <point x="1368" y="218"/>
      <point x="1193" y="16"/>
      <point x="815" y="16" type="curve" smooth="yes"/>
      <point x="437" y="16"/>
      <point x="262" y="218"/>
      <point x="262" y="581" type="curve" smooth="yes"/>
      <point x="262" y="1278" type="line"/>
      <point x="222" y="1278" type="line"/>
      <point x="222" y="579" type="line" smooth="yes"/>
      <point x="222" y="193"/>
      <point x="414" y="-21"/>
    </contour>
    <contour>
      <point x="463" y="1452" type="line"/>
      <point x="463" y="1450" type="line"/>
      <point x="511" y="1450" type="line"/>
      <point x="812" y="1673" type="line"/>
      <point x="818" y="1673" type="line"/>
      <point x="1118" y="1450" type="line"/>
      <point x="1167" y="1450" type="line"/>
      <point x="1167" y="1452" type="line"/>
      <point x="839" y="1704" type="line"/>
      <point x="791" y="1704" type="line"/>
    </contour>
  </outline>
</glyph>
<glyph name="Udieresis" format="2">
  <advance width="1630"/>
  <unicode hex="00DC"/>
  <anchor x="815" y="0" name="bottom"/>
  <anchor x="1055" y="0" name="ogonek"/>
  <anchor x="815" y="1604" name="top"/>
  <anchor x="1580" y="1278" name="topright"/>
  <outline>
    <contour>
      <point x="815" y="-21" type="curve" smooth="yes"/>
      <point x="1215" y="-21"/>
      <point x="1408" y="193"/>
      <point x="1408" y="579" type="curve" smooth="yes"/>
      <point x="1408" y="1278" type="line"/>
      <point x="1368" y="1278" type="line"/>
      <point x="1368" y="581" type="line" smooth="yes"/>
      <point x="1368" y="218"/>
      <point x="1193" y="16"/>
      <point x="815" y="16" type="curve" smooth="yes"/>
      <point x="437" y="16"/>
      <point x="262" y="218"/>
      <point x="262" y="581" type="curve" smooth="yes"/>
      <point x="262" y="1278" type="line"/>
      <point x="222" y="1278" type="line"/>
      <point x="222" y="579" type="line" smooth="yes"/>
      <point x="222" y="193"/>
      <point x="414" y="-21"/>
    </contour>
    <contour>
      <point x="641" y="1509" type="curve" smooth="yes"/>
      <point x="676" y="1509"/>
      <point x="698" y="1526"/>
      <point x="698" y="1560" type="curve" smooth="yes"/>
      <point x="698" y="1564" type="line" smooth="yes"/>
      <point x="698" y="1594"/>
      <point x="676" y="1612"/>
      <point x="641" y="1612" type="curve" smooth="yes"/>
      <point x="605" y="1612"/>
      <point x="584" y="1594"/>
      <point x="584" y="1564" type="curve" smooth="yes"/>
      <point x="584" y="1560" type="line" smooth="yes"/>
      <point x="584" y="1526"/>
      <point x="605" y="1509"/>
    </contour>
    <contour>
      <point x="990" y="1509" type="curve" smooth="yes"/>
      <point x="1025" y="1509"/>
      <point x="1046" y="1526"/>
      <point x="1046" y="1560" type="curve" smooth="yes"/>
      <point x="1046" y="1564" type="line" smooth="yes"/>
      <point x="1046" y="1594"/>
      <point x="1025" y="1612"/>
      <point x="990" y="1612" type="curve" smooth="yes"/>
      <point x="954" y="1612"/>
      <point x="933" y="1594"/>
      <point x="933" y="1564" type="curve" smooth="yes"/>
      <point x="933" y="1560" type="line" smooth="yes"/>
      <point x="933" y="1526"/>
      <point x="954" y="1509"/>
    </contour>
  </outline>
</glyph>
<glyph name="igrave" format="2">
  <advance width="450"/>
  <unicode hex="00EC"/>
  <anchor x="225" y="0" name="bottom"/>
  <anchor x="292" y="0" name="ogonek"/>
  <anchor x="61" y="1321" name="top"/>
  <outline>
    <contour>
      <point x="244" y="0" type="line"/>
      <point x="244" y="952" type="line"/>
      <point x="206" y="952" type="line"/>
      <point x="206" y="0" type="line"/>
    </contour>
    <contour>
      <point x="16" y="1388" type="line"/>
      <point x="16" y="1388" type="line"/>
      <point x="199" y="1114" type="line"/>
      <point x="236" y="1114" type="line"/>
      <point x="236" y="1114" type="line"/>
      <point x="61" y="1388" type="line"/>
    </contour>
  </outline>
</glyph>
<glyph name="ntilde" format="2">
  <advance width="1385"/>
  <unicode hex="00F1"/>
  <anchor x="693" y="0" name="bottom"/>
  <anchor x="693" y="1311" name="top"/>
  <outline>
    <contour>
      <point x="1205" y="0" type="line"/>
      <point x="1205" y="532" type="line" smooth="yes"/>
      <point x="1205" y="799"/>
      <point x="1092" y="977"/>
      <point x="740" y="977" type="curve" smooth="yes"/>
      <point x="425" y="977"/>
      <point x="240" y="787"/>
      <point x="222" y="586" type="curve"/>
      <point x="213" y="586" type="line"/>
      <point x="229" y="557" type="line"/>
      <point x="261" y="774"/>
      <point x="453" y="943"/>
      <point x="735" y="943" type="curve" smooth="yes"/>
      <point x="1055" y="943"/>
      <point x="1167" y="781"/>
      <point x="1167" y="523" type="curve" smooth="yes"/>
      <point x="1167" y="0" type="line"/>
    </contour>
    <contour>
      <point x="240" y="0" type="line"/>
      <point x="240" y="632" type="line"/>
      <point x="236" y="632" type="line"/>
      <point x="240" y="952" type="line"/>
      <point x="202" y="952" type="line"/>
      <point x="202" y="0" type="line"/>
    </contour>
    <contour>
      <point x="860" y="1147" type="curve" smooth="yes"/>
      <point x="947" y="1147"/>
      <point x="988" y="1196"/>
      <point x="988" y="1302" type="curve" smooth="yes"/>
      <point x="988" y="1336" type="line"/>
      <point x="956" y="1336" type="line"/>
      <point x="956" y="1306" type="line" smooth="yes"/>
      <point x="956" y="1221"/>
      <point x="926" y="1181"/>
      <point x="860" y="1181" type="curve" smooth="yes"/>
      <point x="751" y="1181"/>
      <point x="651" y="1326"/>
      <point x="526" y="1326" type="curve" smooth="yes"/>
      <point x="439" y="1326"/>
      <point x="398" y="1276"/>
      <point x="398" y="1169" type="curve" smooth="yes"/>
      <point x="398" y="1137" type="line"/>
      <point x="430" y="1137" type="line"/>
      <point x="430" y="1167" type="line" smooth="yes"/>
      <point x="430" y="1252"/>
      <point x="460" y="1292"/>
      <point x="526" y="1292" type="curve" smooth="yes"/>
      <point x="633" y="1292"/>
      <point x="733" y="1147"/>
    </contour>
  </outline>
</glyph>
<glyph name="ograve" format="2">
  <advance width="1392"/>
  <unicode hex="00F2"/>
  <anchor x="696" y="0" name="bottom"/>
  <anchor x="696" y="476" name="center"/>
  <anchor x="953" y="0" name="ogonek"/>
  <anchor x="532" y="1321" name="top"/>
  <anchor x="1129" y="952" name="topright"/>
  <outline>
    <contour>
      <point x="697" y="-25" type="curve" smooth="yes"/>
      <point x="1063" y="-25"/>
      <point x="1258" y="142"/>
      <point x="1258" y="463" type="curve" smooth="yes"/>
      <point x="1258" y="491" type="line" smooth="yes"/>
      <point x="1258" y="810"/>
      <point x="1063" y="977"/>
      <point x="697" y="977" type="curve" smooth="yes"/>
      <point x="330" y="977"/>
      <point x="134" y="810"/>
      <point x="134" y="491" type="curve" smooth="yes"/>
      <point x="134" y="463" type="line" smooth="yes"/>
      <point x="134" y="144"/>
      <point x="328" y="-25"/>
    </contour>
    <contour>
      <point x="697" y="9" type="curve" smooth="yes"/>
      <point x="357" y="9"/>
      <point x="172" y="167"/>
      <point x="172" y="463" type="curve" smooth="yes"/>
      <point x="172" y="491" type="line" smooth="yes"/>
      <point x="172" y="787"/>
      <point x="357" y="943"/>
      <point x="697" y="943" type="curve" smooth="yes"/>
      <point x="1037" y="943"/>
      <point x="1220" y="787"/>
      <point x="1220" y="491" type="curve" smooth="yes"/>
      <point x="1220" y="463" type="line" smooth="yes"/>
      <point x="1220" y="167"/>
      <point x="1035" y="9"/>
    </contour>
    <contour>
      <point x="354" y="1388" type="line"/>
      <point x="354" y="1385" type="line"/>
      <point x="666" y="1114" type="line"/>
      <point x="710" y="1114" type="line"/>
      <point x="710" y="1116" type="line"/>
      <point x="408" y="1388" type="line"/>
    </contour>
  </outline>
</glyph>
<glyph name="otilde" format="2">
  <advance width="1392"/>
  <unicode hex="00F5"/>
  <anchor x="696" y="0" name="bottom"/>
  <anchor x="696" y="476" name="center"/>
  <anchor x="953" y="0" name="ogonek"/>
  <anchor x="696" y="1311" name="top"/>
  <anchor x="1129" y="952" name="topright"/>
  <outline>
    <contour>
      <point x="697" y="-25" type="curve" smooth="yes"/>
      <point x="1063" y="-25"/>
      <point x="1258" y="142"/>
      <point x="1258" y="463" type="curve" smooth="yes"/>
      <point x="1258" y="491" type="line" smooth="yes"/>
      <point x="1258" y="810"/>
      <point x="1063" y="977"/>
      <point x="697" y="977" type="curve" smooth="yes"/>
      <point x="330" y="977"/>
      <point x="134" y="810"/>
      <point x="134" y="491" type="curve" smooth="yes"/>
      <point x="134" y="463" type="line" smooth="yes"/>
      <point x="134" y="144"/>
      <point x="328" y="-25"/>
    </contour>
    <contour>
      <point x="697" y="9" type="curve" smooth="yes"/>
      <point x="357" y="9"/>
      <point x="172" y="167"/>
      <point x="172" y="463" type="curve" smooth="yes"/>
      <point x="172" y="491" type="line" smooth="yes"/>
      <point x="172" y="787"/>
      <point x="357" y="943"/>
      <point x="697" y="943" type="curve" smooth="yes"/>
      <point x="1037" y="943"/>
      <point x="1220" y="787"/>
      <point x="1220" y="491" type="curve" smooth="yes"/>
      <point x="1220" y="463" type="line" smooth="yes"/>
      <point x="1220" y="167"/>
      <point x="1035" y="9"/>
    </contour>
    <contour>
      <point x="863" y="1147" type="curve" smooth="yes"/>
      <point x="950" y="1147"/>
      <point x="991" y="1196"/>
      <point x="991" y="1302" type="curve" smooth="yes"/>
      <point x="991" y="1336" type="line"/>
      <point x="959" y="1336" type="line"/>
      <point x="959" y="1306" type="line" smooth="yes"/>
      <point x="959" y="1221"/>
      <point x="929" y="1181"/>
      <point x="863" y="1181" type="curve" smooth="yes"/>
      <point x="754" y="1181"/>
      <point x="654" y="1326"/>
      <point x="529" y="1326" type="curve" smooth="yes"/>
      <point x="442" y="1326"/>
      <point x="401" y="1276"/>
      <point x="401" y="1169" type="curve" smooth="yes"/>
      <point x="401" y="1137" type="line"/>
      <point x="433" y="1137" type="line"/>
      <point x="433" y="1167" type="line" smooth="yes"/>
      <point x="433" y="1252"/>
      <point x="463" y="1292"/>
      <point x="529" y="1292" type="curve" smooth="yes"/>
      <point x="636" y="1292"/>
      <point x="736" y="1147"/>
    </contour>
  </outline>
</glyph>
<glyph name="odieresis" format="2">
  <advance width="1392"/>
  <unicode hex="00F6"/>
  <anchor x="696" y="0" name="bottom"/>
  <anchor x="696" y="476" name="center"/>
  <anchor x="953" y="0" name="ogonek"/>
  <anchor x="696" y="1321" name="top"/>
  <anchor x="1129" y="952" name="topright"/>
  <outline>
    <contour>
      <point x="697" y="-25" type="curve" smooth="yes"/>
      <point x="1063" y="-25"/>
      <point x="1258" y="142"/>
      <point x="1258" y="463" type="curve" smooth="yes"/>
      <point x="1258" y="491" type="line" smooth="yes"/>
      <point x="1258" y="810"/>
      <point x="1063" y="977"/>
      <point x="697" y="977" type="curve" smooth="yes"/>
      <point x="330" y="977"/>
      <point x="134" y="810"/>
      <point x="134" y="491" type="curve" smooth="yes"/>
      <point x="134" y="463" type="line" smooth="yes"/>
      <point x="134" y="144"/>
      <point x="328" y="-25"/>
    </contour>
    <contour>
      <point x="697" y="9" type="curve" smooth="yes"/>
      <point x="357" y="9"/>
      <point x="172" y="167"/>
      <point x="172" y="463" type="curve" smooth="yes"/>
      <point x="172" y="491" type="line" smooth="yes"/>
      <point x="172" y="787"/>
      <point x="357" y="943"/>
      <point x="697" y="943" type="curve" smooth="yes"/>
      <point x="1037" y="943"/>
      <point x="1220" y="787"/>
      <point x="1220" y="491" type="curve" smooth="yes"/>
      <point x="1220" y="463" type="line" smooth="yes"/>
      <point x="1220" y="167"/>
      <point x="1035" y="9"/>
    </contour>
    <contour>
      <point x="522" y="1193" type="curve" smooth="yes"/>
      <point x="557" y="1193"/>
      <point x="579" y="1210"/>
      <point x="579" y="1244" type="curve" smooth="yes"/>
      <point x="579" y="1248" type="line" smooth="yes"/>
      <point x="579" y="1278"/>
      <point x="557" y="1296"/>
      <point x="522" y="1296" type="curve" smooth="yes"/>
      <point x="486" y="1296"/>
      <point x="465" y="1278"/>
      <point x="465" y="1248" type="curve" smooth="yes"/>
      <point x="465" y="1244" type="line" smooth="yes"/>
      <point x="465" y="1210"/>
      <point x="486" y="1193"/>
    </contour>
    <contour>
      <point x="871" y="1193" type="curve" smooth="yes"/>
      <point x="906" y="1193"/>
      <point x="927" y="1210"/>
      <point x="927" y="1244" type="curve" smooth="yes"/>
      <point x="927" y="1248" type="line" smooth="yes"/>
      <point x="927" y="1278"/>
      <point x="906" y="1296"/>
      <point x="871" y="1296" type="curve" smooth="yes"/>
      <point x="835" y="1296"/>
      <point x="814" y="1278"/>
      <point x="814" y="1248" type="curve" smooth="yes"/>
      <point x="814" y="1244" type="line" smooth="yes"/>
      <point x="814" y="1210"/>
      <point x="835" y="1193"/>
    </contour>
  </outline>
</glyph>
<glyph name="ydieresis" format="2">
  <advance width="1291"/>
  <unicode hex="00FF"/>
  <anchor x="877" y="0" name="bottom"/>
  <anchor x="646" y="1321" name="top"/>
  <outline>
    <contour>
      <point x="630" y="59" type="line"/>
      <point x="115" y="952" type="line"/>
      <point x="72" y="952" type="line"/>
      <point x="607" y="27" type="line"/>
      <point x="658" y="27" type="line"/>
      <point x="651" y="37" type="line"/>
      <point x="434" y="-338" type="line"/>
      <point x="477" y="-338" type="line"/>
      <point x="1219" y="952" type="line"/>
      <point x="1176" y="952" type="line"/>
      <point x="656" y="50" type="line"/>
      <point x="674" y="59" type="line"/>
    </contour>
    <contour>
      <point x="472" y="1193" type="curve" smooth="yes"/>
      <point x="507" y="1193"/>
      <point x="529" y="1210"/>
      <point x="529" y="1244" type="curve" smooth="yes"/>
      <point x="529" y="1248" type="line" smooth="yes"/>
      <point x="529" y="1278"/>
      <point x="507" y="1296"/>
      <point x="472" y="1296" type="curve" smooth="yes"/>
      <point x="436" y="1296"/>
      <point x="415" y="1278"/>
      <point x="415" y="1248" type="curve" smooth="yes"/>
      <point x="415" y="1244" type="line" smooth="yes"/>
      <point x="415" y="1210"/>
      <point x="436" y="1193"/>
    </contour>
    <contour>
      <point x="821" y="1193" type="curve" smooth="yes"/>
      <point x="856" y="1193"/>
      <point x="877" y="1210"/>
      <point x="877" y="1244" type="curve" smooth="yes"/>
      <point x="877" y="1248" type="line" smooth="yes"/>
      <point x="877" y="1278"/>
      <point x="856" y="1296"/>
      <point x="821" y="1296" type="curve" smooth="yes"/>
      <point x="785" y="1296"/>
      <point x="764" y="1278"/>
      <point x="764" y="1248" type="curve" smooth="yes"/>
      <point x="764" y="1244" type="line" smooth="yes"/>
      <point x="764" y="1210"/>
      <point x="785" y="1193"/>
    </contour>
  </outline>
</glyph>
<glyph name="uni0900" format="2">
  <unicode hex="0900"/>
  <anchor x="-317" y="1221" name="_top"/>
  <outline>
    <contour>
      <point x="-321" y="1554" type="curve" smooth="yes"/>
      <point x="-279" y="1554"/>
      <point x="-258" y="1530"/>
      <point x="-258" y="1498" type="curve" smooth="yes"/>
      <point x="-258" y="1495" type="line" smooth="yes"/>
      <point x="-258" y="1465"/>
      <point x="-279" y="1441"/>
      <point x="-321" y="1441" type="curve" smooth="yes"/>
      <point x="-363" y="1441"/>
      <point x="-384" y="1465"/>
      <point x="-384" y="1495" type="curve" smooth="yes"/>
      <point x="-384" y="1498" type="line" smooth="yes"/>
      <point x="-384" y="1530"/>
      <point x="-363" y="1554"/>
    </contour>
    <contour>
      <point x="-695" y="1506" type="line"/>
      <point x="-695" y="1516"/>
      <point x="-695" y="1520"/>
      <point x="-695" y="1527" type="curve" smooth="yes"/>
      <point x="-695" y="1719"/>
      <point x="-564" y="1822"/>
      <point x="-320" y="1822" type="curve" smooth="yes"/>
      <point x="-83" y="1822"/>
      <point x="49" y="1719"/>
      <point x="49" y="1527" type="curve" smooth="yes"/>
      <point x="49" y="1520"/>
      <point x="49" y="1516"/>
      <point x="49" y="1506" type="curve"/>
      <point x="15" y="1506" type="line"/>
      <point x="15" y="1527" type="line" smooth="yes"/>
      <point x="15" y="1701"/>
      <point x="-105" y="1789"/>
      <point x="-320" y="1789" type="curve" smooth="yes"/>
      <point x="-541" y="1789"/>
      <point x="-661" y="1701"/>
      <point x="-661" y="1527" type="curve" smooth="yes"/>
      <point x="-661" y="1506" type="line"/>
    </contour>
  </outline>
</glyph>
<glyph name="Chandrabindu.dv" format="2">
  <unicode hex="0901"/>
  <anchor x="-317" y="1221" name="_top"/>
  <outline>
    <contour>
      <point x="-316" y="1728" type="curve" smooth="yes"/>
      <point x="-358" y="1728"/>
      <point x="-379" y="1752"/>
      <point x="-379" y="1784" type="curve" smooth="yes"/>
      <point x="-379" y="1787" type="line" smooth="yes"/>
      <point x="-379" y="1817"/>
      <point x="-358" y="1841"/>
      <point x="-316" y="1841" type="curve" smooth="yes"/>
      <point x="-274" y="1841"/>
      <point x="-253" y="1817"/>
      <point x="-253" y="1787" type="curve" smooth="yes"/>
      <point x="-253" y="1784" type="line" smooth="yes"/>
      <point x="-253" y="1752"/>
      <point x="-274" y="1728"/>
    </contour>
    <contour>
      <point x="58" y="1776" type="line"/>
      <point x="58" y="1766"/>
      <point x="58" y="1762"/>
      <point x="58" y="1755" type="curve" smooth="yes"/>
      <point x="58" y="1563"/>
      <point x="-73" y="1460"/>
      <point x="-317" y="1460" type="curve" smooth="yes"/>
      <point x="-554" y="1460"/>
      <point x="-686" y="1563"/>
      <point x="-686" y="1755" type="curve" smooth="yes"/>
      <point x="-686" y="1762"/>
      <point x="-686" y="1766"/>
      <point x="-686" y="1776" type="curve"/>
      <point x="-652" y="1776" type="line"/>
      <point x="-652" y="1755" type="line" smooth="yes"/>
      <point x="-652" y="1581"/>
      <point x="-532" y="1493"/>
      <point x="-317" y="1493" type="curve" smooth="yes"/>
      <point x="-96" y="1493"/>
      <point x="24" y="1581"/>
      <point x="24" y="1755" type="curve" smooth="yes"/>
      <point x="24" y="1776" type="line"/>
    </contour>
  </outline>
</glyph>
<glyph name="Visarga.dv" format="2">
  <advance width="477"/>
  <unicode hex="0903"/>
  <outline>
    <contour>
      <point x="-36" y="1200" type="line"/>
      <point x="-43" y="1230" type="line"/>
      <point x="513" y="1230" type="line"/>
      <point x="520" y="1200" type="line"/>
    </contour>
    <contour>
      <point x="231" y="758" type="curve" smooth="yes"/>
      <point x="277" y="758"/>
      <point x="299" y="783"/>
      <point x="299" y="817" type="curve" smooth="yes"/>
      <point x="299" y="821" type="line" smooth="yes"/>
      <point x="299" y="851"/>
      <point x="278" y="878"/>
      <point x="233" y="878" type="curve" smooth="yes"/>
      <point x="187" y="878"/>
      <point x="166" y="853"/>
      <point x="166" y="821" type="curve" smooth="yes"/>
      <point x="166" y="817" type="line" smooth="yes"/>
      <point x="166" y="783"/>
      <point x="187" y="758"/>
    </contour>
    <contour>
      <point x="231" y="244" type="curve" smooth="yes"/>
      <point x="277" y="244"/>
      <point x="299" y="269"/>
      <point x="299" y="303" type="curve" smooth="yes"/>
      <point x="299" y="306" type="line" smooth="yes"/>
      <point x="299" y="336"/>
      <point x="278" y="363"/>
      <point x="233" y="363" type="curve" smooth="yes"/>
      <point x="187" y="363"/>
      <point x="166" y="338"/>
      <point x="166" y="306" type="curve" smooth="yes"/>
      <point x="166" y="303" type="line" smooth="yes"/>
      <point x="166" y="269"/>
      <point x="187" y="244"/>
    </contour>
  </outline>
</glyph>
<glyph name="vowelI.dv" format="2">
  <advance width="1460"/>
  <unicode hex="0907"/>
  <anchor x="1264" y="-270" name="bottom3"/>
  <anchor x="1169" y="1221" name="top"/>
  <outline>
    <contour>
      <point x="988" y="1200" type="line"/>
      <point x="981" y="1230" type="line"/>
      <point x="1472" y="1230" type="line"/>
      <point x="1479" y="1200" type="line"/>
    </contour>
    <contour>
      <point x="1187" y="1209" type="line"/>
      <point x="1187" y="931" type="line"/>
      <point x="1152" y="931" type="line"/>
      <point x="1152" y="1209" type="line"/>
    </contour>
    <contour>
      <point x="1481" y="1200" type="line"/>
      <point x="-20" y="1200" type="line"/>
      <point x="-27" y="1230" type="line"/>
      <point x="1474" y="1230" type="line"/>
    </contour>
    <contour>
      <point x="1152" y="1210" type="line"/>
      <point x="1187" y="1210" type="line"/>
      <point x="1187" y="854" type="line"/>
      <point x="1152" y="878" type="line"/>
    </contour>
    <contour>
      <point x="944" y="-388" type="line"/>
      <point x="895" y="-388" type="line"/>
      <point x="383" y="39" type="line"/>
      <point x="157" y="157" type="line"/>
      <point x="431" y="47" type="line"/>
      <point x="431" y="37" type="line"/>
      <point x="515" y="-27"/>
      <point x="558" y="-63"/>
      <point x="649" y="-139" type="curve" smooth="yes"/>
      <point x="944" y="-383" type="line"/>
    </contour>
    <contour>
      <point x="151" y="205" type="line"/>
      <point x="336" y="92"/>
      <point x="479" y="16"/>
      <point x="756" y="16" type="curve" smooth="yes"/>
      <point x="1096" y="16"/>
      <point x="1240" y="117"/>
      <point x="1240" y="262" type="curve" smooth="yes"/>
      <point x="1240" y="267" type="line" smooth="yes"/>
      <point x="1240" y="401"/>
      <point x="1136" y="500"/>
      <point x="842" y="500" type="curve" smooth="yes"/>
      <point x="641" y="500"/>
      <point x="511" y="468"/>
      <point x="377" y="422" type="curve"/>
      <point x="263" y="468"/>
      <point x="194" y="541"/>
      <point x="194" y="649" type="curve" smooth="yes"/>
      <point x="194" y="656" type="line" smooth="yes"/>
      <point x="194" y="814"/>
      <point x="332" y="926"/>
      <point x="730" y="926" type="curve" smooth="yes"/>
      <point x="900" y="926"/>
      <point x="1032" y="915"/>
      <point x="1187" y="888" type="curve"/>
      <point x="1187" y="854" type="line"/>
      <point x="1038" y="881"/>
      <point x="908" y="892"/>
      <point x="735" y="892" type="curve" smooth="yes"/>
      <point x="360" y="892"/>
      <point x="231" y="794"/>
      <point x="231" y="653" type="curve" smooth="yes"/>
      <point x="231" y="648" type="line" smooth="yes"/>
      <point x="231" y="552"/>
      <point x="293" y="495"/>
      <point x="379" y="459" type="curve"/>
      <point x="501" y="501"/>
      <point x="642" y="534"/>
      <point x="837" y="534" type="curve" smooth="yes"/>
      <point x="1161" y="534"/>
      <point x="1278" y="421"/>
      <point x="1278" y="267" type="curve" smooth="yes"/>
      <point x="1278" y="262" type="line" smooth="yes"/>
      <point x="1278" y="91"/>
      <point x="1121" y="-18"/>
      <point x="756" y="-18" type="curve" smooth="yes"/>
      <point x="600" y="-18"/>
      <point x="465" y="8"/>
      <point x="368" y="55" type="curve" smooth="yes"/>
      <point x="157" y="157" type="line"/>
    </contour>
  </outline>
  <guideline angle="0" x="0" y="-92"/>
  <guideline angle="90" x="1169" y="0"/>
</glyph>
<glyph name="vowelIi.dv" format="2">
  <advance width="1460"/>
  <unicode hex="0908"/>
  <anchor x="1264" y="-270" name="bottom3"/>
  <anchor x="1169" y="1221" name="top"/>
  <outline>
    <contour>
      <point x="988" y="1200" type="line"/>
      <point x="981" y="1230" type="line"/>
      <point x="1472" y="1230" type="line"/>
      <point x="1479" y="1200" type="line"/>
    </contour>
    <contour>
      <point x="1187" y="1209" type="line"/>
      <point x="1187" y="931" type="line"/>
      <point x="1152" y="931" type="line"/>
      <point x="1152" y="1209" type="line"/>
    </contour>
    <contour>
      <point x="1481" y="1200" type="line"/>
      <point x="-20" y="1200" type="line"/>
      <point x="-27" y="1230" type="line"/>
      <point x="1474" y="1230" type="line"/>
    </contour>
    <contour>
      <point x="1152" y="1210" type="line"/>
      <point x="1187" y="1210" type="line"/>
      <point x="1187" y="854" type="line"/>
      <point x="1152" y="878" type="line"/>
    </contour>
    <contour>
      <point x="944" y="-388" type="line"/>
      <point x="895" y="-388" type="line"/>
      <point x="383" y="39" type="line"/>
      <point x="157" y="157" type="line"/>
      <point x="431" y="47" type="line"/>
      <point x="431" y="37" type="line"/>
      <point x="515" y="-27"/>
      <point x="558" y="-63"/>
      <point x="649" y="-139" type="curve" smooth="yes"/>
      <point x="944" y="-383" type="line"/>
    </contour>
    <contour>
      <point x="151" y="205" type="line"/>
      <point x="336" y="92"/>
      <point x="479" y="16"/>
      <point x="756" y="16" type="curve" smooth="yes"/>
      <point x="1096" y="16"/>
      <point x="1240" y="117"/>
      <point x="1240" y="262" type="curve" smooth="yes"/>
      <point x="1240" y="267" type="line" smooth="yes"/>
      <point x="1240" y="401"/>
      <point x="1136" y="500"/>
      <point x="842" y="500" type="curve" smooth="yes"/>
      <point x="641" y="500"/>
      <point x="511" y="468"/>
      <point x="377" y="422" type="curve"/>
      <point x="263" y="468"/>
      <point x="194" y="541"/>
      <point x="194" y="649" type="curve" smooth="yes"/>
      <point x="194" y="656" type="line" smooth="yes"/>
      <point x="194" y="814"/>
      <point x="332" y="926"/>
      <point x="730" y="926" type="curve" smooth="yes"/>
      <point x="900" y="926"/>
      <point x="1032" y="915"/>
      <point x="1187" y="888" type="curve"/>
      <point x="1187" y="854" type="line"/>
      <point x="1038" y="881"/>
      <point x="908" y="892"/>
      <point x="735" y="892" type="curve" smooth="yes"/>
      <point x="360" y="892"/>
      <point x="231" y="794"/>
      <point x="231" y="653" type="curve" smooth="yes"/>
      <point x="231" y="648" type="line" smooth="yes"/>
      <point x="231" y="552"/>
      <point x="293" y="495"/>
      <point x="379" y="459" type="curve"/>
      <point x="501" y="501"/>
      <point x="642" y="534"/>
      <point x="837" y="534" type="curve" smooth="yes"/>
      <point x="1161" y="534"/>
      <point x="1278" y="421"/>
      <point x="1278" y="267" type="curve" smooth="yes"/>
      <point x="1278" y="262" type="line" smooth="yes"/>
      <point x="1278" y="91"/>
      <point x="1121" y="-18"/>
      <point x="756" y="-18" type="curve" smooth="yes"/>
      <point x="600" y="-18"/>
      <point x="465" y="8"/>
      <point x="368" y="55" type="curve" smooth="yes"/>
      <point x="157" y="157" type="line"/>
    </contour>
    <contour>
      <point x="1175" y="1218" type="line"/>
      <point x="1132" y="1218" type="line"/>
      <point x="1132" y="1225" type="line"/>
      <point x="953" y="1298"/>
      <point x="843" y="1404"/>
      <point x="843" y="1546" type="curve" smooth="yes"/>
      <point x="843" y="1554" type="line" smooth="yes"/>
      <point x="843" y="1704"/>
      <point x="957" y="1803"/>
      <point x="1148" y="1803" type="curve" smooth="yes"/>
      <point x="1219" y="1803"/>
      <point x="1277" y="1794"/>
      <point x="1338" y="1773" type="curve"/>
      <point x="1345" y="1735" type="line"/>
      <point x="1271" y="1762"/>
      <point x="1217" y="1769"/>
      <point x="1149" y="1769" type="curve" smooth="yes"/>
      <point x="978" y="1769"/>
      <point x="880" y="1681"/>
      <point x="880" y="1553" type="curve" smooth="yes"/>
      <point x="880" y="1546" type="line" smooth="yes"/>
      <point x="880" y="1411"/>
      <point x="971" y="1328"/>
      <point x="1175" y="1228" type="curve"/>
    </contour>
  </outline>
</glyph>
<glyph name="vowelU.dv" format="2">
  <advance width="1374"/>
  <unicode hex="0909"/>
  <anchor x="1145" y="9" name="bottom3"/>
  <anchor x="665" y="30" name="bottom5"/>
  <anchor x="717" y="1221" name="top"/>
  <outline>
    <contour>
      <point x="-43" y="1200" type="line"/>
      <point x="-50" y="1230" type="line"/>
      <point x="1409" y="1230" type="line"/>
      <point x="1416" y="1200" type="line"/>
    </contour>
    <contour>
      <point x="993" y="1210" type="line"/>
      <point x="1077" y="1159"/>
      <point x="1132" y="1077"/>
      <point x="1132" y="970" type="curve" smooth="yes"/>
      <point x="1132" y="963" type="line" smooth="yes"/>
      <point x="1132" y="809"/>
      <point x="1017" y="683"/>
      <point x="719" y="664" type="curve"/>
      <point x="719" y="660" type="line"/>
      <point x="1021" y="647"/>
      <point x="1180" y="532"/>
      <point x="1180" y="333" type="curve" smooth="yes"/>
      <point x="1180" y="328" type="line" smooth="yes"/>
      <point x="1180" y="125"/>
      <point x="996" y="-2"/>
      <point x="663" y="-2" type="curve" smooth="yes"/>
      <point x="415" y="-2"/>
      <point x="244" y="52"/>
      <point x="110" y="131" type="curve"/>
      <point x="105" y="174" type="line"/>
      <point x="255" y="84"/>
      <point x="427" y="32"/>
      <point x="662" y="32" type="curve" smooth="yes"/>
      <point x="962" y="32"/>
      <point x="1142" y="146"/>
      <point x="1142" y="329" type="curve" smooth="yes"/>
      <point x="1142" y="333" type="line" smooth="yes"/>
      <point x="1142" y="522"/>
      <point x="1001" y="640"/>
      <point x="538" y="644" type="curve" smooth="yes"/>
      <point x="322" y="646" type="line"/>
      <point x="322" y="678" type="line"/>
      <point x="539" y="680" type="line" smooth="yes"/>
      <point x="996" y="684"/>
      <point x="1094" y="822"/>
      <point x="1094" y="963" type="curve" smooth="yes"/>
      <point x="1094" y="970" type="line" smooth="yes"/>
      <point x="1094" y="1063"/>
      <point x="1052" y="1148"/>
      <point x="938" y="1210" type="curve"/>
    </contour>
  </outline>
</glyph>
<glyph name="vowelUu.dv" format="2">
  <advance width="2081"/>
  <unicode hex="090A"/>
  <anchor x="1145" y="9" name="bottom3"/>
  <anchor x="665" y="30" name="bottom5"/>
  <anchor x="879" y="1221" name="top"/>
  <outline>
    <contour>
      <point x="1260" y="1200" type="line"/>
      <point x="1253" y="1230" type="line"/>
      <point x="2116" y="1230" type="line"/>
      <point x="2124" y="1200" type="line"/>
    </contour>
    <contour>
      <point x="1692" y="5" type="line"/>
      <point x="1830" y="112"/>
      <point x="1886" y="220"/>
      <point x="1886" y="363" type="curve" smooth="yes"/>
      <point x="1886" y="368" type="line" smooth="yes"/>
      <point x="1886" y="547"/>
      <point x="1759" y="682"/>
      <point x="1549" y="682" type="curve" smooth="yes"/>
      <point x="1344" y="682"/>
      <point x="1210" y="571"/>
      <point x="1164" y="395" type="curve"/>
      <point x="1150" y="452" type="line"/>
      <point x="1193" y="591"/>
      <point x="1321" y="716"/>
      <point x="1547" y="716" type="curve" smooth="yes"/>
      <point x="1786" y="716"/>
      <point x="1924" y="562"/>
      <point x="1924" y="368" type="curve" smooth="yes"/>
      <point x="1924" y="363" type="line" smooth="yes"/>
      <point x="1924" y="215"/>
      <point x="1866" y="102"/>
      <point x="1744" y="5" type="curve"/>
    </contour>
    <contour>
      <point x="-43" y="1200" type="line"/>
      <point x="-50" y="1230" type="line"/>
      <point x="1409" y="1230" type="line"/>
      <point x="1416" y="1200" type="line"/>
    </contour>
    <contour>
      <point x="993" y="1210" type="line"/>
      <point x="1077" y="1159"/>
      <point x="1132" y="1077"/>
      <point x="1132" y="970" type="curve" smooth="yes"/>
      <point x="1132" y="963" type="line" smooth="yes"/>
      <point x="1132" y="809"/>
      <point x="1017" y="683"/>
      <point x="719" y="664" type="curve"/>
      <point x="719" y="660" type="line"/>
      <point x="1021" y="647"/>
      <point x="1180" y="532"/>
      <point x="1180" y="333" type="curve" smooth="yes"/>
      <point x="1180" y="328" type="line" smooth="yes"/>
      <point x="1180" y="125"/>
      <point x="996" y="-2"/>
      <point x="663" y="-2" type="curve" smooth="yes"/>
      <point x="415" y="-2"/>
      <point x="244" y="52"/>
      <point x="110" y="131" type="curve"/>
      <point x="105" y="174" type="line"/>
      <point x="255" y="84"/>
      <point x="427" y="32"/>
      <point x="662" y="32" type="curve" smooth="yes"/>
      <point x="962" y="32"/>
      <point x="1142" y="146"/>
      <point x="1142" y="329" type="curve" smooth="yes"/>
      <point x="1142" y="333" type="line" smooth="yes"/>
      <point x="1142" y="522"/>
      <point x="1001" y="640"/>
      <point x="538" y="644" type="curve" smooth="yes"/>
      <point x="322" y="646" type="line"/>
      <point x="322" y="678" type="line"/>
      <point x="539" y="680" type="line" smooth="yes"/>
      <point x="996" y="684"/>
      <point x="1094" y="822"/>
      <point x="1094" y="963" type="curve" smooth="yes"/>
      <point x="1094" y="970" type="line" smooth="yes"/>
      <point x="1094" y="1063"/>
      <point x="1052" y="1148"/>
      <point x="938" y="1210" type="curve"/>
    </contour>
  </outline>
</glyph>
<glyph name="vowelRu.dv" format="2">
  <advance width="2149"/>
  <unicode hex="090B"/>
  <anchor x="1626" y="9" name="bottom3"/>
  <anchor x="1111" y="30" name="bottom5"/>
  <anchor x="1111" y="1221" name="top"/>
  <outline>
    <contour>
      <point x="2178" y="1200" type="line"/>
      <point x="-36" y="1200" type="line"/>
      <point x="-43" y="1230" type="line"/>
      <point x="2171" y="1230" type="line"/>
    </contour>
    <contour>
      <point x="1709" y="699" type="line"/>
      <point x="1709" y="663" type="line"/>
      <point x="1114" y="449" type="line"/>
      <point x="1114" y="485" type="line"/>
    </contour>
    <contour>
      <point x="1705" y="940" type="line"/>
      <point x="1715" y="861"/>
      <point x="1720" y="816"/>
      <point x="1730" y="737" type="curve"/>
      <point x="1703" y="660" type="line"/>
      <point x="1666" y="660" type="line"/>
      <point x="1666" y="940" type="line"/>
    </contour>
    <contour>
      <point x="1422" y="107" type="curve"/>
      <point x="1417" y="148" type="line"/>
      <point x="1491.11" y="108"/>
      <point x="1571.14" y="89"/>
      <point x="1666" y="89" type="curve" smooth="yes"/>
      <point x="1850.39" y="89"/>
      <point x="1962" y="182"/>
      <point x="1962" y="330" type="curve" smooth="yes"/>
      <point x="1962" y="335" type="line" smooth="yes"/>
      <point x="1962" y="501"/>
      <point x="1859.93" y="580"/>
      <point x="1679" y="655" type="curve"/>
      <point x="1698" y="681" type="line"/>
      <point x="1889.8" y="605"/>
      <point x="2000" y="507"/>
      <point x="2000" y="335" type="curve" smooth="yes"/>
      <point x="2000" y="329" type="line" smooth="yes"/>
      <point x="2000" y="162"/>
      <point x="1878.58" y="55"/>
      <point x="1670" y="55" type="curve" smooth="yes"/>
      <point x="1568.14" y="55"/>
      <point x="1485.09" y="74"/>
    </contour>
    <contour>
      <point x="1129" y="0" type="line"/>
      <point x="1093" y="0" type="line"/>
      <point x="1093" y="1207" type="line"/>
      <point x="1129" y="1207" type="line"/>
    </contour>
    <contour>
      <point x="1104" y="445" type="line"/>
      <point x="151" y="89" type="line"/>
      <point x="151" y="125" type="line"/>
      <point x="531" y="268" type="line"/>
      <point x="553" y="274" type="line"/>
      <point x="615" y="300"/>
      <point x="671" y="321"/>
      <point x="735" y="345" type="curve" smooth="yes"/>
      <point x="1104" y="481" type="line"/>
    </contour>
    <contour>
      <point x="529" y="252" type="line"/>
      <point x="477" y="247" type="line"/>
      <point x="632" y="327"/>
      <point x="714" y="440"/>
      <point x="714" y="593" type="curve" smooth="yes"/>
      <point x="714" y="598" type="line" smooth="yes"/>
      <point x="714" y="766"/>
      <point x="608" y="876"/>
      <point x="424" y="876" type="curve" smooth="yes"/>
      <point x="320" y="876"/>
      <point x="233" y="850"/>
      <point x="134" y="792" type="curve"/>
      <point x="139" y="833" type="line"/>
      <point x="219" y="881"/>
      <point x="314" y="910"/>
      <point x="422" y="910" type="curve" smooth="yes"/>
      <point x="632" y="910"/>
      <point x="751" y="783"/>
      <point x="751" y="600" type="curve" smooth="yes"/>
      <point x="751" y="593" type="line" smooth="yes"/>
      <point x="751" y="442"/>
      <point x="660" y="315"/>
      <point x="529" y="256" type="curve"/>
    </contour>
  </outline>
</glyph>
<glyph name="vowelLru.dv" format="2">
  <advance width="1819"/>
  <unicode hex="090C"/>
  <anchor x="1456" y="-170" name="bottom3"/>
  <anchor x="1312" y="1221" name="top"/>
  <outline>
    <contour>
      <point x="1645" y="539.298" type="line" smooth="yes"/>
      <point x="1645" y="399.191"/>
      <point x="1573.81" y="316.358"/>
      <point x="1433.06" y="225.642" type="curve" smooth="yes"/>
      <point x="1278.07" y="125.757"/>
      <point x="1212" y="75.1289"/>
      <point x="1212" y="-39.1415" type="curve" smooth="yes"/>
      <point x="1212" y="-152.782"/>
      <point x="1303" y="-222"/>
      <point x="1450" y="-222" type="curve" smooth="yes"/>
      <point x="1543" y="-222"/>
      <point x="1626" y="-199"/>
      <point x="1697" y="-144" type="curve"/>
      <point x="1693" y="-186" type="line"/>
      <point x="1637.23" y="-228.609"/>
      <point x="1550.58" y="-256"/>
      <point x="1450" y="-256" type="curve" smooth="yes"/>
      <point x="1280.38" y="-256"/>
      <point x="1175" y="-170"/>
      <point x="1175" y="-38.9534" type="curve" smooth="yes"/>
      <point x="1175" y="83.0115"/>
      <point x="1242.78" y="146.858"/>
      <point x="1407.25" y="251.687" type="curve" smooth="yes"/>
      <point x="1540.85" y="336.84"/>
      <point x="1607" y="410.407"/>
      <point x="1607" y="539.152" type="curve" smooth="yes"/>
      <point x="1607" y="543" type="line"/>
      <point x="1645" y="546" type="line"/>
    </contour>
    <contour>
      <point x="1131" y="1200" type="line"/>
      <point x="1124" y="1230" type="line"/>
      <point x="1615" y="1230" type="line"/>
      <point x="1622" y="1200" type="line"/>
    </contour>
    <contour>
      <point x="1330" y="1209" type="line"/>
      <point x="1330" y="931" type="line"/>
      <point x="1295" y="931" type="line"/>
      <point x="1295" y="1209" type="line"/>
    </contour>
    <contour>
      <point x="-36" y="1200" type="line"/>
      <point x="-43" y="1230" type="line"/>
      <point x="1855" y="1230" type="line"/>
      <point x="1862" y="1200" type="line"/>
    </contour>
    <contour>
      <point x="1330" y="1209" type="line"/>
      <point x="1330" y="865" type="line"/>
      <point x="1295" y="865" type="line"/>
      <point x="1295" y="1209" type="line"/>
    </contour>
    <contour>
      <point x="178" y="482" type="curve" smooth="yes"/>
      <point x="178" y="490" type="line" smooth="yes"/>
      <point x="178" y="720"/>
      <point x="337" y="874"/>
      <point x="582" y="874" type="curve" smooth="yes"/>
      <point x="791" y="874"/>
      <point x="908" y="773"/>
      <point x="927" y="607" type="curve"/>
      <point x="931" y="607" type="line"/>
      <point x="949" y="773"/>
      <point x="1084" y="874"/>
      <point x="1290" y="874" type="curve" smooth="yes"/>
      <point x="1503" y="874"/>
      <point x="1645" y="744"/>
      <point x="1645" y="548" type="curve" smooth="yes"/>
      <point x="1645" y="543" type="line"/>
      <point x="1607" y="539" type="line"/>
      <point x="1607" y="545" type="line" smooth="yes"/>
      <point x="1607" y="727"/>
      <point x="1477" y="840"/>
      <point x="1289" y="840" type="curve" smooth="yes"/>
      <point x="1087" y="840"/>
      <point x="949" y="733"/>
      <point x="947" y="522" type="curve" smooth="yes"/>
      <point x="945" y="328" type="line"/>
      <point x="912" y="328" type="line"/>
      <point x="910" y="522" type="line" smooth="yes"/>
      <point x="908" y="732"/>
      <point x="787" y="840"/>
      <point x="584" y="840" type="curve" smooth="yes"/>
      <point x="363" y="840"/>
      <point x="216" y="703"/>
      <point x="216" y="489" type="curve" smooth="yes"/>
      <point x="216" y="482" type="line" smooth="yes"/>
      <point x="216" y="270"/>
      <point x="331" y="132"/>
      <point x="548" y="4" type="curve"/>
      <point x="548" y="0" type="line"/>
      <point x="488" y="0" type="line"/>
      <point x="302" y="117"/>
      <point x="178" y="258"/>
    </contour>
  </outline>
  <guideline angle="0" x="0" y="504"/>
  <guideline angle="90" x="1312" y="0"/>
</glyph>
<glyph name="vowelShortO.dv" format="2">
  <advance width="2604"/>
  <unicode hex="0912"/>
  <anchor x="2359" y="1221" name="top"/>
  <outline>
    <contour>
      <point x="1355" y="1808" type="curve" smooth="yes"/>
      <point x="1355" y="1659"/>
      <point x="1437" y="1572"/>
      <point x="1642" y="1572" type="curve" smooth="yes"/>
      <point x="1943" y="1572" type="line" smooth="yes"/>
      <point x="2203" y="1572"/>
      <point x="2304" y="1460"/>
      <point x="2304" y="1253" type="curve" smooth="yes"/>
      <point x="2304" y="1219" type="line"/>
      <point x="2270" y="1219" type="line"/>
      <point x="2270" y="1253" type="line" smooth="yes"/>
      <point x="2270" y="1442"/>
      <point x="2181" y="1539"/>
      <point x="1941" y="1539" type="curve" smooth="yes"/>
      <point x="1638" y="1539" type="line" smooth="yes"/>
      <point x="1413" y="1539"/>
      <point x="1322" y="1641"/>
      <point x="1322" y="1797" type="curve" smooth="yes"/>
      <point x="1322" y="1813"/>
      <point x="1323" y="1831"/>
      <point x="1326" y="1848" type="curve"/>
      <point x="1355" y="1848" type="line"/>
      <point x="1355" y="1844.72"/>
      <point x="1355" y="1811.36"/>
    </contour>
    <contour>
      <point x="2013" y="1200" type="line"/>
      <point x="1317" y="1200" type="line"/>
      <point x="1310" y="1230" type="line"/>
      <point x="2006" y="1230" type="line"/>
    </contour>
    <contour>
      <point x="1635" y="0" type="line"/>
      <point x="1635" y="1210" type="line"/>
      <point x="1671" y="1210" type="line"/>
      <point x="1671" y="0" type="line"/>
    </contour>
    <contour>
      <point x="87" y="201" type="line"/>
      <point x="236" y="100"/>
      <point x="410" y="52"/>
      <point x="612" y="52" type="curve" smooth="yes"/>
      <point x="884" y="52"/>
      <point x="1076" y="153"/>
      <point x="1076" y="342" type="curve" smooth="yes"/>
      <point x="1076" y="349" type="line" smooth="yes"/>
      <point x="1076" y="540"/>
      <point x="906" y="633"/>
      <point x="593" y="638" type="curve" smooth="yes"/>
      <point x="345" y="642" type="line"/>
      <point x="345" y="673" type="line"/>
      <point x="584" y="675" type="line" smooth="yes"/>
      <point x="904" y="678"/>
      <point x="1053" y="765"/>
      <point x="1053" y="934" type="curve" smooth="yes"/>
      <point x="1053" y="938" type="line" smooth="yes"/>
      <point x="1053" y="1096"/>
      <point x="924" y="1214"/>
      <point x="630" y="1214" type="curve" smooth="yes"/>
      <point x="449" y="1214"/>
      <point x="304" y="1176"/>
      <point x="153" y="1096" type="curve"/>
      <point x="158" y="1137" type="line"/>
      <point x="298" y="1209"/>
      <point x="443" y="1248"/>
      <point x="630" y="1248" type="curve" smooth="yes"/>
      <point x="945" y="1248"/>
      <point x="1091" y="1118"/>
      <point x="1091" y="940" type="curve" smooth="yes"/>
      <point x="1091" y="933" type="line" smooth="yes"/>
      <point x="1091" y="762"/>
      <point x="945" y="669"/>
      <point x="723" y="658" type="curve"/>
      <point x="723" y="650" type="line"/>
      <point x="975" y="632"/>
      <point x="1114" y="525"/>
      <point x="1114" y="348" type="curve" smooth="yes"/>
      <point x="1114" y="340" type="line" smooth="yes"/>
      <point x="1114" y="134"/>
      <point x="917" y="18"/>
      <point x="613" y="18" type="curve" smooth="yes"/>
      <point x="401" y="18"/>
      <point x="226" y="68"/>
      <point x="93" y="157" type="curve"/>
    </contour>
    <contour>
      <point x="719" y="665" type="line"/>
      <point x="749" y="665" type="line"/>
      <point x="749" y="661" type="line"/>
      <point x="894" y="665"/>
      <point x="1011" y="665"/>
      <point x="1151" y="665" type="curve" smooth="yes"/>
      <point x="1655" y="665" type="line"/>
      <point x="1655" y="633" type="line"/>
      <point x="1151" y="633" type="line" smooth="yes"/>
      <point x="1018" y="633"/>
      <point x="912" y="634"/>
      <point x="794" y="642" type="curve"/>
      <point x="794" y="638" type="line"/>
      <point x="719" y="644" type="line"/>
    </contour>
    <contour>
      <point x="2305" y="0" type="line"/>
      <point x="2269" y="0" type="line"/>
      <point x="2269" y="1209" type="line"/>
      <point x="2305" y="1209" type="line"/>
    </contour>
    <contour>
      <point x="2647" y="1200" type="line"/>
      <point x="1934" y="1200" type="line"/>
      <point x="1927" y="1230" type="line"/>
      <point x="2640" y="1230" type="line"/>
    </contour>
  </outline>
</glyph>
<glyph name="Ka.dv" format="2">
  <advance width="2115"/>
  <unicode hex="0915"/>
  <anchor x="1065" y="9" name="bottom"/>
  <anchor x="1060" y="9" name="bottom2"/>
  <anchor x="1562" y="9" name="bottom3"/>
  <anchor x="1065" y="30" name="bottom5"/>
  <anchor x="1065" y="1221" name="top"/>
  <outline>
    <contour>
      <point x="-35" y="1200" type="line"/>
      <point x="-42" y="1230" type="line"/>
      <point x="2153" y="1230" type="line"/>
      <point x="2160" y="1200" type="line"/>
    </contour>
    <contour>
      <point x="174" y="571" type="curve" smooth="yes"/>
      <point x="174" y="577" type="line" smooth="yes"/>
      <point x="174" y="800"/>
      <point x="332" y="931"/>
      <point x="595" y="931" type="curve" smooth="yes"/>
      <point x="700" y="931"/>
      <point x="785" y="914"/>
      <point x="857" y="885" type="curve"/>
      <point x="863" y="847" type="line"/>
      <point x="777" y="883"/>
      <point x="695" y="897"/>
      <point x="597" y="897" type="curve" smooth="yes"/>
      <point x="359" y="897"/>
      <point x="212" y="781"/>
      <point x="212" y="575" type="curve" smooth="yes"/>
      <point x="212" y="571" type="line" smooth="yes"/>
      <point x="212" y="360"/>
      <point x="350" y="242"/>
      <point x="615" y="242" type="curve" smooth="yes"/>
      <point x="877" y="242"/>
      <point x="1010" y="360"/>
      <point x="1051" y="538" type="curve"/>
      <point x="1055" y="480" type="line"/>
      <point x="1053" y="480" type="line"/>
      <point x="1023" y="339"/>
      <point x="896" y="208"/>
      <point x="612" y="208" type="curve" smooth="yes"/>
      <point x="325" y="208"/>
      <point x="174" y="339"/>
    </contour>
    <contour>
      <point x="1943" y="571" type="curve" smooth="yes"/>
      <point x="1943" y="562" type="line" smooth="yes"/>
      <point x="1943" y="335"/>
      <point x="1791" y="208"/>
      <point x="1532" y="208" type="curve" smooth="yes"/>
      <point x="1424" y="208"/>
      <point x="1343" y="226"/>
      <point x="1273" y="260" type="curve"/>
      <point x="1267" y="299" type="line"/>
      <point x="1345" y="261"/>
      <point x="1424" y="242"/>
      <point x="1530" y="242" type="curve" smooth="yes"/>
      <point x="1765" y="242"/>
      <point x="1905" y="354"/>
      <point x="1905" y="564" type="curve" smooth="yes"/>
      <point x="1905" y="568" type="line" smooth="yes"/>
      <point x="1905" y="778"/>
      <point x="1767" y="897"/>
      <point x="1518" y="897" type="curve" smooth="yes"/>
      <point x="1252" y="897"/>
      <point x="1117" y="780"/>
      <point x="1076" y="602" type="curve"/>
      <point x="1073" y="660" type="line"/>
      <point x="1074" y="660" type="line"/>
      <point x="1105" y="800"/>
      <point x="1233" y="931"/>
      <point x="1516" y="931" type="curve" smooth="yes"/>
      <point x="1793" y="931"/>
      <point x="1943" y="794"/>
    </contour>
    <contour>
      <point x="1083" y="1209" type="line"/>
      <point x="1083" y="0" type="line"/>
      <point x="1047" y="0" type="line"/>
      <point x="1047" y="1209" type="line"/>
    </contour>
  </outline>
</glyph>
<glyph name="Kha.dv" format="2">
  <advance width="2068"/>
  <unicode hex="0916"/>
  <anchor x="1751" y="9" name="bottom"/>
  <anchor x="1746" y="9" name="bottom2"/>
  <anchor x="1769" y="9" name="bottom3"/>
  <anchor x="1751" y="30" name="bottom5"/>
  <anchor x="1751" y="1221" name="top"/>
  <outline>
    <contour>
      <point x="1769" y="1209" type="line"/>
      <point x="1769" y="0" type="line"/>
      <point x="1733" y="0" type="line"/>
      <point x="1733" y="1209" type="line"/>
    </contour>
    <contour>
      <point x="1559" y="1200" type="line"/>
      <point x="1552" y="1230" type="line"/>
      <point x="2104" y="1230" type="line"/>
      <point x="2111" y="1200" type="line"/>
    </contour>
    <contour>
      <point x="-36" y="1200" type="line"/>
      <point x="-43" y="1230" type="line"/>
      <point x="2104" y="1230" type="line"/>
      <point x="2111" y="1200" type="line"/>
    </contour>
    <contour>
      <point x="741" y="912" type="curve" smooth="yes"/>
      <point x="741" y="907" type="line" smooth="yes"/>
      <point x="741" y="692"/>
      <point x="557" y="588"/>
      <point x="185" y="588" type="curve" smooth="yes"/>
      <point x="150" y="588" type="line"/>
      <point x="77" y="621" type="line"/>
      <point x="173" y="621" type="line" smooth="yes"/>
      <point x="523" y="621"/>
      <point x="703" y="711"/>
      <point x="703" y="908" type="curve" smooth="yes"/>
      <point x="703" y="912" type="line" smooth="yes"/>
      <point x="703" y="1052"/>
      <point x="630" y="1140"/>
      <point x="525" y="1209" type="curve"/>
      <point x="577" y="1209" type="line"/>
      <point x="669" y="1148"/>
      <point x="741" y="1052"/>
    </contour>
    <contour>
      <point x="1709" y="168" type="line"/>
      <point x="1584" y="95"/>
      <point x="1389" y="44"/>
      <point x="1159" y="44" type="curve" smooth="yes"/>
      <point x="725" y="44"/>
      <point x="475" y="187"/>
      <point x="268" y="486" type="curve" smooth="yes"/>
      <point x="200" y="584" type="line"/>
      <point x="77" y="588" type="line"/>
      <point x="77" y="621" type="line"/>
      <point x="234" y="598" type="line"/>
      <point x="300" y="503" type="line" smooth="yes"/>
      <point x="494" y="224"/>
      <point x="747" y="78"/>
      <point x="1159" y="78" type="curve" smooth="yes"/>
      <point x="1383" y="78"/>
      <point x="1584" y="127"/>
      <point x="1739" y="222" type="curve"/>
      <point x="1739" y="216" type="line"/>
    </contour>
    <contour>
      <point x="1362" y="409" type="curve" smooth="yes"/>
      <point x="1119" y="409"/>
      <point x="985" y="513"/>
      <point x="985" y="680" type="curve" smooth="yes"/>
      <point x="985" y="685" type="line" smooth="yes"/>
      <point x="985" y="857"/>
      <point x="1113" y="956"/>
      <point x="1349" y="956" type="curve" smooth="yes"/>
      <point x="1431" y="956"/>
      <point x="1499" y="946"/>
      <point x="1566" y="923" type="curve"/>
      <point x="1572" y="887" type="line"/>
      <point x="1496" y="913"/>
      <point x="1432" y="922"/>
      <point x="1351" y="922" type="curve" smooth="yes"/>
      <point x="1136" y="922"/>
      <point x="1023" y="840"/>
      <point x="1023" y="685" type="curve" smooth="yes"/>
      <point x="1023" y="680" type="line" smooth="yes"/>
      <point x="1023" y="533"/>
      <point x="1139" y="443"/>
      <point x="1360" y="443" type="curve" smooth="yes"/>
      <point x="1556" y="443"/>
      <point x="1689" y="508"/>
      <point x="1739" y="623" type="curve"/>
      <point x="1743" y="577" type="line"/>
      <point x="1741" y="577" type="line"/>
      <point x="1697" y="482"/>
      <point x="1570" y="409"/>
    </contour>
  </outline>
  <guideline angle="90" x="-206" y="0"/>
  <guideline angle="90" x="741" y="0"/>
  <guideline angle="90" x="154" y="0"/>
  <guideline angle="90" x="1751" y="0"/>
  <guideline angle="90" x="1769" y="0"/>
  <guideline angle="0" x="0" y="9"/>
  <guideline angle="0" x="0" y="1221"/>
  <guideline angle="90" x="1746" y="0"/>
  <guideline angle="0" x="0" y="30"/>
</glyph>
<glyph name="Nga.dv" format="2">
  <advance width="1638"/>
  <unicode hex="0919"/>
  <anchor x="804" y="-9" name="bottom"/>
  <anchor x="650" y="-9" name="bottom2"/>
  <anchor x="1278" y="-9" name="bottom3"/>
  <anchor x="744" y="12" name="bottom5"/>
  <anchor x="1169" y="1221" name="top"/>
  <outline>
    <contour>
      <point x="1519" y="539" type="curve" smooth="yes"/>
      <point x="1471" y="539"/>
      <point x="1449" y="564"/>
      <point x="1449" y="599" type="curve" smooth="yes"/>
      <point x="1449" y="603" type="line" smooth="yes"/>
      <point x="1449" y="637"/>
      <point x="1471" y="662"/>
      <point x="1519" y="662" type="curve" smooth="yes"/>
      <point x="1567" y="662"/>
      <point x="1589" y="635"/>
      <point x="1589" y="603" type="curve" smooth="yes"/>
      <point x="1589" y="600" type="line" smooth="yes"/>
      <point x="1589" y="564"/>
      <point x="1567" y="539"/>
    </contour>
    <contour>
      <point x="1663" y="1200" type="line"/>
      <point x="1307" y="1200" type="line"/>
      <point x="1300" y="1230" type="line"/>
      <point x="1656" y="1230" type="line"/>
    </contour>
    <contour>
      <point x="988" y="1200" type="line"/>
      <point x="981" y="1230" type="line"/>
      <point x="1472" y="1230" type="line"/>
      <point x="1479" y="1200" type="line"/>
    </contour>
    <contour>
      <point x="1187" y="1209" type="line"/>
      <point x="1187" y="931" type="line"/>
      <point x="1152" y="931" type="line"/>
      <point x="1152" y="1209" type="line"/>
    </contour>
    <contour>
      <point x="1479" y="1200" type="line"/>
      <point x="-20" y="1200" type="line"/>
      <point x="-27" y="1230" type="line"/>
      <point x="1472" y="1230" type="line"/>
    </contour>
    <contour>
      <point x="1152" y="1218" type="line"/>
      <point x="1187" y="1218" type="line"/>
      <point x="1187" y="854" type="line"/>
      <point x="1180.98" y="858.127"/>
      <point x="1158.2" y="873.748"/>
      <point x="1152" y="878" type="curve"/>
    </contour>
    <contour>
      <point x="159" y="176" type="line"/>
      <point x="304" y="83"/>
      <point x="499" y="16"/>
      <point x="760" y="16" type="curve" smooth="yes"/>
      <point x="1091" y="16"/>
      <point x="1238" y="118"/>
      <point x="1238" y="260" type="curve" smooth="yes"/>
      <point x="1238" y="265" type="line" smooth="yes"/>
      <point x="1238" y="402"/>
      <point x="1136" y="500"/>
      <point x="837" y="500" type="curve" smooth="yes"/>
      <point x="641" y="500"/>
      <point x="511" y="468"/>
      <point x="377" y="422" type="curve"/>
      <point x="263" y="468"/>
      <point x="194" y="541"/>
      <point x="194" y="649" type="curve" smooth="yes"/>
      <point x="194" y="655" type="line" smooth="yes"/>
      <point x="194" y="814"/>
      <point x="333" y="926"/>
      <point x="730" y="926" type="curve" smooth="yes"/>
      <point x="899" y="926"/>
      <point x="1032" y="915"/>
      <point x="1187" y="888" type="curve"/>
      <point x="1187" y="854" type="line"/>
      <point x="1037" y="881"/>
      <point x="903" y="892"/>
      <point x="735" y="892" type="curve" smooth="yes"/>
      <point x="360" y="892"/>
      <point x="231" y="793"/>
      <point x="231" y="654" type="curve" smooth="yes"/>
      <point x="231" y="649" type="line" smooth="yes"/>
      <point x="231" y="553"/>
      <point x="293" y="495"/>
      <point x="379" y="459" type="curve"/>
      <point x="500" y="502"/>
      <point x="639" y="534"/>
      <point x="837" y="534" type="curve" smooth="yes"/>
      <point x="1161" y="534"/>
      <point x="1276" y="420"/>
      <point x="1276" y="265" type="curve" smooth="yes"/>
      <point x="1276" y="260" type="line" smooth="yes"/>
      <point x="1276" y="91"/>
      <point x="1116" y="-18"/>
      <point x="760" y="-18" type="curve" smooth="yes"/>
      <point x="491" y="-18"/>
      <point x="294" y="50"/>
      <point x="164" y="132" type="curve"/>
    </contour>
  </outline>
</glyph>
<glyph name="Ca.dv" format="2">
  <advance width="1698"/>
  <unicode hex="091A"/>
  <anchor x="1381" y="9" name="bottom"/>
  <anchor x="1376" y="9" name="bottom2"/>
  <anchor x="1399" y="9" name="bottom3"/>
  <anchor x="1381" y="30" name="bottom5"/>
  <anchor x="1381" y="1221" name="top"/>
  <outline>
    <contour>
      <point x="1399" y="1209" type="line"/>
      <point x="1399" y="0" type="line"/>
      <point x="1363" y="0" type="line"/>
      <point x="1363" y="1209" type="line"/>
    </contour>
    <contour>
      <point x="1189" y="1200" type="line"/>
      <point x="1182" y="1230" type="line"/>
      <point x="1734" y="1230" type="line"/>
      <point x="1741" y="1200" type="line"/>
    </contour>
    <contour>
      <point x="-36" y="1200" type="line"/>
      <point x="-43" y="1230" type="line"/>
      <point x="1734" y="1230" type="line"/>
      <point x="1741" y="1200" type="line"/>
    </contour>
    <contour>
      <point x="1068" y="863" type="line"/>
      <point x="1068" y="835" type="line"/>
      <point x="732" y="837" type="line"/>
      <point x="456" y="831" type="line"/>
      <point x="66" y="831" type="line"/>
      <point x="66" y="863" type="line"/>
    </contour>
    <contour>
      <point x="849" y="198" type="curve" smooth="yes"/>
      <point x="507" y="198"/>
      <point x="304" y="315"/>
      <point x="304" y="532" type="curve" smooth="yes"/>
      <point x="304" y="536" type="line" smooth="yes"/>
      <point x="304" y="718"/>
      <point x="422" y="809"/>
      <point x="659" y="837" type="curve"/>
      <point x="659" y="851" type="line"/>
      <point x="1068" y="851" type="line"/>
      <point x="1068" y="835" type="line"/>
      <point x="831" y="829" type="line" smooth="yes"/>
      <point x="504" y="821"/>
      <point x="342" y="734"/>
      <point x="342" y="536" type="curve" smooth="yes"/>
      <point x="342" y="532" type="line" smooth="yes"/>
      <point x="342" y="339"/>
      <point x="535" y="232"/>
      <point x="846" y="232" type="curve" smooth="yes"/>
      <point x="1153" y="232"/>
      <point x="1317" y="350"/>
      <point x="1368" y="529" type="curve"/>
      <point x="1371" y="476" type="line"/>
      <point x="1369" y="476" type="line"/>
      <point x="1330" y="331"/>
      <point x="1171" y="198"/>
    </contour>
  </outline>
</glyph>
<glyph name="Ja.dv" format="2">
  <advance width="1819"/>
  <unicode hex="091C"/>
  <anchor x="1502" y="9" name="bottom"/>
  <anchor x="1497" y="9" name="bottom2"/>
  <anchor x="1520" y="9" name="bottom3"/>
  <anchor x="1502" y="30" name="bottom5"/>
  <anchor x="1502" y="1221" name="top"/>
  <outline>
    <contour>
      <point x="1520" y="1209" type="line"/>
      <point x="1520" y="0" type="line"/>
      <point x="1484" y="0" type="line"/>
      <point x="1484" y="1209" type="line"/>
    </contour>
    <contour>
      <point x="1310" y="1200" type="line"/>
      <point x="1303" y="1230" type="line"/>
      <point x="1855" y="1230" type="line"/>
      <point x="1862" y="1200" type="line"/>
    </contour>
    <contour>
      <point x="1862" y="1200" type="line"/>
      <point x="-36" y="1200" type="line"/>
      <point x="-43" y="1230" type="line"/>
      <point x="1855" y="1230" type="line"/>
    </contour>
    <contour>
      <point x="1502" y="826" type="line"/>
      <point x="1502" y="794" type="line"/>
      <point x="888" y="794" type="line"/>
      <point x="650" y="795" type="line"/>
      <point x="311" y="796" type="line"/>
      <point x="311" y="826" type="line"/>
    </contour>
    <contour>
      <point x="684" y="817" type="line"/>
      <point x="684" y="801" type="line"/>
      <point x="912" y="782"/>
      <point x="1056" y="669"/>
      <point x="1056" y="470" type="curve" smooth="yes"/>
      <point x="1056" y="463" type="line" smooth="yes"/>
      <point x="1056" y="257"/>
      <point x="902" y="114"/>
      <point x="600" y="114" type="curve" smooth="yes"/>
      <point x="380" y="114"/>
      <point x="223" y="179"/>
      <point x="112" y="271" type="curve"/>
      <point x="107" y="317" type="line"/>
      <point x="233" y="212"/>
      <point x="386" y="148"/>
      <point x="598" y="148" type="curve" smooth="yes"/>
      <point x="876" y="148"/>
      <point x="1018" y="277"/>
      <point x="1018" y="464" type="curve" smooth="yes"/>
      <point x="1018" y="467" type="line" smooth="yes"/>
      <point x="1018" y="664"/>
      <point x="890" y="789"/>
      <point x="489" y="794" type="curve" smooth="yes"/>
      <point x="311" y="796" type="line"/>
      <point x="311" y="817" type="line"/>
    </contour>
  </outline>
</glyph>
<glyph name="Jha.dv" format="2">
  <advance width="2081"/>
  <unicode hex="091D"/>
  <anchor x="1764" y="9" name="bottom"/>
  <anchor x="1759" y="9" name="bottom2"/>
  <anchor x="1782" y="9" name="bottom3"/>
  <anchor x="1764" y="30" name="bottom5"/>
  <anchor x="1764" y="1221" name="top"/>
  <outline>
    <contour>
      <point x="1782" y="1209" type="line"/>
      <point x="1782" y="0" type="line"/>
      <point x="1746" y="0" type="line"/>
      <point x="1746" y="1209" type="line"/>
    </contour>
    <contour>
      <point x="1572" y="1200" type="line"/>
      <point x="1565" y="1230" type="line"/>
      <point x="2117" y="1230" type="line"/>
      <point x="2124" y="1200" type="line"/>
    </contour>
    <contour>
      <point x="2124" y="1200" type="line"/>
      <point x="-19" y="1200" type="line"/>
      <point x="-27" y="1230" type="line"/>
      <point x="2117" y="1230" type="line"/>
    </contour>
    <contour>
      <point x="1115" y="1210" type="line"/>
      <point x="1150" y="1210" type="line"/>
      <point x="1150" y="854" type="line"/>
      <point x="1115" y="878" type="line"/>
    </contour>
    <contour>
      <point x="1759" y="494" type="line"/>
      <point x="1759" y="462" type="line"/>
      <point x="1385" y="462" type="line" smooth="yes"/>
      <point x="1237" y="462"/>
      <point x="1145" y="461"/>
      <point x="1048" y="472" type="curve"/>
      <point x="1048" y="494" type="line"/>
    </contour>
    <contour>
      <point x="944" y="-388" type="line"/>
      <point x="895" y="-388" type="line"/>
      <point x="383" y="39" type="line"/>
      <point x="157" y="157" type="line"/>
      <point x="431" y="47" type="line"/>
      <point x="431" y="37" type="line"/>
      <point x="515" y="-27"/>
      <point x="558" y="-63"/>
      <point x="649" y="-139" type="curve" smooth="yes"/>
      <point x="944" y="-383" type="line"/>
    </contour>
    <contour>
      <point x="151" y="205" type="line"/>
      <point x="336" y="92"/>
      <point x="479" y="16"/>
      <point x="740" y="16" type="curve" smooth="yes"/>
      <point x="1050" y="16"/>
      <point x="1196" y="117"/>
      <point x="1196" y="258" type="curve" smooth="yes"/>
      <point x="1196" y="263" type="line" smooth="yes"/>
      <point x="1196" y="402"/>
      <point x="1097" y="500"/>
      <point x="819" y="500" type="curve" smooth="yes"/>
      <point x="632" y="500"/>
      <point x="511" y="470"/>
      <point x="377" y="422" type="curve"/>
      <point x="263" y="468"/>
      <point x="194" y="541"/>
      <point x="194" y="649" type="curve" smooth="yes"/>
      <point x="194" y="654" type="line" smooth="yes"/>
      <point x="194" y="815"/>
      <point x="326" y="924"/>
      <point x="707" y="924" type="curve" smooth="yes"/>
      <point x="869" y="924"/>
      <point x="995" y="913"/>
      <point x="1150" y="886" type="curve"/>
      <point x="1150" y="853" type="line"/>
      <point x="1000" y="879"/>
      <point x="878" y="890"/>
      <point x="712" y="890" type="curve" smooth="yes"/>
      <point x="353" y="890"/>
      <point x="231" y="794"/>
      <point x="231" y="652" type="curve" smooth="yes"/>
      <point x="231" y="648" type="line" smooth="yes"/>
      <point x="231" y="552"/>
      <point x="293" y="495"/>
      <point x="379" y="459" type="curve"/>
      <point x="501" y="503"/>
      <point x="633" y="534"/>
      <point x="814" y="534" type="curve" smooth="yes"/>
      <point x="1120" y="534"/>
      <point x="1234" y="419"/>
      <point x="1234" y="263" type="curve" smooth="yes"/>
      <point x="1234" y="258" type="line" smooth="yes"/>
      <point x="1234" y="90"/>
      <point x="1079" y="-18"/>
      <point x="740" y="-18" type="curve" smooth="yes"/>
      <point x="600" y="-18"/>
      <point x="465" y="8"/>
      <point x="368" y="55" type="curve" smooth="yes"/>
      <point x="157" y="157" type="line"/>
    </contour>
  </outline>
</glyph>
<glyph name="Nya.dv" format="2">
  <advance width="1853"/>
  <unicode hex="091E"/>
  <anchor x="1536" y="9" name="bottom"/>
  <anchor x="1531" y="9" name="bottom2"/>
  <anchor x="1554" y="9" name="bottom3"/>
  <anchor x="1536" y="30" name="bottom5"/>
  <anchor x="1536" y="1221" name="top"/>
  <outline>
    <contour>
      <point x="-36" y="1200" type="line"/>
      <point x="-43" y="1230" type="line"/>
      <point x="1889" y="1230" type="line"/>
      <point x="1896" y="1200" type="line"/>
    </contour>
    <contour>
      <point x="192" y="863" type="line"/>
      <point x="293" y="908"/>
      <point x="415" y="931"/>
      <point x="568" y="931" type="curve" smooth="yes"/>
      <point x="881" y="931"/>
      <point x="1057" y="805"/>
      <point x="1057" y="568" type="curve" smooth="yes"/>
      <point x="1057" y="561" type="line" smooth="yes"/>
      <point x="1057" y="315"/>
      <point x="870" y="190"/>
      <point x="562" y="190" type="curve" smooth="yes"/>
      <point x="378" y="190"/>
      <point x="232" y="231"/>
      <point x="144" y="285" type="curve"/>
      <point x="139" y="324" type="line"/>
      <point x="236" y="267"/>
      <point x="374" y="224"/>
      <point x="562" y="224" type="curve" smooth="yes"/>
      <point x="849" y="224"/>
      <point x="1020" y="340"/>
      <point x="1020" y="561" type="curve" smooth="yes"/>
      <point x="1020" y="566" type="line" smooth="yes"/>
      <point x="1020" y="789"/>
      <point x="858" y="897"/>
      <point x="568" y="897" type="curve" smooth="yes"/>
      <point x="421" y="897"/>
      <point x="303" y="878"/>
      <point x="187" y="826" type="curve"/>
    </contour>
    <contour>
      <point x="1038" y="595" type="line"/>
      <point x="1534" y="595" type="line"/>
      <point x="1534" y="563" type="line"/>
      <point x="1037" y="563" type="line"/>
    </contour>
    <contour>
      <point x="1554" y="1209" type="line"/>
      <point x="1554" y="0" type="line"/>
      <point x="1518" y="0" type="line"/>
      <point x="1518" y="1209" type="line"/>
    </contour>
    <contour>
      <point x="1344" y="1200" type="line"/>
      <point x="1337" y="1230" type="line"/>
      <point x="1889" y="1230" type="line"/>
      <point x="1896" y="1200" type="line"/>
    </contour>
  </outline>
</glyph>
<glyph name="Tta.dv" format="2">
  <advance width="1452"/>
  <unicode hex="091F"/>
  <anchor x="855" y="2" name="bottom"/>
  <anchor x="682" y="2" name="bottom2"/>
  <anchor x="1305" y="2" name="bottom3"/>
  <anchor x="789" y="-80" name="bottom4"/>
  <anchor x="779" y="23" name="bottom5"/>
  <anchor x="1191" y="1221" name="top"/>
  <outline>
    <contour>
      <point x="1010" y="1200" type="line"/>
      <point x="1003" y="1230" type="line"/>
      <point x="1494" y="1230" type="line"/>
      <point x="1501" y="1200" type="line"/>
    </contour>
    <contour>
      <point x="1209" y="1209" type="line"/>
      <point x="1209" y="931" type="line"/>
      <point x="1174" y="931" type="line"/>
      <point x="1174" y="1209" type="line"/>
    </contour>
    <contour>
      <point x="-29" y="1200" type="line"/>
      <point x="-36" y="1230" type="line"/>
      <point x="1502" y="1230" type="line"/>
      <point x="1509" y="1200" type="line"/>
    </contour>
    <contour>
      <point x="1174" y="805" type="line"/>
      <point x="1174" y="1212" type="line"/>
      <point x="1209" y="1212" type="line"/>
      <point x="1209" y="787" type="line"/>
    </contour>
    <contour>
      <point x="1280" y="124" type="line"/>
      <point x="1167" y="45"/>
      <point x="998" y="-7"/>
      <point x="774" y="-7" type="curve" smooth="yes"/>
      <point x="383" y="-7"/>
      <point x="176" y="151"/>
      <point x="176" y="427" type="curve" smooth="yes"/>
      <point x="176" y="438" type="line" smooth="yes"/>
      <point x="176" y="714"/>
      <point x="372" y="853"/>
      <point x="760" y="853" type="curve" smooth="yes"/>
      <point x="918" y="853"/>
      <point x="1045" y="844"/>
      <point x="1209" y="821" type="curve"/>
      <point x="1209" y="787" type="line"/>
      <point x="1041" y="812"/>
      <point x="918" y="819"/>
      <point x="760" y="819" type="curve" smooth="yes"/>
      <point x="393" y="819"/>
      <point x="214" y="694"/>
      <point x="214" y="436" type="curve" smooth="yes"/>
      <point x="214" y="429" type="line" smooth="yes"/>
      <point x="214" y="169"/>
      <point x="406" y="27"/>
      <point x="774" y="27" type="curve" smooth="yes"/>
      <point x="991" y="27"/>
      <point x="1160" y="80"/>
      <point x="1283" y="167" type="curve"/>
    </contour>
  </outline>
</glyph>
<glyph name="Ttha.dv" format="2">
  <advance width="1579"/>
  <unicode hex="0920"/>
  <anchor x="858" y="0" name="bottom"/>
  <anchor x="696" y="0" name="bottom2"/>
  <anchor x="1329" y="0" name="bottom3"/>
  <anchor x="799" y="-81" name="bottom4"/>
  <anchor x="794" y="21" name="bottom5"/>
  <anchor x="1061" y="1221" name="top"/>
  <outline>
    <contour>
      <point x="880" y="1200" type="line"/>
      <point x="873" y="1230" type="line"/>
      <point x="1364" y="1230" type="line"/>
      <point x="1371" y="1200" type="line"/>
    </contour>
    <contour>
      <point x="1079" y="1209" type="line"/>
      <point x="1079" y="931" type="line"/>
      <point x="1044" y="931" type="line"/>
      <point x="1044" y="1209" type="line"/>
    </contour>
    <contour>
      <point x="-36" y="1230" type="line"/>
      <point x="1615" y="1230" type="line"/>
      <point x="1622" y="1200" type="line"/>
      <point x="-29" y="1200" type="line"/>
    </contour>
    <contour>
      <point x="1044" y="1216" type="line"/>
      <point x="1079" y="1216" type="line"/>
      <point x="1079" y="803" type="line"/>
      <point x="1044" y="803" type="line"/>
    </contour>
    <contour>
      <point x="1073" y="826" type="line"/>
      <point x="1267" y="769"/>
      <point x="1404" y="644"/>
      <point x="1404" y="436" type="curve" smooth="yes"/>
      <point x="1404" y="425" type="line" smooth="yes"/>
      <point x="1404" y="146"/>
      <point x="1190" y="-9"/>
      <point x="796" y="-9" type="curve" smooth="yes"/>
      <point x="397" y="-9"/>
      <point x="176" y="146"/>
      <point x="176" y="425" type="curve" smooth="yes"/>
      <point x="176" y="436" type="line" smooth="yes"/>
      <point x="176" y="710"/>
      <point x="383" y="853"/>
      <point x="799" y="853" type="curve" smooth="yes"/>
      <point x="894" y="853"/>
      <point x="970" y="845"/>
      <point x="1079" y="826" type="curve"/>
      <point x="1079" y="794" type="line"/>
      <point x="967" y="815"/>
      <point x="899" y="819"/>
      <point x="801" y="819" type="curve" smooth="yes"/>
      <point x="411" y="819"/>
      <point x="213" y="689"/>
      <point x="213" y="434" type="curve" smooth="yes"/>
      <point x="213" y="427" type="line" smooth="yes"/>
      <point x="213" y="167"/>
      <point x="419" y="25"/>
      <point x="796" y="25" type="curve" smooth="yes"/>
      <point x="1162" y="25"/>
      <point x="1366" y="167"/>
      <point x="1366" y="427" type="curve" smooth="yes"/>
      <point x="1366" y="434" type="line" smooth="yes"/>
      <point x="1366" y="635"/>
      <point x="1240" y="742"/>
      <point x="1054" y="799" type="curve"/>
    </contour>
  </outline>
  <guideline angle="0" x="0" y="0"/>
  <guideline angle="0" x="0" y="21"/>
  <guideline angle="90" x="1061" y="0"/>
</glyph>
<glyph name="Ddha.dv" format="2">
  <advance width="1556"/>
  <unicode hex="0922"/>
  <anchor x="884" y="0" name="bottom"/>
  <anchor x="702" y="0" name="bottom2"/>
  <anchor x="1343" y="0" name="bottom3"/>
  <anchor x="802" y="21" name="bottom5"/>
  <anchor x="1256" y="1221" name="top"/>
  <outline>
    <contour>
      <point x="1075" y="1200" type="line"/>
      <point x="1068" y="1230" type="line"/>
      <point x="1559" y="1230" type="line"/>
      <point x="1566" y="1200" type="line"/>
    </contour>
    <contour>
      <point x="1274" y="1209" type="line"/>
      <point x="1274" y="931" type="line"/>
      <point x="1239" y="931" type="line"/>
      <point x="1239" y="1209" type="line"/>
    </contour>
    <contour>
      <point x="-30" y="1200" type="line"/>
      <point x="-37" y="1230" type="line"/>
      <point x="1602" y="1230" type="line"/>
      <point x="1609" y="1200" type="line"/>
    </contour>
    <contour>
      <point x="1239" y="1212" type="line"/>
      <point x="1274" y="1212" type="line"/>
      <point x="1274" y="819" type="line"/>
      <point x="1239" y="838" type="line"/>
    </contour>
    <contour>
      <point x="176" y="459" type="line" smooth="yes"/>
      <point x="176" y="737"/>
      <point x="392" y="888"/>
      <point x="842" y="888" type="curve" smooth="yes"/>
      <point x="1006" y="888"/>
      <point x="1127" y="879"/>
      <point x="1274" y="853" type="curve"/>
      <point x="1274" y="819" type="line"/>
      <point x="1123" y="847"/>
      <point x="1006" y="854"/>
      <point x="845" y="854" type="curve" smooth="yes"/>
      <point x="417" y="854"/>
      <point x="214" y="714"/>
      <point x="214" y="457" type="curve" smooth="yes"/>
      <point x="214" y="450" type="line" smooth="yes"/>
      <point x="214" y="190"/>
      <point x="436" y="24"/>
      <point x="869" y="24" type="curve" smooth="yes"/>
      <point x="1191" y="24"/>
      <point x="1357" y="125"/>
      <point x="1357" y="269" type="curve" smooth="yes"/>
      <point x="1357" y="274" type="line" smooth="yes"/>
      <point x="1357" y="396"/>
      <point x="1271" y="477"/>
      <point x="1045" y="477" type="curve" smooth="yes"/>
      <point x="834" y="477"/>
      <point x="723" y="395"/>
      <point x="723" y="271" type="curve" smooth="yes"/>
      <point x="723" y="265" type="line" smooth="yes"/>
      <point x="723" y="157"/>
      <point x="796" y="77"/>
      <point x="983" y="23" type="curve"/>
      <point x="931" y="14" type="line"/>
      <point x="931" y="18" type="line"/>
      <point x="781" y="57"/>
      <point x="687" y="144"/>
      <point x="687" y="265" type="curve" smooth="yes"/>
      <point x="687" y="271" type="line" smooth="yes"/>
      <point x="687" y="420"/>
      <point x="813" y="511"/>
      <point x="1043" y="511" type="curve" smooth="yes"/>
      <point x="1287" y="511"/>
      <point x="1394" y="418"/>
      <point x="1394" y="276" type="curve" smooth="yes"/>
      <point x="1394" y="269" type="line" smooth="yes"/>
      <point x="1394" y="105"/>
      <point x="1214" y="-9"/>
      <point x="869" y="-9" type="curve" smooth="yes"/>
      <point x="420" y="-9"/>
      <point x="176" y="167"/>
      <point x="176" y="449" type="curve" smooth="yes"/>
    </contour>
  </outline>
</glyph>
<glyph name="Nna.dv" format="2">
  <advance width="2032"/>
  <unicode hex="0923"/>
  <anchor x="1715" y="9" name="bottom"/>
  <anchor x="1710" y="9" name="bottom2"/>
  <anchor x="1733" y="9" name="bottom3"/>
  <anchor x="1715" y="30" name="bottom5"/>
  <anchor x="1715" y="1221" name="top"/>
  <outline>
    <contour>
      <point x="1733" y="1209" type="line"/>
      <point x="1733" y="0" type="line"/>
      <point x="1697" y="0" type="line"/>
      <point x="1697" y="1209" type="line"/>
    </contour>
    <contour>
      <point x="1523" y="1200" type="line"/>
      <point x="1516" y="1230" type="line"/>
      <point x="2068" y="1230" type="line"/>
      <point x="2075" y="1200" type="line"/>
    </contour>
    <contour>
      <point x="-35" y="1200" type="line"/>
      <point x="-42" y="1230" type="line"/>
      <point x="2068" y="1230" type="line"/>
      <point x="2075" y="1200" type="line"/>
    </contour>
    <contour>
      <point x="697" y="322" type="curve" smooth="yes"/>
      <point x="398" y="322"/>
      <point x="243" y="465"/>
      <point x="243" y="778" type="curve" smooth="yes"/>
      <point x="243" y="1210" type="line"/>
      <point x="279" y="1210" type="line"/>
      <point x="279" y="781" type="line" smooth="yes"/>
      <point x="279" y="488"/>
      <point x="418" y="356"/>
      <point x="697" y="356" type="curve" smooth="yes"/>
      <point x="980" y="356"/>
      <point x="1115" y="488"/>
      <point x="1115" y="781" type="curve" smooth="yes"/>
      <point x="1115" y="1210" type="line"/>
      <point x="1151" y="1210" type="line"/>
      <point x="1151" y="778" type="line" smooth="yes"/>
      <point x="1151" y="465"/>
      <point x="1000" y="322"/>
    </contour>
  </outline>
  <guideline angle="90" x="1715" y="0"/>
  <guideline angle="90" x="1733" y="0"/>
  <guideline angle="0" x="0" y="9"/>
  <guideline angle="0" x="0" y="1221"/>
  <guideline angle="90" x="1710" y="0"/>
  <guideline angle="0" x="0" y="30"/>
</glyph>
<glyph name="Ta.dv" format="2">
  <advance width="1556"/>
  <unicode hex="0924"/>
  <anchor x="1239" y="9" name="bottom"/>
  <anchor x="1234" y="9" name="bottom2"/>
  <anchor x="1257" y="9" name="bottom3"/>
  <anchor x="1239" y="30" name="bottom5"/>
  <anchor x="1239" y="1221" name="top"/>
  <outline>
    <contour>
      <point x="1257" y="1209" type="line"/>
      <point x="1257" y="0" type="line"/>
      <point x="1221" y="0" type="line"/>
      <point x="1221" y="1209" type="line"/>
    </contour>
    <contour>
      <point x="1047" y="1200" type="line"/>
      <point x="1040" y="1230" type="line"/>
      <point x="1592" y="1230" type="line"/>
      <point x="1599" y="1200" type="line"/>
    </contour>
    <contour>
      <point x="-30" y="1200" type="line"/>
      <point x="-37" y="1230" type="line"/>
      <point x="1592" y="1230" type="line"/>
      <point x="1599" y="1200" type="line"/>
    </contour>
    <contour>
      <point x="463" y="0" type="line"/>
      <point x="285" y="151"/>
      <point x="188" y="303"/>
      <point x="188" y="488" type="curve" smooth="yes"/>
      <point x="188" y="692"/>
      <point x="322" y="826"/>
      <point x="613" y="826" type="curve" smooth="yes"/>
      <point x="1240" y="826" type="line"/>
      <point x="1240" y="794" type="line"/>
      <point x="617" y="794" type="line" smooth="yes"/>
      <point x="352" y="794"/>
      <point x="226" y="675"/>
      <point x="226" y="488" type="curve" smooth="yes"/>
      <point x="226" y="306"/>
      <point x="320" y="166"/>
      <point x="516" y="0" type="curve"/>
    </contour>
  </outline>
  <guideline angle="90" x="1239" y="0"/>
  <guideline angle="90" x="1257" y="0"/>
  <guideline angle="0" x="0" y="9"/>
  <guideline angle="0" x="0" y="1221"/>
  <guideline angle="90" x="1234" y="0"/>
  <guideline angle="0" x="0" y="30"/>
</glyph>
<glyph name="Tha.dv" format="2">
  <advance width="1764"/>
  <unicode hex="0925"/>
  <anchor x="1447" y="9" name="bottom"/>
  <anchor x="1442" y="9" name="bottom2"/>
  <anchor x="1465" y="9" name="bottom3"/>
  <anchor x="1447" y="30" name="bottom5"/>
  <anchor x="1447" y="1221" name="top"/>
  <outline>
    <contour>
      <point x="1465" y="1209" type="line"/>
      <point x="1465" y="0" type="line"/>
      <point x="1429" y="0" type="line"/>
      <point x="1429" y="1209" type="line"/>
    </contour>
    <contour>
      <point x="1255" y="1200" type="line"/>
      <point x="1248" y="1230" type="line"/>
      <point x="1800" y="1230" type="line"/>
      <point x="1807" y="1200" type="line"/>
    </contour>
    <contour>
      <point x="1178" y="1230" type="line"/>
      <point x="1800" y="1230" type="line"/>
      <point x="1807" y="1200" type="line"/>
      <point x="1185" y="1200" type="line"/>
    </contour>
    <contour>
      <point x="238" y="915" type="line"/>
      <point x="233" y="938"/>
      <point x="231" y="960"/>
      <point x="231" y="979" type="curve" smooth="yes"/>
      <point x="231" y="1154"/>
      <point x="357" y="1257"/>
      <point x="611" y="1257" type="curve" smooth="yes"/>
      <point x="849" y="1257"/>
      <point x="982" y="1148"/>
      <point x="982" y="968" type="curve" smooth="yes"/>
      <point x="982" y="958" type="line" smooth="yes"/>
      <point x="982" y="767"/>
      <point x="844" y="664"/>
      <point x="477" y="664" type="curve" smooth="yes"/>
      <point x="208" y="664" type="line"/>
      <point x="194" y="696" type="line"/>
      <point x="466" y="696" type="line" smooth="yes"/>
      <point x="822" y="696"/>
      <point x="945" y="789"/>
      <point x="945" y="961" type="curve" smooth="yes"/>
      <point x="945" y="968" type="line" smooth="yes"/>
      <point x="945" y="1128"/>
      <point x="826" y="1223"/>
      <point x="611" y="1223" type="curve" smooth="yes"/>
      <point x="381" y="1223"/>
      <point x="265" y="1132"/>
      <point x="265" y="972" type="curve" smooth="yes"/>
      <point x="265" y="915" type="line"/>
    </contour>
    <contour>
      <point x="189" y="635" type="line" smooth="yes"/>
      <point x="189" y="655"/>
      <point x="190" y="676"/>
      <point x="194" y="696" type="curve"/>
      <point x="225" y="687" type="line"/>
      <point x="225" y="634" type="line" smooth="yes"/>
      <point x="225" y="374"/>
      <point x="428" y="242"/>
      <point x="823" y="242" type="curve" smooth="yes"/>
      <point x="1194" y="242"/>
      <point x="1372" y="368"/>
      <point x="1433" y="561" type="curve"/>
      <point x="1436" y="506" type="line"/>
      <point x="1435" y="506" type="line"/>
      <point x="1387" y="349"/>
      <point x="1210" y="208"/>
      <point x="826" y="208" type="curve" smooth="yes"/>
      <point x="400" y="208"/>
      <point x="189" y="354"/>
      <point x="189" y="630" type="curve" smooth="yes"/>
    </contour>
  </outline>
  <guideline angle="90" x="1185" y="0"/>
  <guideline angle="90" x="1447" y="0"/>
  <guideline angle="90" x="1465" y="0"/>
  <guideline angle="0" x="0" y="9"/>
  <guideline angle="0" x="0" y="1221"/>
  <guideline angle="90" x="1442" y="0"/>
  <guideline angle="0" x="0" y="30"/>
</glyph>
<glyph name="Da.dv" format="2">
  <advance width="1498"/>
  <unicode hex="0926"/>
  <anchor x="1257" y="-114" name="bottom"/>
  <anchor x="835" y="-114" name="bottom2"/>
  <anchor x="1291" y="-114" name="bottom3"/>
  <anchor x="319" y="120" name="bottom4"/>
  <anchor x="787" y="-103" name="bottom5"/>
  <anchor x="1194" y="1221" name="top"/>
  <outline>
    <contour>
      <point x="1013" y="1200" type="line"/>
      <point x="1006" y="1230" type="line"/>
      <point x="1497" y="1230" type="line"/>
      <point x="1504" y="1200" type="line"/>
    </contour>
    <contour>
      <point x="1212" y="1209" type="line"/>
      <point x="1212" y="931" type="line"/>
      <point x="1177" y="931" type="line"/>
      <point x="1177" y="1209" type="line"/>
    </contour>
    <contour>
      <point x="-33" y="1200" type="line"/>
      <point x="-40" y="1230" type="line"/>
      <point x="1532" y="1230" type="line"/>
      <point x="1539" y="1200" type="line"/>
    </contour>
    <contour>
      <point x="1177" y="860" type="line"/>
      <point x="1177" y="1210" type="line"/>
      <point x="1212" y="1210" type="line"/>
      <point x="1212" y="842" type="line"/>
    </contour>
    <contour>
      <point x="1233" y="534" type="line"/>
      <point x="1233" y="242" type="line"/>
      <point x="1299" y="-133" type="line"/>
      <point x="1263" y="-133" type="line"/>
      <point x="1199" y="242" type="line"/>
      <point x="1197" y="246" type="line"/>
      <point x="1197" y="534" type="line"/>
    </contour>
    <contour>
      <point x="736" y="137" type="curve" smooth="yes"/>
      <point x="936" y="137"/>
      <point x="1089" y="182"/>
      <point x="1201" y="265" type="curve"/>
      <point x="1203" y="226" type="line"/>
      <point x="1094" y="151"/>
      <point x="948" y="103"/>
      <point x="738" y="103" type="curve" smooth="yes"/>
      <point x="391" y="103"/>
      <point x="176" y="253"/>
      <point x="176" y="506" type="curve" smooth="yes"/>
      <point x="176" y="516" type="line" smooth="yes"/>
      <point x="176" y="764"/>
      <point x="366" y="908"/>
      <point x="767" y="908" type="curve" smooth="yes"/>
      <point x="925" y="908"/>
      <point x="1058" y="899"/>
      <point x="1212" y="876" type="curve"/>
      <point x="1212" y="842" type="line"/>
      <point x="1055" y="867"/>
      <point x="925" y="874"/>
      <point x="770" y="874" type="curve" smooth="yes"/>
      <point x="393" y="874"/>
      <point x="214" y="740"/>
      <point x="214" y="514" type="curve" smooth="yes"/>
      <point x="214" y="507" type="line" smooth="yes"/>
      <point x="214" y="277"/>
      <point x="412" y="137"/>
    </contour>
  </outline>
</glyph>
<glyph name="Dha.dv" format="2">
  <advance width="1741"/>
  <unicode hex="0927"/>
  <anchor x="1424" y="9" name="bottom"/>
  <anchor x="1419" y="9" name="bottom2"/>
  <anchor x="1442" y="9" name="bottom3"/>
  <anchor x="1424" y="30" name="bottom5"/>
  <anchor x="1424" y="1221" name="top"/>
  <outline>
    <contour>
      <point x="1442" y="1209" type="line"/>
      <point x="1442" y="0" type="line"/>
      <point x="1406" y="0" type="line"/>
      <point x="1406" y="1209" type="line"/>
    </contour>
    <contour>
      <point x="1232" y="1200" type="line"/>
      <point x="1225" y="1230" type="line"/>
      <point x="1777" y="1230" type="line"/>
      <point x="1784" y="1200" type="line"/>
    </contour>
    <contour>
      <point x="1182" y="1200" type="line"/>
      <point x="1175" y="1230" type="line"/>
      <point x="1777" y="1230" type="line"/>
      <point x="1784" y="1200" type="line"/>
    </contour>
    <contour>
      <point x="205" y="457" type="line" smooth="yes"/>
      <point x="205" y="603"/>
      <point x="299" y="690"/>
      <point x="639" y="696" type="curve"/>
      <point x="639" y="700" type="line"/>
      <point x="304" y="711"/>
      <point x="189" y="816"/>
      <point x="189" y="974" type="curve" smooth="yes"/>
      <point x="189" y="981" type="line" smooth="yes"/>
      <point x="189" y="1152"/>
      <point x="338" y="1257"/>
      <point x="602" y="1257" type="curve" smooth="yes"/>
      <point x="865" y="1257"/>
      <point x="1000" y="1166"/>
      <point x="1000" y="1002" type="curve" smooth="yes"/>
      <point x="1000" y="981"/>
      <point x="998" y="961"/>
      <point x="993" y="943" type="curve"/>
      <point x="963" y="943" type="line"/>
      <point x="963" y="990" type="line" smooth="yes"/>
      <point x="963" y="1147"/>
      <point x="838" y="1223"/>
      <point x="603" y="1223" type="curve" smooth="yes"/>
      <point x="363" y="1223"/>
      <point x="227" y="1132"/>
      <point x="227" y="979" type="curve" smooth="yes"/>
      <point x="227" y="974" type="line" smooth="yes"/>
      <point x="227" y="811"/>
      <point x="357" y="722"/>
      <point x="785" y="716" type="curve" smooth="yes"/>
      <point x="933" y="714" type="line"/>
      <point x="933" y="682" type="line"/>
      <point x="790" y="680" type="line" smooth="yes"/>
      <point x="333" y="674"/>
      <point x="243" y="599"/>
      <point x="243" y="457" type="curve" smooth="yes"/>
      <point x="243" y="453" type="line" smooth="yes"/>
      <point x="243" y="296"/>
      <point x="435" y="212"/>
      <point x="797" y="212" type="curve" smooth="yes"/>
      <point x="1158" y="212"/>
      <point x="1344" y="320"/>
      <point x="1410" y="489" type="curve"/>
      <point x="1413" y="444" type="line"/>
      <point x="1412" y="444" type="line"/>
      <point x="1361" y="303"/>
      <point x="1182" y="178"/>
      <point x="799" y="178" type="curve" smooth="yes"/>
      <point x="408" y="178"/>
      <point x="205" y="271"/>
      <point x="205" y="453" type="curve" smooth="yes"/>
    </contour>
  </outline>
</glyph>
<glyph name="Na.dv" format="2">
  <advance width="1482"/>
  <unicode hex="0928"/>
  <anchor x="1165" y="9" name="bottom"/>
  <anchor x="1160" y="9" name="bottom2"/>
  <anchor x="1183" y="9" name="bottom3"/>
  <anchor x="1165" y="30" name="bottom5"/>
  <anchor x="1165" y="1221" name="top"/>
  <outline>
    <contour>
      <point x="1183" y="1209" type="line"/>
      <point x="1183" y="0" type="line"/>
      <point x="1147" y="0" type="line"/>
      <point x="1147" y="1209" type="line"/>
    </contour>
    <contour>
      <point x="973" y="1200" type="line"/>
      <point x="966" y="1230" type="line"/>
      <point x="1518" y="1230" type="line"/>
      <point x="1525" y="1200" type="line"/>
    </contour>
    <contour>
      <point x="1525" y="1200" type="line"/>
      <point x="-28" y="1200" type="line"/>
      <point x="-35" y="1230" type="line"/>
      <point x="1518" y="1230" type="line"/>
    </contour>
    <contour>
      <point x="1165" y="732" type="line"/>
      <point x="1165" y="700" type="line"/>
      <point x="273" y="700" type="line"/>
      <point x="273" y="732" type="line"/>
    </contour>
    <contour>
      <point x="252" y="285" type="line"/>
      <point x="230" y="443"/>
      <point x="220" y="532"/>
      <point x="198" y="691" type="curve"/>
      <point x="255" y="732" type="line"/>
      <point x="296" y="732" type="line"/>
      <point x="296" y="285" type="line"/>
    </contour>
  </outline>
  <guideline angle="90" x="1165" y="0"/>
  <guideline angle="90" x="1183" y="0"/>
  <guideline angle="0" x="0" y="9"/>
  <guideline angle="0" x="0" y="1221"/>
  <guideline angle="90" x="1160" y="0"/>
  <guideline angle="0" x="0" y="30"/>
</glyph>
<glyph name="NaNukta.dv" format="2">
  <advance width="1482"/>
  <unicode hex="0929"/>
  <anchor x="1165" y="9" name="bottom"/>
  <anchor x="1160" y="9" name="bottom2"/>
  <anchor x="1183" y="9" name="bottom3"/>
  <anchor x="1165" y="30" name="bottom5"/>
  <anchor x="1165" y="1221" name="top"/>
  <outline>
    <contour>
      <point x="1183" y="1209" type="line"/>
      <point x="1183" y="0" type="line"/>
      <point x="1147" y="0" type="line"/>
      <point x="1147" y="1209" type="line"/>
    </contour>
    <contour>
      <point x="973" y="1200" type="line"/>
      <point x="966" y="1230" type="line"/>
      <point x="1518" y="1230" type="line"/>
      <point x="1525" y="1200" type="line"/>
    </contour>
    <contour>
      <point x="1525" y="1200" type="line"/>
      <point x="-28" y="1200" type="line"/>
      <point x="-35" y="1230" type="line"/>
      <point x="1518" y="1230" type="line"/>
    </contour>
    <contour>
      <point x="1165" y="732" type="line"/>
      <point x="1165" y="700" type="line"/>
      <point x="273" y="700" type="line"/>
      <point x="273" y="732" type="line"/>
    </contour>
    <contour>
      <point x="252" y="285" type="line"/>
      <point x="230" y="443"/>
      <point x="220" y="532"/>
      <point x="198" y="691" type="curve"/>
      <point x="255" y="732" type="line"/>
      <point x="296" y="732" type="line"/>
      <point x="296" y="285" type="line"/>
    </contour>
    <contour>
      <point x="274" y="-55" type="curve" smooth="yes"/>
      <point x="229" y="-55"/>
      <point x="208" y="-29"/>
      <point x="208" y="1" type="curve"/>
      <point x="208" y="1.6629"/>
      <point x="208" y="3.4258"/>
      <point x="208" y="4" type="curve"/>
      <point x="208" y="38"/>
      <point x="229" y="62"/>
      <point x="274" y="62" type="curve" smooth="yes"/>
      <point x="319" y="62"/>
      <point x="340" y="38"/>
      <point x="340" y="4" type="curve"/>
      <point x="340" y="3.3371"/>
      <point x="340" y="1.5742"/>
      <point x="340" y="1" type="curve"/>
      <point x="340" y="-30"/>
      <point x="319" y="-55"/>
    </contour>
  </outline>
</glyph>
<glyph name="Pa.dv" format="2">
  <advance width="1536"/>
  <unicode hex="092A"/>
  <anchor x="1219" y="9" name="bottom"/>
  <anchor x="1214" y="9" name="bottom2"/>
  <anchor x="1237" y="9" name="bottom3"/>
  <anchor x="1219" y="30" name="bottom5"/>
  <anchor x="1219" y="1221" name="top"/>
  <outline>
    <contour>
      <point x="1237" y="1209" type="line"/>
      <point x="1237" y="0" type="line"/>
      <point x="1201" y="0" type="line"/>
      <point x="1201" y="1209" type="line"/>
    </contour>
    <contour>
      <point x="1027" y="1200" type="line"/>
      <point x="1020" y="1230" type="line"/>
      <point x="1572" y="1230" type="line"/>
      <point x="1579" y="1200" type="line"/>
    </contour>
    <contour>
      <point x="-36" y="1200" type="line"/>
      <point x="-43" y="1230" type="line"/>
      <point x="1572" y="1230" type="line"/>
      <point x="1579" y="1200" type="line"/>
    </contour>
    <contour>
      <point x="719" y="349" type="curve" smooth="yes"/>
      <point x="411" y="349"/>
      <point x="231" y="484"/>
      <point x="231" y="824" type="curve" smooth="yes"/>
      <point x="231" y="1205" type="line"/>
      <point x="267" y="1205" type="line"/>
      <point x="267" y="824" type="line" smooth="yes"/>
      <point x="267" y="507"/>
      <point x="433" y="383"/>
      <point x="719" y="383" type="curve" smooth="yes"/>
      <point x="986" y="383"/>
      <point x="1145" y="502"/>
      <point x="1203" y="696" type="curve"/>
      <point x="1209" y="644" type="line"/>
      <point x="1205" y="644" type="line"/>
      <point x="1161" y="481"/>
      <point x="1002" y="349"/>
    </contour>
  </outline>
</glyph>
<glyph name="Ba.dv" format="2">
  <advance width="1613"/>
  <unicode hex="092C"/>
  <anchor x="1296" y="9" name="bottom"/>
  <anchor x="1291" y="9" name="bottom2"/>
  <anchor x="1314" y="9" name="bottom3"/>
  <anchor x="1296" y="30" name="bottom5"/>
  <anchor x="1296" y="1221" name="top"/>
  <outline>
    <contour>
      <point x="1314" y="1209" type="line"/>
      <point x="1314" y="0" type="line"/>
      <point x="1278" y="0" type="line"/>
      <point x="1278" y="1209" type="line"/>
    </contour>
    <contour>
      <point x="1104" y="1200" type="line"/>
      <point x="1097" y="1230" type="line"/>
      <point x="1649" y="1230" type="line"/>
      <point x="1656" y="1200" type="line"/>
    </contour>
    <contour>
      <point x="-21" y="1200" type="line"/>
      <point x="-28" y="1230" type="line"/>
      <point x="1548" y="1230" type="line"/>
      <point x="1555" y="1200" type="line"/>
    </contour>
    <contour>
      <point x="359" y="847" type="line"/>
      <point x="395" y="862" type="line"/>
      <point x="1141" y="306" type="line"/>
      <point x="1112" y="287" type="line"/>
    </contour>
    <contour>
      <point x="173" y="563" type="curve" smooth="yes"/>
      <point x="173" y="570" type="line" smooth="yes"/>
      <point x="173" y="806"/>
      <point x="363" y="938"/>
      <point x="716" y="938" type="curve" smooth="yes"/>
      <point x="863" y="938"/>
      <point x="975" y="920"/>
      <point x="1072" y="888" type="curve"/>
      <point x="1077" y="851" type="line"/>
      <point x="974" y="886"/>
      <point x="860" y="904"/>
      <point x="724" y="904" type="curve" smooth="yes"/>
      <point x="385" y="904"/>
      <point x="211" y="786"/>
      <point x="211" y="570" type="curve" smooth="yes"/>
      <point x="211" y="564" type="line" smooth="yes"/>
      <point x="211" y="343"/>
      <point x="408" y="216"/>
      <point x="724" y="216" type="curve" smooth="yes"/>
      <point x="1058" y="216"/>
      <point x="1224" y="337"/>
      <point x="1282" y="525" type="curve"/>
      <point x="1285" y="472" type="line"/>
      <point x="1283" y="472" type="line"/>
      <point x="1240" y="319"/>
      <point x="1076" y="182"/>
      <point x="726" y="182" type="curve" smooth="yes"/>
      <point x="384" y="182"/>
      <point x="173" y="321"/>
    </contour>
  </outline>
</glyph>
<glyph name="Bha.dv" format="2">
  <advance width="1561"/>
  <unicode hex="092D"/>
  <anchor x="1244" y="9" name="bottom"/>
  <anchor x="1239" y="9" name="bottom2"/>
  <anchor x="1262" y="9" name="bottom3"/>
  <anchor x="1244" y="30" name="bottom5"/>
  <anchor x="1244" y="1221" name="top"/>
  <outline>
    <contour>
      <point x="1262" y="1209" type="line"/>
      <point x="1262" y="0" type="line"/>
      <point x="1226" y="0" type="line"/>
      <point x="1226" y="1209" type="line"/>
    </contour>
    <contour>
      <point x="1052" y="1200" type="line"/>
      <point x="1045" y="1230" type="line"/>
      <point x="1597" y="1230" type="line"/>
      <point x="1604" y="1200" type="line"/>
    </contour>
    <contour>
      <point x="924" y="1200" type="line"/>
      <point x="917" y="1230" type="line"/>
      <point x="1497" y="1230" type="line"/>
      <point x="1504" y="1200" type="line"/>
    </contour>
    <contour>
      <point x="333" y="568" type="line"/>
      <point x="333" y="600" type="line"/>
      <point x="1243" y="600" type="line"/>
      <point x="1243" y="568" type="line"/>
    </contour>
    <contour>
      <point x="307" y="185" type="line"/>
      <point x="285" y="333"/>
      <point x="273" y="418"/>
      <point x="251" y="566" type="curve"/>
      <point x="315" y="596" type="line"/>
      <point x="351" y="596" type="line"/>
      <point x="351" y="185" type="line"/>
    </contour>
    <contour>
      <point x="315" y="573" type="line"/>
      <point x="315" y="970" type="line" smooth="yes"/>
      <point x="315" y="1141"/>
      <point x="266" y="1200"/>
      <point x="109" y="1200" type="curve" smooth="yes"/>
      <point x="-32" y="1200" type="line"/>
      <point x="-39" y="1230" type="line"/>
      <point x="111" y="1230" type="line" smooth="yes"/>
      <point x="289" y="1230"/>
      <point x="351" y="1155"/>
      <point x="351" y="974" type="curve" smooth="yes"/>
      <point x="351" y="573" type="line"/>
    </contour>
  </outline>
</glyph>
<glyph name="Ma.dv" format="2">
  <advance width="1581"/>
  <unicode hex="092E"/>
  <anchor x="1264" y="9" name="bottom"/>
  <anchor x="1259" y="9" name="bottom2"/>
  <anchor x="1282" y="9" name="bottom3"/>
  <anchor x="1264" y="30" name="bottom5"/>
  <anchor x="1264" y="1221" name="top"/>
  <outline>
    <contour>
      <point x="1282" y="1209" type="line"/>
      <point x="1282" y="0" type="line"/>
      <point x="1246" y="0" type="line"/>
      <point x="1246" y="1209" type="line"/>
    </contour>
    <contour>
      <point x="1072" y="1200" type="line"/>
      <point x="1065" y="1230" type="line"/>
      <point x="1617" y="1230" type="line"/>
      <point x="1624" y="1200" type="line"/>
    </contour>
    <contour>
      <point x="1624" y="1200" type="line"/>
      <point x="-32" y="1200" type="line"/>
      <point x="-39" y="1230" type="line"/>
      <point x="1617" y="1230" type="line"/>
    </contour>
    <contour>
      <point x="1262" y="600" type="line"/>
      <point x="1262" y="568" type="line"/>
      <point x="333" y="568" type="line"/>
      <point x="333" y="600" type="line"/>
    </contour>
    <contour>
      <point x="351" y="1210" type="line"/>
      <point x="351" y="573" type="line"/>
      <point x="315" y="573" type="line"/>
      <point x="315" y="1210" type="line"/>
    </contour>
    <contour>
      <point x="307" y="185" type="line"/>
      <point x="285" y="333"/>
      <point x="273" y="418"/>
      <point x="251" y="566" type="curve"/>
      <point x="315" y="596" type="line"/>
      <point x="351" y="596" type="line"/>
      <point x="351" y="185" type="line"/>
    </contour>
  </outline>
</glyph>
<glyph name="Ya.dv" format="2">
  <advance width="1654"/>
  <unicode hex="092F"/>
  <anchor x="1337" y="9" name="bottom"/>
  <anchor x="1332" y="9" name="bottom2"/>
  <anchor x="1355" y="9" name="bottom3"/>
  <anchor x="1337" y="30" name="bottom5"/>
  <anchor x="1337" y="1221" name="top"/>
  <outline>
    <contour>
      <point x="1355" y="1209" type="line"/>
      <point x="1355" y="0" type="line"/>
      <point x="1319" y="0" type="line"/>
      <point x="1319" y="1209" type="line"/>
    </contour>
    <contour>
      <point x="1145" y="1200" type="line"/>
      <point x="1138" y="1230" type="line"/>
      <point x="1690" y="1230" type="line"/>
      <point x="1697" y="1200" type="line"/>
    </contour>
    <contour>
      <point x="-48" y="1230" type="line"/>
      <point x="1689" y="1230" type="line"/>
      <point x="1696" y="1200" type="line"/>
      <point x="-41" y="1200" type="line"/>
    </contour>
    <contour>
      <point x="575" y="1210" type="line"/>
      <point x="660" y="1158"/>
      <point x="717" y="1071"/>
      <point x="717" y="965" type="curve" smooth="yes"/>
      <point x="717" y="959" type="line" smooth="yes"/>
      <point x="717" y="773"/>
      <point x="574" y="698"/>
      <point x="262" y="698" type="curve" smooth="yes"/>
      <point x="176" y="698" type="line"/>
      <point x="162" y="730" type="line"/>
      <point x="253" y="730" type="line" smooth="yes"/>
      <point x="537" y="730"/>
      <point x="680" y="789"/>
      <point x="680" y="958" type="curve" smooth="yes"/>
      <point x="680" y="962" type="line" smooth="yes"/>
      <point x="680" y="1072"/>
      <point x="628" y="1146"/>
      <point x="523" y="1210" type="curve"/>
    </contour>
    <contour>
      <point x="157" y="667" type="line" smooth="yes"/>
      <point x="157" y="684"/>
      <point x="158" y="712"/>
      <point x="162" y="730" type="curve"/>
      <point x="193" y="721" type="line"/>
      <point x="193" y="662" type="line" smooth="yes"/>
      <point x="193" y="411"/>
      <point x="412" y="251"/>
      <point x="758" y="251" type="curve" smooth="yes"/>
      <point x="1079" y="251"/>
      <point x="1265" y="366"/>
      <point x="1323" y="562" type="curve"/>
      <point x="1326" y="507" type="line"/>
      <point x="1324" y="507" type="line"/>
      <point x="1274" y="342"/>
      <point x="1103" y="217"/>
      <point x="758" y="217" type="curve" smooth="yes"/>
      <point x="381" y="217"/>
      <point x="157" y="388"/>
      <point x="157" y="662" type="curve" smooth="yes"/>
    </contour>
  </outline>
</glyph>
<glyph name="Ra.dv" format="2">
  <advance width="1075"/>
  <unicode hex="0930"/>
  <anchor x="488" y="9" name="bottom2"/>
  <anchor x="1056" y="9" name="bottom3"/>
  <anchor x="534" y="30" name="bottom5"/>
  <anchor x="674" y="1221" name="top"/>
  <outline>
    <contour>
      <point x="1126" y="1200" type="line"/>
      <point x="-36" y="1200" type="line"/>
      <point x="-43" y="1230" type="line"/>
      <point x="1119" y="1230" type="line"/>
    </contour>
    <contour>
      <point x="854" y="0" type="line"/>
      <point x="805" y="0" type="line"/>
      <point x="197" y="548" type="line"/>
      <point x="77" y="553" type="line"/>
      <point x="77" y="586" type="line"/>
      <point x="233" y="582" type="line"/>
      <point x="233" y="561" type="line"/>
      <point x="313" y="491"/>
      <point x="376" y="434"/>
      <point x="474" y="346" type="curve" smooth="yes"/>
      <point x="854" y="4" type="line"/>
    </contour>
    <contour>
      <point x="707" y="1209" type="line"/>
      <point x="804" y="1141"/>
      <point x="871" y="1046"/>
      <point x="871" y="913" type="curve" smooth="yes"/>
      <point x="871" y="908" type="line" smooth="yes"/>
      <point x="871" y="683"/>
      <point x="671" y="553"/>
      <point x="246" y="553" type="curve" smooth="yes"/>
      <point x="169" y="553" type="line"/>
      <point x="77" y="586" type="line"/>
      <point x="246" y="586" type="line" smooth="yes"/>
      <point x="637" y="586"/>
      <point x="833" y="702"/>
      <point x="833" y="909" type="curve" smooth="yes"/>
      <point x="833" y="914" type="line" smooth="yes"/>
      <point x="833" y="1041"/>
      <point x="770" y="1135"/>
      <point x="653" y="1209" type="curve"/>
    </contour>
  </outline>
</glyph>
<glyph name="Lla.dv" format="2">
  <advance width="2017"/>
  <unicode hex="0933"/>
  <anchor x="1476" y="27" name="bottom"/>
  <anchor x="1253" y="27" name="bottom2"/>
  <anchor x="1536" y="27" name="bottom3"/>
  <anchor x="1040" y="48" name="bottom5"/>
  <anchor x="1472" y="1221" name="top"/>
  <outline>
    <contour>
      <point x="1291" y="1200" type="line"/>
      <point x="1284" y="1230" type="line"/>
      <point x="1775" y="1230" type="line"/>
      <point x="1782" y="1200" type="line"/>
    </contour>
    <contour>
      <point x="1490" y="1209" type="line"/>
      <point x="1490" y="931" type="line"/>
      <point x="1455" y="931" type="line"/>
      <point x="1455" y="1209" type="line"/>
    </contour>
    <contour>
      <point x="2059" y="1200" type="line"/>
      <point x="-36" y="1200" type="line"/>
      <point x="-43" y="1230" type="line"/>
      <point x="2052" y="1230" type="line"/>
    </contour>
    <contour>
      <point x="1490" y="863" type="line"/>
      <point x="1455" y="863" type="line"/>
      <point x="1455" y="1216" type="line"/>
      <point x="1490" y="1216" type="line"/>
    </contour>
    <contour>
      <point x="1844" y="452" type="line" smooth="yes"/>
      <point x="1844" y="182.487"/>
      <point x="1693" y="18"/>
      <point x="1404" y="18" type="curve" smooth="yes"/>
      <point x="1163.71" y="18"/>
      <point x="1033.46" y="142"/>
      <point x="984" y="274" type="curve"/>
      <point x="979" y="274" type="line"/>
      <point x="986" y="320" type="line"/>
      <point x="996" y="319" type="line"/>
      <point x="1044.48" y="171"/>
      <point x="1175.78" y="52"/>
      <point x="1399" y="52" type="curve" smooth="yes"/>
      <point x="1670" y="52"/>
      <point x="1806" y="207.453"/>
      <point x="1806" y="453" type="curve" smooth="yes"/>
      <point x="1806" y="461" type="line" smooth="yes"/>
      <point x="1806" y="703.529"/>
      <point x="1655" y="842"/>
      <point x="1429" y="842" type="curve" smooth="yes"/>
      <point x="1186.61" y="842"/>
      <point x="1075.35" y="732.513"/>
      <point x="1036" y="520" type="curve" smooth="yes"/>
      <point x="996" y="304" type="line"/>
      <point x="992" y="304" type="line"/>
      <point x="957.217" y="130"/>
      <point x="840.241" y="18"/>
      <point x="606" y="18" type="curve" smooth="yes"/>
      <point x="346" y="18"/>
      <point x="178" y="174"/>
      <point x="178" y="445" type="curve" smooth="yes"/>
      <point x="178" y="454" type="line" smooth="yes"/>
      <point x="178" y="721"/>
      <point x="340" y="874"/>
      <point x="621" y="874" type="curve" smooth="yes"/>
      <point x="858.33" y="874"/>
      <point x="979.52" y="757"/>
      <point x="1028" y="618" type="curve"/>
      <point x="1034" y="618" type="line"/>
      <point x="1027" y="571" type="line"/>
      <point x="1016" y="571" type="line"/>
      <point x="962.454" y="735"/>
      <point x="845.268" y="840"/>
      <point x="621" y="840" type="curve" smooth="yes"/>
      <point x="360" y="840"/>
      <point x="216" y="700"/>
      <point x="216" y="452" type="curve" smooth="yes"/>
      <point x="216" y="445" type="line" smooth="yes"/>
      <point x="216" y="194"/>
      <point x="366" y="52"/>
      <point x="606" y="52" type="curve" smooth="yes"/>
      <point x="831.6" y="52"/>
      <point x="933.695" y="152.59"/>
      <point x="972" y="360" type="curve" smooth="yes"/>
      <point x="1013" y="582" type="line"/>
      <point x="1021" y="584" type="line"/>
      <point x="1055.42" y="753.171"/>
      <point x="1178.65" y="876"/>
      <point x="1428" y="876" type="curve" smooth="yes"/>
      <point x="1685" y="876"/>
      <point x="1844" y="715.445"/>
      <point x="1844" y="462" type="curve" smooth="yes"/>
    </contour>
  </outline>
</glyph>
<glyph name="LlaNukta.dv" format="2">
  <advance width="2017"/>
  <unicode hex="0934"/>
  <anchor x="1476" y="27" name="bottom"/>
  <anchor x="1253" y="27" name="bottom2"/>
  <anchor x="1536" y="27" name="bottom3"/>
  <anchor x="1040" y="48" name="bottom5"/>
  <anchor x="1472" y="1221" name="top"/>
  <outline>
    <contour>
      <point x="1291" y="1200" type="line"/>
      <point x="1284" y="1230" type="line"/>
      <point x="1775" y="1230" type="line"/>
      <point x="1782" y="1200" type="line"/>
    </contour>
    <contour>
      <point x="1490" y="1209" type="line"/>
      <point x="1490" y="931" type="line"/>
      <point x="1455" y="931" type="line"/>
      <point x="1455" y="1209" type="line"/>
    </contour>
    <contour>
      <point x="2059" y="1200" type="line"/>
      <point x="-36" y="1200" type="line"/>
      <point x="-43" y="1230" type="line"/>
      <point x="2052" y="1230" type="line"/>
    </contour>
    <contour>
      <point x="1490" y="863" type="line"/>
      <point x="1455" y="863" type="line"/>
      <point x="1455" y="1216" type="line"/>
      <point x="1490" y="1216" type="line"/>
    </contour>
    <contour>
      <point x="1844" y="452" type="line" smooth="yes"/>
      <point x="1844" y="182.487"/>
      <point x="1693" y="18"/>
      <point x="1404" y="18" type="curve" smooth="yes"/>
      <point x="1163.71" y="18"/>
      <point x="1033.46" y="142"/>
      <point x="984" y="274" type="curve"/>
      <point x="979" y="274" type="line"/>
      <point x="986" y="320" type="line"/>
      <point x="996" y="319" type="line"/>
      <point x="1044.48" y="171"/>
      <point x="1175.78" y="52"/>
      <point x="1399" y="52" type="curve" smooth="yes"/>
      <point x="1670" y="52"/>
      <point x="1806" y="207.453"/>
      <point x="1806" y="453" type="curve" smooth="yes"/>
      <point x="1806" y="461" type="line" smooth="yes"/>
      <point x="1806" y="703.529"/>
      <point x="1655" y="842"/>
      <point x="1429" y="842" type="curve" smooth="yes"/>
      <point x="1186.61" y="842"/>
      <point x="1075.35" y="732.513"/>
      <point x="1036" y="520" type="curve" smooth="yes"/>
      <point x="996" y="304" type="line"/>
      <point x="992" y="304" type="line"/>
      <point x="957.217" y="130"/>
      <point x="840.241" y="18"/>
      <point x="606" y="18" type="curve" smooth="yes"/>
      <point x="346" y="18"/>
      <point x="178" y="174"/>
      <point x="178" y="445" type="curve" smooth="yes"/>
      <point x="178" y="454" type="line" smooth="yes"/>
      <point x="178" y="721"/>
      <point x="340" y="874"/>
      <point x="621" y="874" type="curve" smooth="yes"/>
      <point x="858.33" y="874"/>
      <point x="979.52" y="757"/>
      <point x="1028" y="618" type="curve"/>
      <point x="1034" y="618" type="line"/>
      <point x="1027" y="571" type="line"/>
      <point x="1016" y="571" type="line"/>
      <point x="962.454" y="735"/>
      <point x="845.268" y="840"/>
      <point x="621" y="840" type="curve" smooth="yes"/>
      <point x="360" y="840"/>
      <point x="216" y="700"/>
      <point x="216" y="452" type="curve" smooth="yes"/>
      <point x="216" y="445" type="line" smooth="yes"/>
      <point x="216" y="194"/>
      <point x="366" y="52"/>
      <point x="606" y="52" type="curve" smooth="yes"/>
      <point x="831.6" y="52"/>
      <point x="933.695" y="152.59"/>
      <point x="972" y="360" type="curve" smooth="yes"/>
      <point x="1013" y="582" type="line"/>
      <point x="1021" y="584" type="line"/>
      <point x="1055.42" y="753.171"/>
      <point x="1178.65" y="876"/>
      <point x="1428" y="876" type="curve" smooth="yes"/>
      <point x="1685" y="876"/>
      <point x="1844" y="715.445"/>
      <point x="1844" y="462" type="curve" smooth="yes"/>
    </contour>
    <contour>
      <point x="992" y="-291" type="curve" smooth="yes"/>
      <point x="947" y="-291"/>
      <point x="926" y="-265"/>
      <point x="926" y="-235" type="curve"/>
      <point x="926" y="-234.337"/>
      <point x="926" y="-232.574"/>
      <point x="926" y="-232" type="curve"/>
      <point x="926" y="-198"/>
      <point x="947" y="-174"/>
      <point x="992" y="-174" type="curve" smooth="yes"/>
      <point x="1037" y="-174"/>
      <point x="1058" y="-198"/>
      <point x="1058" y="-232" type="curve"/>
      <point x="1058" y="-232.663"/>
      <point x="1058" y="-234.426"/>
      <point x="1058" y="-235" type="curve"/>
      <point x="1058" y="-266"/>
      <point x="1037" y="-291"/>
    </contour>
  </outline>
  <guideline angle="0" x="0" y="491"/>
  <guideline angle="0" x="0" y="27"/>
  <guideline angle="90" x="1253" y="0"/>
  <guideline angle="90" x="1536" y="0"/>
  <guideline angle="0" x="0" y="48"/>
  <guideline angle="90" x="1472" y="0"/>
</glyph>
<glyph name="Va.dv" format="2">
  <advance width="1572"/>
  <unicode hex="0935"/>
  <anchor x="1255" y="9" name="bottom"/>
  <anchor x="1250" y="9" name="bottom2"/>
  <anchor x="1273" y="9" name="bottom3"/>
  <anchor x="1255" y="30" name="bottom5"/>
  <anchor x="1255" y="1221" name="top"/>
  <outline>
    <contour>
      <point x="1273" y="1209" type="line"/>
      <point x="1273" y="0" type="line"/>
      <point x="1237" y="0" type="line"/>
      <point x="1237" y="1209" type="line"/>
    </contour>
    <contour>
      <point x="1063" y="1200" type="line"/>
      <point x="1056" y="1230" type="line"/>
      <point x="1608" y="1230" type="line"/>
      <point x="1615" y="1200" type="line"/>
    </contour>
    <contour>
      <point x="-27" y="1200" type="line"/>
      <point x="-34" y="1230" type="line"/>
      <point x="1607" y="1230" type="line"/>
      <point x="1615" y="1200" type="line"/>
    </contour>
    <contour>
      <point x="176" y="564" type="curve" smooth="yes"/>
      <point x="176" y="571" type="line" smooth="yes"/>
      <point x="176" y="803"/>
      <point x="356" y="931"/>
      <point x="691" y="931" type="curve" smooth="yes"/>
      <point x="827" y="931"/>
      <point x="937" y="912"/>
      <point x="1030" y="878" type="curve"/>
      <point x="1036" y="841" type="line"/>
      <point x="930" y="879"/>
      <point x="825" y="897"/>
      <point x="695" y="897" type="curve" smooth="yes"/>
      <point x="380" y="897"/>
      <point x="214" y="783"/>
      <point x="214" y="570" type="curve" smooth="yes"/>
      <point x="214" y="564" type="line" smooth="yes"/>
      <point x="214" y="353"/>
      <point x="391" y="232"/>
      <point x="709" y="232" type="curve" smooth="yes"/>
      <point x="1029" y="232"/>
      <point x="1189" y="350"/>
      <point x="1241" y="528" type="curve"/>
      <point x="1244" y="475" type="line"/>
      <point x="1243" y="475" type="line"/>
      <point x="1202" y="330"/>
      <point x="1049" y="198"/>
      <point x="709" y="198" type="curve" smooth="yes"/>
      <point x="369" y="198"/>
      <point x="176" y="329"/>
    </contour>
  </outline>
  <guideline angle="90" x="1255" y="0"/>
  <guideline angle="90" x="1273" y="0"/>
  <guideline angle="0" x="0" y="9"/>
  <guideline angle="0" x="0" y="1221"/>
  <guideline angle="90" x="1250" y="0"/>
  <guideline angle="0" x="0" y="30"/>
</glyph>
<glyph name="Sha.dv" format="2">
  <advance width="1931"/>
  <unicode hex="0936"/>
  <anchor x="1614" y="9" name="bottom"/>
  <anchor x="1609" y="9" name="bottom2"/>
  <anchor x="1632" y="9" name="bottom3"/>
  <anchor x="1614" y="30" name="bottom5"/>
  <anchor x="1614" y="1221" name="top"/>
  <outline>
    <contour>
      <point x="1632" y="1209" type="line"/>
      <point x="1632" y="0" type="line"/>
      <point x="1596" y="0" type="line"/>
      <point x="1596" y="1209" type="line"/>
    </contour>
    <contour>
      <point x="1422" y="1200" type="line"/>
      <point x="1415" y="1230" type="line"/>
      <point x="1967" y="1230" type="line"/>
      <point x="1974" y="1200" type="line"/>
    </contour>
    <contour>
      <point x="1305" y="1230" type="line"/>
      <point x="1967" y="1230" type="line"/>
      <point x="1974" y="1200" type="line"/>
      <point x="1312" y="1200" type="line"/>
    </contour>
    <contour>
      <point x="1041" y="0" type="line"/>
      <point x="988" y="0" type="line"/>
      <point x="317" y="442" type="line"/>
      <point x="166" y="455" type="line"/>
      <point x="166" y="488" type="line"/>
      <point x="346" y="466" type="line"/>
      <point x="346" y="460" type="line"/>
      <point x="446" y="397"/>
      <point x="511" y="354"/>
      <point x="627" y="278" type="curve" smooth="yes"/>
      <point x="1041" y="7" type="line"/>
    </contour>
    <contour>
      <point x="1134" y="879" type="curve" smooth="yes"/>
      <point x="1134" y="867" type="line" smooth="yes"/>
      <point x="1134" y="586"/>
      <point x="899" y="440"/>
      <point x="477" y="440" type="curve" smooth="yes"/>
      <point x="397" y="440"/>
      <point x="351" y="445"/>
      <point x="265" y="457" type="curve"/>
      <point x="166" y="488" type="line"/>
      <point x="287" y="477"/>
      <point x="360" y="473"/>
      <point x="470" y="473" type="curve" smooth="yes"/>
      <point x="872" y="473"/>
      <point x="1096" y="603"/>
      <point x="1096" y="869" type="curve" smooth="yes"/>
      <point x="1096" y="878" type="line" smooth="yes"/>
      <point x="1096" y="1081"/>
      <point x="949" y="1223"/>
      <point x="676" y="1223" type="curve" smooth="yes"/>
      <point x="433" y="1223"/>
      <point x="281" y="1112"/>
      <point x="281" y="947" type="curve" smooth="yes"/>
      <point x="281" y="944" type="line" smooth="yes"/>
      <point x="281" y="882"/>
      <point x="302" y="821"/>
      <point x="362" y="756" type="curve"/>
      <point x="319" y="756" type="line"/>
      <point x="269" y="812"/>
      <point x="244" y="879"/>
      <point x="244" y="944" type="curve" smooth="yes"/>
      <point x="244" y="948" type="line" smooth="yes"/>
      <point x="244" y="1129"/>
      <point x="409" y="1257"/>
      <point x="676" y="1257" type="curve" smooth="yes"/>
      <point x="968" y="1257"/>
      <point x="1134" y="1102"/>
    </contour>
  </outline>
  <guideline angle="0" x="0" y="659"/>
  <guideline angle="90" x="1312" y="0"/>
  <guideline angle="90" x="1614" y="0"/>
  <guideline angle="90" x="1632" y="0"/>
  <guideline angle="0" x="0" y="9"/>
  <guideline angle="0" x="0" y="1221"/>
  <guideline angle="90" x="1609" y="0"/>
  <guideline angle="0" x="0" y="30"/>
</glyph>
<glyph name="Ssa.dv" format="2">
  <advance width="1549"/>
  <unicode hex="0937"/>
  <anchor x="1232" y="9" name="bottom"/>
  <anchor x="1227" y="9" name="bottom2"/>
  <anchor x="1250" y="9" name="bottom3"/>
  <anchor x="1232" y="30" name="bottom5"/>
  <anchor x="1232" y="1221" name="top"/>
  <outline>
    <contour>
      <point x="1250" y="1209" type="line"/>
      <point x="1250" y="0" type="line"/>
      <point x="1214" y="0" type="line"/>
      <point x="1214" y="1209" type="line"/>
    </contour>
    <contour>
      <point x="1040" y="1200" type="line"/>
      <point x="1033" y="1230" type="line"/>
      <point x="1585" y="1230" type="line"/>
      <point x="1592" y="1200" type="line"/>
    </contour>
    <contour>
      <point x="-36" y="1200" type="line"/>
      <point x="-43" y="1230" type="line"/>
      <point x="1584" y="1230" type="line"/>
      <point x="1591" y="1200" type="line"/>
    </contour>
    <contour>
      <point x="735" y="349" type="curve" smooth="yes"/>
      <point x="409" y="349"/>
      <point x="233" y="491"/>
      <point x="233" y="828" type="curve" smooth="yes"/>
      <point x="233" y="1205" type="line"/>
      <point x="269" y="1205" type="line"/>
      <point x="269" y="828" type="line" smooth="yes"/>
      <point x="269" y="514"/>
      <point x="429" y="383"/>
      <point x="735" y="383" type="curve" smooth="yes"/>
      <point x="1006" y="383"/>
      <point x="1155" y="495"/>
      <point x="1216" y="682" type="curve"/>
      <point x="1221" y="628" type="line"/>
      <point x="1218" y="628" type="line"/>
      <point x="1171" y="479"/>
      <point x="1023" y="349"/>
    </contour>
    <contour>
      <point x="251" y="1176" type="curve"/>
      <point x="265" y="1200" type="line"/>
      <point x="1006" y="735" type="line" smooth="yes"/>
      <point x="1069" y="695"/>
      <point x="1133" y="655"/>
      <point x="1198" y="611" type="curve"/>
      <point x="1184" y="584" type="line"/>
      <point x="417" y="1066" type="line" smooth="yes"/>
      <point x="343" y="1112"/>
      <point x="295" y="1143"/>
    </contour>
  </outline>
</glyph>
<glyph name="Sa.dv" format="2">
  <advance width="1764"/>
  <unicode hex="0938"/>
  <anchor x="1447" y="9" name="bottom"/>
  <anchor x="1442" y="9" name="bottom2"/>
  <anchor x="1465" y="9" name="bottom3"/>
  <anchor x="1447" y="30" name="bottom5"/>
  <anchor x="1447" y="1221" name="top"/>
  <outline>
    <contour>
      <point x="1465" y="1209" type="line"/>
      <point x="1465" y="0" type="line"/>
      <point x="1429" y="0" type="line"/>
      <point x="1429" y="1209" type="line"/>
    </contour>
    <contour>
      <point x="1255" y="1200" type="line"/>
      <point x="1248" y="1230" type="line"/>
      <point x="1800" y="1230" type="line"/>
      <point x="1807" y="1200" type="line"/>
    </contour>
    <contour>
      <point x="1807" y="1200" type="line"/>
      <point x="-36" y="1200" type="line"/>
      <point x="-43" y="1230" type="line"/>
      <point x="1800" y="1230" type="line"/>
    </contour>
    <contour>
      <point x="544" y="616" type="line"/>
      <point x="1436" y="616" type="line"/>
      <point x="1436" y="584" type="line"/>
      <point x="557" y="584" type="line"/>
    </contour>
    <contour>
      <point x="778" y="0" type="line"/>
      <point x="731" y="0" type="line"/>
      <point x="196" y="549" type="line"/>
      <point x="77" y="553" type="line"/>
      <point x="77" y="586" type="line"/>
      <point x="229" y="577" type="line"/>
      <point x="229" y="563" type="line"/>
      <point x="296" y="495"/>
      <point x="349" y="441"/>
      <point x="444" y="344" type="curve" smooth="yes"/>
      <point x="778" y="4" type="line"/>
    </contour>
    <contour>
      <point x="588" y="1209" type="line"/>
      <point x="684" y="1140"/>
      <point x="752" y="1043"/>
      <point x="752" y="904" type="curve" smooth="yes"/>
      <point x="752" y="899" type="line" smooth="yes"/>
      <point x="752" y="679"/>
      <point x="588" y="553"/>
      <point x="178" y="553" type="curve" smooth="yes"/>
      <point x="114" y="553" type="line"/>
      <point x="77" y="586" type="line"/>
      <point x="171" y="586" type="line" smooth="yes"/>
      <point x="555" y="586"/>
      <point x="714" y="694"/>
      <point x="714" y="901" type="curve" smooth="yes"/>
      <point x="714" y="906" type="line" smooth="yes"/>
      <point x="714" y="1038"/>
      <point x="651" y="1132"/>
      <point x="534" y="1209" type="curve"/>
    </contour>
  </outline>
  <guideline angle="90" x="53" y="0"/>
  <guideline angle="90" x="628" y="0"/>
  <guideline angle="90" x="1447" y="0"/>
  <guideline angle="90" x="1465" y="0"/>
  <guideline angle="0" x="0" y="9"/>
  <guideline angle="0" x="0" y="1221"/>
  <guideline angle="90" x="1442" y="0"/>
  <guideline angle="0" x="0" y="30"/>
</glyph>
<glyph name="uni093A" format="2">
  <unicode hex="093A"/>
  <anchor x="-317" y="1221" name="_top"/>
  <outline>
    <contour>
      <point x="-335" y="1687" type="line"/>
      <point x="-301" y="1687" type="line"/>
      <point x="-301" y="1219" type="line"/>
      <point x="-335" y="1219" type="line"/>
    </contour>
  </outline>
</glyph>
<glyph name="uni093B" format="2">
  <advance width="634"/>
  <unicode hex="093B"/>
  <outline>
    <contour>
      <point x="335" y="0" type="line"/>
      <point x="299" y="0" type="line"/>
      <point x="299" y="1209" type="line"/>
      <point x="335" y="1209" type="line"/>
    </contour>
    <contour>
      <point x="677" y="1200" type="line"/>
      <point x="-36" y="1200" type="line"/>
      <point x="-43" y="1230" type="line"/>
      <point x="670" y="1230" type="line"/>
    </contour>
    <contour>
      <point x="300" y="1687" type="line"/>
      <point x="334" y="1687" type="line"/>
      <point x="334" y="1219" type="line"/>
      <point x="300" y="1219" type="line"/>
    </contour>
  </outline>
</glyph>
<glyph name="Nukta.dv" format="2">
  <unicode hex="093C"/>
  <anchor x="-457" y="142" name="_bottom4"/>
  <outline>
    <contour>
      <point x="-457" y="-117" type="curve" smooth="yes"/>
      <point x="-502" y="-117"/>
      <point x="-523" y="-91"/>
      <point x="-523" y="-61" type="curve"/>
      <point x="-523" y="-60.3371"/>
      <point x="-523" y="-58.5742"/>
      <point x="-523" y="-58" type="curve"/>
      <point x="-523" y="-24"/>
      <point x="-502" y="0"/>
      <point x="-457" y="0" type="curve" smooth="yes"/>
      <point x="-412" y="0"/>
      <point x="-391" y="-24"/>
      <point x="-391" y="-58" type="curve"/>
      <point x="-391" y="-58.6629"/>
      <point x="-391" y="-60.4258"/>
      <point x="-391" y="-61" type="curve"/>
      <point x="-391" y="-92"/>
      <point x="-412" y="-117"/>
    </contour>
  </outline>
  <guideline angle="0" x="0" y="142"/>
  <guideline angle="90" x="-457" y="0"/>
</glyph>
<glyph name="Avagraha.dv" format="2">
  <advance width="1262"/>
  <unicode hex="093D"/>
  <outline>
    <contour>
      <point x="101" y="218" type="line"/>
      <point x="236" y="108"/>
      <point x="421" y="35"/>
      <point x="656" y="35" type="curve" smooth="yes"/>
      <point x="939" y="35"/>
      <point x="1104" y="146"/>
      <point x="1104" y="331" type="curve" smooth="yes"/>
      <point x="1104" y="340" type="line" smooth="yes"/>
      <point x="1104" y="518"/>
      <point x="986" y="604"/>
      <point x="634" y="668" type="curve" smooth="yes"/>
      <point x="273" y="734"/>
      <point x="148" y="817"/>
      <point x="148" y="981" type="curve" smooth="yes"/>
      <point x="148" y="988" type="line" smooth="yes"/>
      <point x="148" y="1141"/>
      <point x="277" y="1230"/>
      <point x="532" y="1230" type="curve" smooth="yes"/>
      <point x="1065" y="1230" type="line"/>
      <point x="1072" y="1198" type="line"/>
      <point x="536" y="1198" type="line" smooth="yes"/>
      <point x="310" y="1198"/>
      <point x="185" y="1123"/>
      <point x="185" y="984" type="curve" smooth="yes"/>
      <point x="185" y="979" type="line" smooth="yes"/>
      <point x="185" y="833"/>
      <point x="302" y="765"/>
      <point x="644" y="703" type="curve" smooth="yes"/>
      <point x="1016" y="635"/>
      <point x="1141" y="534"/>
      <point x="1141" y="338" type="curve" smooth="yes"/>
      <point x="1141" y="331" type="line" smooth="yes"/>
      <point x="1141" y="128"/>
      <point x="974" y="0"/>
      <point x="657" y="0" type="curve" smooth="yes"/>
      <point x="412" y="0"/>
      <point x="234" y="69"/>
      <point x="107" y="169" type="curve"/>
    </contour>
  </outline>
</glyph>
<glyph name="matraA.dv" format="2">
  <advance width="634"/>
  <unicode hex="093E"/>
  <outline>
    <contour>
      <point x="335" y="0" type="line"/>
      <point x="299" y="0" type="line"/>
      <point x="299" y="1209" type="line"/>
      <point x="335" y="1209" type="line"/>
    </contour>
    <contour>
      <point x="677" y="1200" type="line"/>
      <point x="-36" y="1200" type="line"/>
      <point x="-43" y="1230" type="line"/>
      <point x="670" y="1230" type="line"/>
    </contour>
  </outline>
</glyph>
<glyph name="matraI.dv" format="2">
  <advance width="634"/>
  <unicode hex="093F"/>
  <outline>
    <contour>
      <point x="335" y="0" type="line"/>
      <point x="299" y="0" type="line"/>
      <point x="299" y="1209" type="line"/>
      <point x="335" y="1209" type="line"/>
    </contour>
    <contour>
      <point x="677" y="1200" type="line"/>
      <point x="-36" y="1200" type="line"/>
      <point x="-43" y="1230" type="line"/>
      <point x="670" y="1230" type="line"/>
    </contour>
    <contour>
      <point x="909.957" y="1766" type="curve" smooth="yes"/>
      <point x="1292.53" y="1766"/>
      <point x="1626.46" y="1621.13"/>
      <point x="1834" y="1411" type="curve"/>
      <point x="1852" y="1359" type="line"/>
      <point x="1846" y="1356" type="line"/>
      <point x="1618" y="1588"/>
      <point x="1287" y="1732"/>
      <point x="909.953" y="1732" type="curve" smooth="yes"/>
      <point x="522" y="1732"/>
      <point x="334" y="1581"/>
      <point x="334" y="1283" type="curve" smooth="yes"/>
      <point x="334" y="1220" type="line"/>
      <point x="299" y="1220" type="line"/>
      <point x="299" y="1286" type="line" smooth="yes"/>
      <point x="299" y="1605"/>
      <point x="502" y="1766"/>
    </contour>
  </outline>
  <guideline angle="90" x="1834" y="0"/>
  <guideline angle="0" x="0" y="1589"/>
  <guideline angle="90" x="335" y="0"/>
  <guideline angle="90" x="75" y="0"/>
</glyph>
<glyph name="matraIi.dv" format="2">
  <advance width="634"/>
  <unicode hex="0940"/>
  <outline>
    <contour>
      <point x="335" y="0" type="line"/>
      <point x="299" y="0" type="line"/>
      <point x="299" y="1209" type="line"/>
      <point x="335" y="1209" type="line"/>
    </contour>
    <contour>
      <point x="677" y="1200" type="line"/>
      <point x="-36" y="1200" type="line"/>
      <point x="-43" y="1230" type="line"/>
      <point x="670" y="1230" type="line"/>
    </contour>
    <contour>
      <point x="-8" y="1789" type="curve" smooth="yes"/>
      <point x="206" y="1789"/>
      <point x="334" y="1680"/>
      <point x="334" y="1421" type="curve" smooth="yes"/>
      <point x="334" y="1223" type="line"/>
      <point x="299" y="1223" type="line"/>
      <point x="299" y="1419" type="line" smooth="yes"/>
      <point x="299" y="1654"/>
      <point x="188" y="1755"/>
      <point x="-8" y="1755" type="curve" smooth="yes"/>
      <point x="-197" y="1755"/>
      <point x="-305" y="1659"/>
      <point x="-305" y="1474" type="curve" smooth="yes"/>
      <point x="-305" y="1360" type="line"/>
      <point x="-336" y="1369" type="line"/>
      <point x="-339" y="1418"/>
      <point x="-341" y="1455"/>
      <point x="-341" y="1488" type="curve" smooth="yes"/>
      <point x="-341" y="1680"/>
      <point x="-218" y="1789"/>
    </contour>
  </outline>
</glyph>
<glyph name="matraU.dv" format="2">
  <unicode hex="0941"/>
  <anchor x="-317" y="9" name="_bottom"/>
  <note>Moved to right by 30pts in Exp Thin</note>
  <outline>
    <contour>
      <point x="-1053" y="-214" type="line"/>
      <point x="-905" y="-420"/>
      <point x="-708" y="-542"/>
      <point x="-431" y="-542" type="curve" smooth="yes"/>
      <point x="-205" y="-542"/>
      <point x="-68" y="-435"/>
      <point x="-68" y="-282" type="curve" smooth="yes"/>
      <point x="-68" y="-273" type="line" smooth="yes"/>
      <point x="-68" y="-116"/>
      <point x="-178" y="-25"/>
      <point x="-346" y="-25" type="curve" smooth="yes"/>
      <point x="-453" y="-25"/>
      <point x="-549" y="-52"/>
      <point x="-640" y="-107" type="curve"/>
      <point x="-635" y="-64" type="line"/>
      <point x="-553" y="-18"/>
      <point x="-464" y="9"/>
      <point x="-345" y="9" type="curve" smooth="yes"/>
      <point x="-151" y="9"/>
      <point x="-31" y="-102"/>
      <point x="-31" y="-273" type="curve" smooth="yes"/>
      <point x="-31" y="-282" type="line" smooth="yes"/>
      <point x="-31" y="-458"/>
      <point x="-176" y="-575"/>
      <point x="-427" y="-575" type="curve" smooth="yes"/>
      <point x="-734" y="-575"/>
      <point x="-939" y="-442"/>
      <point x="-1099" y="-214" type="curve"/>
    </contour>
  </outline>
  <guideline angle="0" x="0" y="9"/>
  <guideline angle="90" x="-317" y="0"/>
  <guideline angle="90" x="-6" y="0"/>
</glyph>
<glyph name="matraUu.dv" format="2">
  <unicode hex="0942"/>
  <anchor x="-317" y="9" name="_bottom"/>
  <outline>
    <contour>
      <point x="-170" y="-507" type="line"/>
      <point x="-243" y="-552"/>
      <point x="-337" y="-577"/>
      <point x="-451" y="-577" type="curve" smooth="yes"/>
      <point x="-650" y="-577"/>
      <point x="-799" y="-473"/>
      <point x="-799" y="-290" type="curve" smooth="yes"/>
      <point x="-799" y="-281" type="line" smooth="yes"/>
      <point x="-799" y="-100"/>
      <point x="-645" y="9"/>
      <point x="-411" y="9" type="curve" smooth="yes"/>
      <point x="-56" y="9"/>
      <point x="125" y="-239"/>
      <point x="264" y="-577" type="curve"/>
      <point x="225" y="-577" type="line"/>
      <point x="91" y="-256"/>
      <point x="-76" y="-25"/>
      <point x="-409" y="-25" type="curve" smooth="yes"/>
      <point x="-618" y="-25"/>
      <point x="-762" y="-116"/>
      <point x="-762" y="-283" type="curve" smooth="yes"/>
      <point x="-762" y="-290" type="line" smooth="yes"/>
      <point x="-762" y="-452"/>
      <point x="-632" y="-543"/>
      <point x="-451" y="-543" type="curve" smooth="yes"/>
      <point x="-342" y="-543"/>
      <point x="-252" y="-520"/>
      <point x="-164" y="-465" type="curve"/>
    </contour>
  </outline>
</glyph>
<glyph name="matraRu.dv" format="2">
  <unicode hex="0943"/>
  <anchor x="-317" y="9" name="_bottom"/>
  <outline>
    <contour>
      <point x="-422" y="-536" type="curve" smooth="yes"/>
      <point x="-660" y="-536"/>
      <point x="-810" y="-427"/>
      <point x="-810" y="-256" type="curve" smooth="yes"/>
      <point x="-810" y="-247" type="line" smooth="yes"/>
      <point x="-810" y="-75"/>
      <point x="-676" y="16"/>
      <point x="-406" y="16" type="curve" smooth="yes"/>
      <point x="-299" y="16" type="line"/>
      <point x="-299" y="-16" type="line"/>
      <point x="-400" y="-16" type="line" smooth="yes"/>
      <point x="-649" y="-16"/>
      <point x="-773" y="-94"/>
      <point x="-773" y="-249" type="curve" smooth="yes"/>
      <point x="-773" y="-255" type="line" smooth="yes"/>
      <point x="-773" y="-409"/>
      <point x="-639" y="-502"/>
      <point x="-423" y="-502" type="curve" smooth="yes"/>
      <point x="-267" y="-502"/>
      <point x="-149" y="-466"/>
      <point x="-48" y="-384" type="curve"/>
      <point x="-53" y="-431" type="line"/>
      <point x="-147" y="-500"/>
      <point x="-261" y="-536"/>
    </contour>
  </outline>
</glyph>
<glyph name="matraRuu.dv" format="2">
  <unicode hex="0944"/>
  <anchor x="-317" y="9" name="_bottom"/>
  <outline>
    <contour>
      <point x="-299" y="16" type="line"/>
      <point x="-299" y="-16" type="line"/>
      <point x="-440" y="-16" type="line" smooth="yes"/>
      <point x="-671" y="-16"/>
      <point x="-766" y="-70"/>
      <point x="-766" y="-187" type="curve" smooth="yes"/>
      <point x="-766" y="-192" type="line" smooth="yes"/>
      <point x="-766" y="-302"/>
      <point x="-647.529" y="-372"/>
      <point x="-442.804" y="-372" type="curve" smooth="yes"/>
      <point x="-294.196" y="-372"/>
      <point x="-183" y="-346"/>
      <point x="-94" y="-285" type="curve"/>
      <point x="-98" y="-326" type="line"/>
      <point x="-179" y="-379"/>
      <point x="-287.844" y="-406"/>
      <point x="-442.298" y="-406" type="curve" smooth="yes"/>
      <point x="-678.644" y="-406"/>
      <point x="-802" y="-318"/>
      <point x="-802" y="-192" type="curve" smooth="yes"/>
      <point x="-802" y="-185" type="line" smooth="yes"/>
      <point x="-802" y="-50"/>
      <point x="-699" y="16"/>
      <point x="-446" y="16" type="curve" smooth="yes"/>
    </contour>
    <contour>
      <point x="-556" y="-399" type="line"/>
      <point x="-688" y="-408"/>
      <point x="-766" y="-454"/>
      <point x="-766" y="-550" type="curve" smooth="yes"/>
      <point x="-766" y="-555" type="line" smooth="yes"/>
      <point x="-766" y="-667"/>
      <point x="-638.103" y="-733"/>
      <point x="-442.527" y="-733" type="curve" smooth="yes"/>
      <point x="-289.209" y="-733"/>
      <point x="-169" y="-702"/>
      <point x="-80" y="-641" type="curve"/>
      <point x="-84" y="-682" type="line"/>
      <point x="-167" y="-736"/>
      <point x="-283.84" y="-767"/>
      <point x="-442.008" y="-767" type="curve" smooth="yes"/>
      <point x="-663.011" y="-767"/>
      <point x="-802" y="-685"/>
      <point x="-802" y="-555" type="curve" smooth="yes"/>
      <point x="-802" y="-550" type="line" smooth="yes"/>
      <point x="-802" y="-450"/>
      <point x="-725" y="-393"/>
      <point x="-606" y="-381" type="curve"/>
      <point x="-606" y="-376" type="line"/>
    </contour>
  </outline>
  <guideline angle="90" x="-317" y="0"/>
  <guideline angle="0" x="0" y="-776"/>
  <guideline angle="0" x="0" y="9"/>
</glyph>
<glyph name="Chandra.dv" format="2">
  <unicode hex="0945"/>
  <anchor x="-317" y="1221" name="_top"/>
  <outline>
    <contour>
      <point x="33" y="1780" type="line"/>
      <point x="33" y="1769"/>
      <point x="33" y="1762"/>
      <point x="33" y="1755" type="curve" smooth="yes"/>
      <point x="33" y="1563"/>
      <point x="-88" y="1460"/>
      <point x="-317" y="1460" type="curve" smooth="yes"/>
      <point x="-543" y="1460"/>
      <point x="-664" y="1563"/>
      <point x="-664" y="1755" type="curve" smooth="yes"/>
      <point x="-664" y="1762"/>
      <point x="-664" y="1769"/>
      <point x="-664" y="1780" type="curve"/>
      <point x="-631" y="1780" type="line"/>
      <point x="-631" y="1777.11"/>
      <point x="-631" y="1756.68"/>
      <point x="-631" y="1755" type="curve"/>
      <point x="-631" y="1581"/>
      <point x="-521" y="1493"/>
      <point x="-317" y="1493" type="curve" smooth="yes"/>
      <point x="-110" y="1493"/>
      <point x="-1" y="1581"/>
      <point x="-1" y="1755" type="curve"/>
      <point x="-1" y="1756.84"/>
      <point x="-1" y="1777.75"/>
      <point x="-1" y="1780" type="curve"/>
    </contour>
  </outline>
  <guideline angle="90" x="-317" y="0"/>
  <guideline angle="0" x="0" y="1221"/>
</glyph>
<glyph name="matraShortE.dv" format="2">
  <unicode hex="0946"/>
  <anchor x="-317" y="1221" name="_top"/>
  <outline>
    <contour>
      <point x="-1249" y="1808" type="curve" smooth="yes"/>
      <point x="-1249" y="1659"/>
      <point x="-1167" y="1572"/>
      <point x="-962" y="1572" type="curve" smooth="yes"/>
      <point x="-661" y="1572" type="line" smooth="yes"/>
      <point x="-401" y="1572"/>
      <point x="-300" y="1460"/>
      <point x="-300" y="1253" type="curve" smooth="yes"/>
      <point x="-300" y="1219" type="line"/>
      <point x="-334" y="1219" type="line"/>
      <point x="-334" y="1253" type="line" smooth="yes"/>
      <point x="-334" y="1442"/>
      <point x="-423" y="1539"/>
      <point x="-663" y="1539" type="curve" smooth="yes"/>
      <point x="-966" y="1539" type="line" smooth="yes"/>
      <point x="-1191" y="1539"/>
      <point x="-1282" y="1641"/>
      <point x="-1282" y="1797" type="curve" smooth="yes"/>
      <point x="-1282" y="1813"/>
      <point x="-1281" y="1831"/>
      <point x="-1278" y="1848" type="curve"/>
      <point x="-1249" y="1848" type="line"/>
      <point x="-1249" y="1844.72"/>
      <point x="-1249" y="1811.36"/>
    </contour>
  </outline>
</glyph>
<glyph name="matraE.dv" format="2">
  <unicode hex="0947"/>
  <anchor x="-317" y="1221" name="_top"/>
  <outline>
    <contour>
      <point x="-1187" y="1798" type="line"/>
      <point x="-1137" y="1798" type="line"/>
      <point x="-970.041" y="1684.44"/>
      <point x="-457.071" y="1335.52"/>
      <point x="-299" y="1228" type="curve"/>
      <point x="-299" y="1221" type="line"/>
      <point x="-344" y="1221" type="line"/>
      <point x="-344" y="1230" type="line"/>
      <point x="-488" y="1316"/>
      <point x="-628" y="1412"/>
      <point x="-784" y="1518" type="curve" smooth="yes"/>
      <point x="-1187" y="1791" type="line"/>
    </contour>
  </outline>
</glyph>
<glyph name="matraAChandra.dv" format="2">
  <advance width="634"/>
  <unicode hex="0949"/>
  <outline>
    <contour>
      <point x="335" y="0" type="line"/>
      <point x="299" y="0" type="line"/>
      <point x="299" y="1209" type="line"/>
      <point x="335" y="1209" type="line"/>
    </contour>
    <contour>
      <point x="677" y="1200" type="line"/>
      <point x="-36" y="1200" type="line"/>
      <point x="-43" y="1230" type="line"/>
      <point x="670" y="1230" type="line"/>
    </contour>
    <contour>
      <point x="351" y="1780" type="line"/>
      <point x="351" y="1769"/>
      <point x="351" y="1762"/>
      <point x="351" y="1755" type="curve" smooth="yes"/>
      <point x="351" y="1563"/>
      <point x="230" y="1460"/>
      <point x="1" y="1460" type="curve" smooth="yes"/>
      <point x="-225" y="1460"/>
      <point x="-346" y="1563"/>
      <point x="-346" y="1755" type="curve" smooth="yes"/>
      <point x="-346" y="1762"/>
      <point x="-346" y="1769"/>
      <point x="-346" y="1780" type="curve"/>
      <point x="-313" y="1780" type="line"/>
      <point x="-313" y="1777.11"/>
      <point x="-313" y="1756.68"/>
      <point x="-313" y="1755" type="curve"/>
      <point x="-313" y="1581"/>
      <point x="-203" y="1493"/>
      <point x="1" y="1493" type="curve" smooth="yes"/>
      <point x="208" y="1493"/>
      <point x="317" y="1581"/>
      <point x="317" y="1755" type="curve"/>
      <point x="317" y="1756.84"/>
      <point x="317" y="1777.75"/>
      <point x="317" y="1780" type="curve"/>
    </contour>
  </outline>
</glyph>
<glyph name="matraShortO.dv" format="2">
  <advance width="634"/>
  <unicode hex="094A"/>
  <outline>
    <contour>
      <point x="-616" y="1808" type="curve" smooth="yes"/>
      <point x="-616" y="1659"/>
      <point x="-534" y="1572"/>
      <point x="-329" y="1572" type="curve" smooth="yes"/>
      <point x="-28" y="1572" type="line" smooth="yes"/>
      <point x="232" y="1572"/>
      <point x="333" y="1460"/>
      <point x="333" y="1253" type="curve" smooth="yes"/>
      <point x="333" y="1219" type="line"/>
      <point x="299" y="1219" type="line"/>
      <point x="299" y="1253" type="line" smooth="yes"/>
      <point x="299" y="1442"/>
      <point x="210" y="1539"/>
      <point x="-30" y="1539" type="curve" smooth="yes"/>
      <point x="-333" y="1539" type="line" smooth="yes"/>
      <point x="-558" y="1539"/>
      <point x="-649" y="1641"/>
      <point x="-649" y="1797" type="curve" smooth="yes"/>
      <point x="-649" y="1813"/>
      <point x="-648" y="1831"/>
      <point x="-645" y="1848" type="curve"/>
      <point x="-616" y="1848" type="line"/>
      <point x="-616" y="1844.72"/>
      <point x="-616" y="1811.36"/>
    </contour>
    <contour>
      <point x="335" y="0" type="line"/>
      <point x="299" y="0" type="line"/>
      <point x="299" y="1209" type="line"/>
      <point x="335" y="1209" type="line"/>
    </contour>
    <contour>
      <point x="677" y="1200" type="line"/>
      <point x="-36" y="1200" type="line"/>
      <point x="-43" y="1230" type="line"/>
      <point x="670" y="1230" type="line"/>
    </contour>
  </outline>
</glyph>
<glyph name="matraO.dv" format="2">
  <advance width="634"/>
  <unicode hex="094B"/>
  <outline>
    <contour>
      <point x="335" y="0" type="line"/>
      <point x="299" y="0" type="line"/>
      <point x="299" y="1209" type="line"/>
      <point x="335" y="1209" type="line"/>
    </contour>
    <contour>
      <point x="677" y="1200" type="line"/>
      <point x="-36" y="1200" type="line"/>
      <point x="-43" y="1230" type="line"/>
      <point x="670" y="1230" type="line"/>
    </contour>
    <contour>
      <point x="-552" y="1798" type="line"/>
      <point x="-502" y="1798" type="line"/>
      <point x="-335.041" y="1684.44"/>
      <point x="177.929" y="1335.52"/>
      <point x="336" y="1228" type="curve"/>
      <point x="336" y="1221" type="line"/>
      <point x="291" y="1221" type="line"/>
      <point x="291" y="1230" type="line"/>
      <point x="147" y="1316"/>
      <point x="7" y="1412"/>
      <point x="-149" y="1518" type="curve" smooth="yes"/>
      <point x="-552" y="1791" type="line"/>
    </contour>
  </outline>
</glyph>
<glyph name="uni094E" format="2">
  <advance width="634"/>
  <unicode hex="094E"/>
  <outline>
    <contour>
      <point x="335" y="1209" type="line"/>
      <point x="335" y="0" type="line"/>
      <point x="299" y="0" type="line"/>
      <point x="299" y="1209" type="line"/>
    </contour>
    <contour>
      <point x="299" y="1200" type="line"/>
      <point x="299" y="1230" type="line"/>
      <point x="670" y="1230" type="line"/>
      <point x="677" y="1200" type="line"/>
    </contour>
  </outline>
</glyph>
<glyph name="uni094F" format="2">
  <advance width="634"/>
  <unicode hex="094F"/>
  <outline>
    <contour>
      <point x="-615" y="1649" type="curve" smooth="yes"/>
      <point x="-615" y="1662"/>
      <point x="-614" y="1677"/>
      <point x="-611" y="1695" type="curve"/>
      <point x="-581" y="1695" type="line"/>
      <point x="-581" y="1664" type="line" smooth="yes"/>
      <point x="-581" y="1520"/>
      <point x="-487.994" y="1491.39"/>
      <point x="-293" y="1476" type="curve" smooth="yes"/>
      <point x="-65" y="1458" type="line" smooth="yes"/>
      <point x="195" y="1438"/>
      <point x="270" y="1379"/>
      <point x="305" y="1314" type="curve"/>
      <point x="309" y="1315" type="line"/>
      <point x="301" y="1495"/>
      <point x="232" y="1586"/>
      <point x="76" y="1636" type="curve" smooth="yes"/>
      <point x="-94" y="1691" type="line" smooth="yes"/>
      <point x="-256" y="1744"/>
      <point x="-321" y="1817"/>
      <point x="-321" y="1940" type="curve" smooth="yes"/>
      <point x="-321" y="1954"/>
      <point x="-320" y="1968"/>
      <point x="-318" y="1981" type="curve"/>
      <point x="-288" y="1981" type="line"/>
      <point x="-288" y="1954" type="line" smooth="yes"/>
      <point x="-288" y="1824"/>
      <point x="-217" y="1769"/>
      <point x="-80" y="1723" type="curve" smooth="yes"/>
      <point x="87" y="1667" type="line" smooth="yes"/>
      <point x="264" y="1608"/>
      <point x="334" y="1512"/>
      <point x="334" y="1298" type="curve" smooth="yes"/>
      <point x="334" y="1219" type="line"/>
      <point x="300" y="1219" type="line"/>
      <point x="300" y="1244" type="line" smooth="yes"/>
      <point x="300" y="1339"/>
      <point x="198" y="1408"/>
      <point x="-65" y="1426" type="curve" smooth="yes"/>
      <point x="-295" y="1442" type="line" smooth="yes"/>
      <point x="-507" y="1456"/>
      <point x="-615" y="1503"/>
    </contour>
    <contour>
      <point x="335" y="0" type="line"/>
      <point x="299" y="0" type="line"/>
      <point x="299" y="1209" type="line"/>
      <point x="335" y="1209" type="line"/>
    </contour>
    <contour>
      <point x="677" y="1200" type="line"/>
      <point x="-36" y="1200" type="line"/>
      <point x="-43" y="1230" type="line"/>
      <point x="670" y="1230" type="line"/>
    </contour>
  </outline>
</glyph>
<glyph name="Om.dv" format="2">
  <advance width="2318"/>
  <unicode hex="0950"/>
  <outline>
    <contour>
      <point x="1585" y="1498" type="curve" smooth="yes"/>
      <point x="1543" y="1498"/>
      <point x="1522" y="1522"/>
      <point x="1522" y="1554" type="curve" smooth="yes"/>
      <point x="1522" y="1557" type="line" smooth="yes"/>
      <point x="1522" y="1587"/>
      <point x="1543" y="1611"/>
      <point x="1585" y="1611" type="curve" smooth="yes"/>
      <point x="1627" y="1611"/>
      <point x="1648" y="1587"/>
      <point x="1648" y="1557" type="curve" smooth="yes"/>
      <point x="1648" y="1554" type="line" smooth="yes"/>
      <point x="1648" y="1522"/>
      <point x="1627" y="1498"/>
    </contour>
    <contour>
      <point x="1959" y="1546" type="line"/>
      <point x="1959" y="1536"/>
      <point x="1959" y="1532"/>
      <point x="1959" y="1525" type="curve" smooth="yes"/>
      <point x="1959" y="1333"/>
      <point x="1828" y="1230"/>
      <point x="1584" y="1230" type="curve" smooth="yes"/>
      <point x="1347" y="1230"/>
      <point x="1215" y="1333"/>
      <point x="1215" y="1525" type="curve" smooth="yes"/>
      <point x="1215" y="1532"/>
      <point x="1215" y="1536"/>
      <point x="1215" y="1546" type="curve"/>
      <point x="1249" y="1546" type="line"/>
      <point x="1249" y="1525" type="line" smooth="yes"/>
      <point x="1249" y="1351"/>
      <point x="1369" y="1263"/>
      <point x="1584" y="1263" type="curve" smooth="yes"/>
      <point x="1805" y="1263"/>
      <point x="1925" y="1351"/>
      <point x="1925" y="1525" type="curve" smooth="yes"/>
      <point x="1925" y="1546" type="line"/>
    </contour>
    <contour>
      <point x="1426" y="272" type="line"/>
      <point x="1515" y="213"/>
      <point x="1609" y="184"/>
      <point x="1730" y="184" type="curve" smooth="yes"/>
      <point x="1941" y="184"/>
      <point x="2109" y="302"/>
      <point x="2109" y="562" type="curve" smooth="yes"/>
      <point x="2109" y="571" type="line" smooth="yes"/>
      <point x="2109" y="799"/>
      <point x="1997" y="950"/>
      <point x="1760" y="950" type="curve" smooth="yes"/>
      <point x="1594" y="950"/>
      <point x="1495" y="885"/>
      <point x="1419" y="751" type="curve" smooth="yes"/>
      <point x="1380" y="682" type="line" smooth="yes"/>
      <point x="1310" y="561"/>
      <point x="1243" y="527"/>
      <point x="1118" y="527" type="curve" smooth="yes"/>
      <point x="1022" y="527"/>
      <point x="951" y="570"/>
      <point x="881" y="605" type="curve"/>
      <point x="881" y="623" type="line"/>
      <point x="938" y="602"/>
      <point x="1013" y="557"/>
      <point x="1113" y="557" type="curve" smooth="yes"/>
      <point x="1228" y="557"/>
      <point x="1289" y="598"/>
      <point x="1347" y="700" type="curve" smooth="yes"/>
      <point x="1385" y="764" type="line" smooth="yes"/>
      <point x="1472" y="911"/>
      <point x="1576" y="984"/>
      <point x="1759" y="984" type="curve" smooth="yes"/>
      <point x="2015" y="984"/>
      <point x="2147" y="821"/>
      <point x="2147" y="571" type="curve" smooth="yes"/>
      <point x="2147" y="562" type="line" smooth="yes"/>
      <point x="2147" y="288"/>
      <point x="1976" y="150"/>
      <point x="1732" y="150" type="curve" smooth="yes"/>
      <point x="1609" y="150"/>
      <point x="1508" y="180"/>
      <point x="1431" y="230" type="curve"/>
    </contour>
    <contour>
      <point x="87" y="203" type="line"/>
      <point x="229" y="98"/>
      <point x="403" y="46"/>
      <point x="611" y="46" type="curve" smooth="yes"/>
      <point x="894" y="46"/>
      <point x="1067" y="152"/>
      <point x="1067" y="335" type="curve"/>
      <point x="1067" y="335.833"/>
      <point x="1067" y="339.167"/>
      <point x="1067" y="340" type="curve"/>
      <point x="1067" y="538"/>
      <point x="897" y="635"/>
      <point x="577" y="638" type="curve" smooth="yes"/>
      <point x="335" y="640" type="line"/>
      <point x="335" y="671" type="line"/>
      <point x="572" y="673" type="line" smooth="yes"/>
      <point x="896" y="676"/>
      <point x="1046" y="773"/>
      <point x="1046" y="946" type="curve"/>
      <point x="1046" y="946"/>
      <point x="1046" y="951"/>
      <point x="1046" y="951" type="curve"/>
      <point x="1046" y="1111"/>
      <point x="902" y="1214"/>
      <point x="630" y="1214" type="curve" smooth="yes"/>
      <point x="454" y="1214"/>
      <point x="305" y="1176"/>
      <point x="157" y="1098" type="curve"/>
      <point x="162" y="1139" type="line"/>
      <point x="292" y="1207"/>
      <point x="441" y="1248"/>
      <point x="630" y="1248" type="curve" smooth="yes"/>
      <point x="924" y="1248"/>
      <point x="1084" y="1130"/>
      <point x="1084" y="951" type="curve"/>
      <point x="1084" y="950.455"/>
      <point x="1084" y="945.545"/>
      <point x="1084" y="945" type="curve"/>
      <point x="1084" y="767"/>
      <point x="949" y="675"/>
      <point x="716" y="657" type="curve"/>
      <point x="716" y="653" type="line"/>
      <point x="961" y="639"/>
      <point x="1105" y="526"/>
      <point x="1105" y="342" type="curve"/>
      <point x="1105" y="341"/>
      <point x="1105" y="336"/>
      <point x="1105" y="335" type="curve"/>
      <point x="1105" y="129"/>
      <point x="921" y="12"/>
      <point x="611" y="12" type="curve" smooth="yes"/>
      <point x="393" y="12"/>
      <point x="219" y="65"/>
      <point x="93" y="158" type="curve"/>
    </contour>
  </outline>
</glyph>
<glyph name="Udatta.dv" format="2">
  <unicode hex="0951"/>
  <anchor x="-317" y="1221" name="_top"/>
  <outline>
    <contour>
      <point x="-334" y="1454" type="line"/>
      <point x="-334" y="1926" type="line"/>
      <point x="-300" y="1926" type="line"/>
      <point x="-300" y="1454" type="line"/>
    </contour>
  </outline>
  <guideline angle="90" x="-317" y="0"/>
  <guideline angle="0" x="0" y="1221"/>
</glyph>
<glyph name="Anudatta.dv" format="2">
  <unicode hex="0952"/>
  <anchor x="-299" y="9" name="_bottom3"/>
  <outline>
    <contour>
      <point x="-1290" y="-423" type="line"/>
      <point x="-1298" y="-390" type="line"/>
      <point x="-306" y="-390" type="line"/>
      <point x="-299" y="-423" type="line"/>
    </contour>
  </outline>
  <guideline angle="90" x="-299" y="0"/>
  <guideline angle="0" x="0" y="9"/>
  <guideline angle="90" x="-1076" y="0"/>
</glyph>
<glyph name="uni0953" format="2">
  <unicode hex="0953"/>
  <anchor x="-317" y="1221" name="_top"/>
  <outline>
    <contour>
      <point x="-368" y="1442" type="line"/>
      <point x="-778" y="1792" type="line"/>
      <point x="-778" y="1798" type="line"/>
      <point x="-732" y="1798" type="line"/>
      <point x="-324" y="1447" type="line"/>
      <point x="-324" y="1442" type="line"/>
    </contour>
  </outline>
  <guideline angle="90" x="-317" y="0"/>
  <guideline angle="0" x="0" y="1221"/>
</glyph>
<glyph name="uni0954" format="2">
  <unicode hex="0954"/>
  <anchor x="-317" y="1221" name="_top"/>
  <outline>
    <contour>
      <point x="-281" y="1442" type="line"/>
      <point x="-326" y="1442" type="line"/>
      <point x="-326" y="1447" type="line"/>
      <point x="82" y="1798" type="line"/>
      <point x="128" y="1798" type="line"/>
      <point x="128" y="1792" type="line"/>
    </contour>
  </outline>
</glyph>
